<svg width="90" height="21" viewBox="0 0 90 21" fill="none" xmlns="http://www.w3.org/2000/svg">
<path d="M8.664 3.2V20H3V7.472H0.12V3.2H8.664ZM23.4473 11.144C24.1673 11.592 24.7193 12.144 25.1033 12.8C25.5033 13.44 25.7033 14.176 25.7033 15.008C25.7033 16.08 25.3833 17.024 24.7433 17.84C24.1193 18.656 23.2313 19.288 22.0793 19.736C20.9433 20.168 19.6393 20.384 18.1673 20.384C16.6953 20.384 15.3833 20.168 14.2313 19.736C13.0953 19.288 12.2073 18.656 11.5673 17.84C10.9433 17.024 10.6313 16.08 10.6313 15.008C10.6313 14.176 10.8233 13.44 11.2073 12.8C11.6073 12.144 12.1673 11.592 12.8873 11.144C11.7833 10.264 11.2313 9.16 11.2313 7.832C11.2313 6.824 11.5193 5.944 12.0953 5.192C12.6873 4.44 13.5033 3.856 14.5433 3.44C15.5993 3.024 16.8073 2.816 18.1673 2.816C19.5273 2.816 20.7273 3.024 21.7673 3.44C22.8233 3.856 23.6393 4.44 24.2153 5.192C24.8073 5.944 25.1033 6.824 25.1033 7.832C25.1033 9.16 24.5513 10.264 23.4473 11.144ZM18.1673 6.632C17.7673 6.632 17.4393 6.76 17.1833 7.016C16.9433 7.272 16.8233 7.624 16.8233 8.072C16.8233 8.52 16.9433 8.872 17.1833 9.128C17.4393 9.384 17.7673 9.512 18.1673 9.512C18.5673 9.512 18.8873 9.384 19.1273 9.128C19.3833 8.872 19.5113 8.52 19.5113 8.072C19.5113 7.624 19.3833 7.272 19.1273 7.016C18.8873 6.76 18.5673 6.632 18.1673 6.632ZM18.1673 16.568C18.7113 16.568 19.1513 16.408 19.4873 16.088C19.8393 15.768 20.0153 15.344 20.0153 14.816C20.0153 14.288 19.8393 13.864 19.4873 13.544C19.1513 13.224 18.7113 13.064 18.1673 13.064C17.6233 13.064 17.1753 13.224 16.8233 13.544C16.4873 13.864 16.3193 14.288 16.3193 14.816C16.3193 15.344 16.4873 15.768 16.8233 16.088C17.1753 16.408 17.6233 16.568 18.1673 16.568ZM43.2889 17.12H41.0569V20H35.5609V17.12H26.8489V13.52L33.9769 3.2H39.7849L33.4489 12.728H35.7289V10.16H41.0569V12.728H43.2889V17.12ZM50.9428 9.128C53.2948 9.128 55.0228 9.624 56.1268 10.616C57.2468 11.592 57.8068 12.88 57.8068 14.48C57.8068 15.536 57.5268 16.512 56.9668 17.408C56.4228 18.288 55.5748 19.008 54.4228 19.568C53.2708 20.112 51.8388 20.384 50.1268 20.384C48.9428 20.384 47.7588 20.256 46.5748 20C45.4068 19.744 44.3828 19.368 43.5028 18.872L45.4228 14.696C46.1268 15.096 46.8628 15.4 47.6308 15.608C48.4148 15.816 49.1748 15.92 49.9108 15.92C50.5668 15.92 51.0948 15.808 51.4948 15.584C51.9108 15.344 52.1188 15.016 52.1188 14.6C52.1188 14.2 51.9348 13.904 51.5668 13.712C51.1988 13.504 50.5348 13.4 49.5748 13.4H44.7028L45.5428 3.2H56.7028V7.472H50.1988L50.0788 9.128H50.9428ZM61.8902 20.24C60.9782 20.24 60.2182 19.952 59.6102 19.376C59.0182 18.784 58.7222 18.032 58.7222 17.12C58.7222 16.208 59.0182 15.472 59.6102 14.912C60.2182 14.336 60.9782 14.048 61.8902 14.048C62.8022 14.048 63.5542 14.336 64.1462 14.912C64.7542 15.472 65.0582 16.208 65.0582 17.12C65.0582 18.032 64.7542 18.784 64.1462 19.376C63.5542 19.952 62.8022 20.24 61.8902 20.24ZM66.7313 6.872H72.1553V20H66.7313V6.872ZM69.4433 5.816C68.4673 5.816 67.6753 5.56 67.0673 5.048C66.4753 4.52 66.1793 3.856 66.1793 3.056C66.1793 2.256 66.4753 1.6 67.0673 1.088C67.6753 0.559999 68.4673 0.295999 69.4433 0.295999C70.4353 0.295999 71.2273 0.543999 71.8193 1.04C72.4113 1.536 72.7073 2.176 72.7073 2.96C72.7073 3.792 72.4113 4.48 71.8193 5.024C71.2273 5.552 70.4353 5.816 69.4433 5.816ZM81.4954 20.24C80.0394 20.24 78.7274 19.952 77.5594 19.376C76.4074 18.784 75.5034 17.976 74.8474 16.952C74.1914 15.912 73.8634 14.736 73.8634 13.424C73.8634 12.112 74.1914 10.944 74.8474 9.92C75.5034 8.88 76.4074 8.072 77.5594 7.496C78.7274 6.92 80.0394 6.632 81.4954 6.632C82.9674 6.632 84.2794 6.92 85.4314 7.496C86.5994 8.072 87.5034 8.88 88.1434 9.92C88.7994 10.944 89.1274 12.112 89.1274 13.424C89.1274 14.736 88.7994 15.912 88.1434 16.952C87.5034 17.976 86.5994 18.784 85.4314 19.376C84.2794 19.952 82.9674 20.24 81.4954 20.24ZM81.4954 16.016C82.1194 16.016 82.6314 15.792 83.0314 15.344C83.4314 14.88 83.6314 14.24 83.6314 13.424C83.6314 12.608 83.4314 11.976 83.0314 11.528C82.6314 11.08 82.1194 10.856 81.4954 10.856C80.8714 10.856 80.3594 11.08 79.9594 11.528C79.5594 11.976 79.3594 12.608 79.3594 13.424C79.3594 14.24 79.5594 14.88 79.9594 15.344C80.3594 15.792 80.8714 16.016 81.4954 16.016Z" fill="#FFD66B"/>
</svg>
