<svg width="1439" height="1293" viewBox="0 0 1439 1293" fill="none" xmlns="http://www.w3.org/2000/svg">
<rect width="480" height="646" fill="white"/>
<rect x="959" width="480" height="646" fill="#BCBCBC"/>
<rect x="480" y="646" width="479" height="647" fill="#343434"/>
<rect x="480" width="479" height="646" fill="#FFD66B"/>
<rect y="646" width="480" height="647" fill="#606060"/>
<rect x="959" y="646" width="480" height="647" fill="#1E1E1E"/>
<path d="M187.374 294L189.438 277.2H190.734L188.67 294H187.374ZM178.278 289.44V288.12H192.798V289.44H178.278ZM181.134 294L183.198 277.2H184.518L182.43 294H181.134ZM179.046 283.08V281.76H193.566V283.08H179.046ZM198.613 285.336H207.493V286.872H198.613V285.336ZM198.805 294H197.029V277.2H208.549V278.736H198.805V294ZM213.8 285.336H222.68V286.872H213.8V285.336ZM213.992 294H212.216V277.2H223.736V278.736H213.992V294ZM228.988 285.336H237.868V286.872H228.988V285.336ZM229.18 294H227.404V277.2H238.924V278.736H229.18V294ZM244.175 285.336H253.055V286.872H244.175V285.336ZM244.367 294H242.591V277.2H254.111V278.736H244.367V294ZM259.363 285.336H268.243V286.872H259.363V285.336ZM259.555 294H257.779V277.2H269.299V278.736H259.555V294ZM274.55 285.336H283.43V286.872H274.55V285.336ZM274.742 294H272.966V277.2H284.486V278.736H274.742V294Z" fill="black"/>
<path d="M187.163 964L189.227 947.2H190.523L188.459 964H187.163ZM178.067 959.44V958.12H192.587V959.44H178.067ZM180.923 964L182.987 947.2H184.307L182.219 964H180.923ZM178.835 953.08V951.76H193.355V953.08H178.835ZM202.218 964.144C200.73 964.144 199.474 963.816 198.45 963.16C197.426 962.488 196.65 961.528 196.122 960.28C195.594 959.016 195.33 957.504 195.33 955.744C195.33 953.84 195.65 952.248 196.29 950.968C196.946 949.672 197.85 948.696 199.002 948.04C200.154 947.384 201.49 947.056 203.01 947.056C203.762 947.056 204.482 947.128 205.17 947.272C205.858 947.416 206.466 947.648 206.994 947.968L206.298 949.36C205.866 949.072 205.37 948.872 204.81 948.76C204.25 948.632 203.658 948.568 203.034 948.568C201.226 948.568 199.778 949.144 198.69 950.296C197.618 951.448 197.082 953.168 197.082 955.456C197.082 955.808 197.098 956.248 197.13 956.776C197.178 957.288 197.274 957.8 197.418 958.312L196.818 957.856C196.994 957.024 197.338 956.32 197.85 955.744C198.362 955.152 199.002 954.704 199.77 954.4C200.538 954.096 201.378 953.944 202.29 953.944C203.41 953.944 204.394 954.152 205.242 954.568C206.09 954.984 206.754 955.568 207.234 956.32C207.714 957.072 207.954 957.96 207.954 958.984C207.954 960.024 207.706 960.936 207.21 961.72C206.714 962.488 206.026 963.088 205.146 963.52C204.282 963.936 203.306 964.144 202.218 964.144ZM202.146 962.68C202.946 962.68 203.65 962.536 204.258 962.248C204.882 961.944 205.37 961.52 205.722 960.976C206.074 960.416 206.25 959.768 206.25 959.032C206.25 957.928 205.866 957.048 205.098 956.392C204.346 955.736 203.322 955.408 202.026 955.408C201.162 955.408 200.41 955.568 199.77 955.888C199.13 956.208 198.626 956.648 198.258 957.208C197.89 957.752 197.706 958.376 197.706 959.08C197.706 959.688 197.874 960.272 198.21 960.832C198.546 961.376 199.042 961.824 199.698 962.176C200.37 962.512 201.186 962.68 202.146 962.68ZM216.651 964.144C215.355 964.144 214.203 963.808 213.195 963.136C212.187 962.448 211.395 961.472 210.819 960.208C210.243 958.928 209.955 957.392 209.955 955.6C209.955 953.808 210.243 952.28 210.819 951.016C211.395 949.736 212.187 948.76 213.195 948.088C214.203 947.4 215.355 947.056 216.651 947.056C217.947 947.056 219.099 947.4 220.107 948.088C221.115 948.76 221.907 949.736 222.483 951.016C223.075 952.28 223.371 953.808 223.371 955.6C223.371 957.392 223.075 958.928 222.483 960.208C221.907 961.472 221.115 962.448 220.107 963.136C219.099 963.808 217.947 964.144 216.651 964.144ZM216.651 962.56C217.643 962.56 218.507 962.296 219.243 961.768C219.979 961.224 220.555 960.44 220.971 959.416C221.387 958.376 221.595 957.104 221.595 955.6C221.595 954.096 221.387 952.832 220.971 951.808C220.555 950.768 219.979 949.984 219.243 949.456C218.507 948.912 217.643 948.64 216.651 948.64C215.691 948.64 214.835 948.912 214.083 949.456C213.331 949.984 212.747 950.768 212.331 951.808C211.915 952.832 211.707 954.096 211.707 955.6C211.707 957.104 211.915 958.376 212.331 959.416C212.747 960.44 213.331 961.224 214.083 961.768C214.835 962.296 215.691 962.56 216.651 962.56ZM232.734 964.144C231.246 964.144 229.99 963.816 228.966 963.16C227.942 962.488 227.166 961.528 226.638 960.28C226.11 959.016 225.846 957.504 225.846 955.744C225.846 953.84 226.166 952.248 226.806 950.968C227.462 949.672 228.366 948.696 229.518 948.04C230.67 947.384 232.006 947.056 233.526 947.056C234.278 947.056 234.998 947.128 235.686 947.272C236.374 947.416 236.982 947.648 237.51 947.968L236.814 949.36C236.382 949.072 235.886 948.872 235.326 948.76C234.766 948.632 234.174 948.568 233.55 948.568C231.742 948.568 230.294 949.144 229.206 950.296C228.134 951.448 227.598 953.168 227.598 955.456C227.598 955.808 227.614 956.248 227.646 956.776C227.694 957.288 227.79 957.8 227.934 958.312L227.334 957.856C227.51 957.024 227.854 956.32 228.366 955.744C228.878 955.152 229.518 954.704 230.286 954.4C231.054 954.096 231.894 953.944 232.806 953.944C233.926 953.944 234.91 954.152 235.758 954.568C236.606 954.984 237.27 955.568 237.75 956.32C238.23 957.072 238.47 957.96 238.47 958.984C238.47 960.024 238.222 960.936 237.726 961.72C237.23 962.488 236.542 963.088 235.662 963.52C234.798 963.936 233.822 964.144 232.734 964.144ZM232.662 962.68C233.462 962.68 234.166 962.536 234.774 962.248C235.398 961.944 235.886 961.52 236.238 960.976C236.59 960.416 236.766 959.768 236.766 959.032C236.766 957.928 236.382 957.048 235.614 956.392C234.862 955.736 233.838 955.408 232.542 955.408C231.678 955.408 230.926 955.568 230.286 955.888C229.646 956.208 229.142 956.648 228.774 957.208C228.406 957.752 228.222 958.376 228.222 959.08C228.222 959.688 228.39 960.272 228.726 960.832C229.062 961.376 229.558 961.824 230.214 962.176C230.886 962.512 231.702 962.68 232.662 962.68ZM247.167 964.144C245.871 964.144 244.719 963.808 243.711 963.136C242.703 962.448 241.911 961.472 241.335 960.208C240.759 958.928 240.471 957.392 240.471 955.6C240.471 953.808 240.759 952.28 241.335 951.016C241.911 949.736 242.703 948.76 243.711 948.088C244.719 947.4 245.871 947.056 247.167 947.056C248.463 947.056 249.615 947.4 250.623 948.088C251.631 948.76 252.423 949.736 252.999 951.016C253.591 952.28 253.887 953.808 253.887 955.6C253.887 957.392 253.591 958.928 252.999 960.208C252.423 961.472 251.631 962.448 250.623 963.136C249.615 963.808 248.463 964.144 247.167 964.144ZM247.167 962.56C248.159 962.56 249.023 962.296 249.759 961.768C250.495 961.224 251.071 960.44 251.487 959.416C251.903 958.376 252.111 957.104 252.111 955.6C252.111 954.096 251.903 952.832 251.487 951.808C251.071 950.768 250.495 949.984 249.759 949.456C249.023 948.912 248.159 948.64 247.167 948.64C246.207 948.64 245.351 948.912 244.599 949.456C243.847 949.984 243.263 950.768 242.847 951.808C242.431 952.832 242.223 954.096 242.223 955.6C242.223 957.104 242.431 958.376 242.847 959.416C243.263 960.44 243.847 961.224 244.599 961.768C245.351 962.296 246.207 962.56 247.167 962.56ZM263.249 964.144C261.761 964.144 260.505 963.816 259.481 963.16C258.457 962.488 257.681 961.528 257.153 960.28C256.625 959.016 256.361 957.504 256.361 955.744C256.361 953.84 256.681 952.248 257.321 950.968C257.977 949.672 258.881 948.696 260.033 948.04C261.185 947.384 262.521 947.056 264.041 947.056C264.793 947.056 265.513 947.128 266.201 947.272C266.889 947.416 267.497 947.648 268.025 947.968L267.329 949.36C266.897 949.072 266.401 948.872 265.841 948.76C265.281 948.632 264.689 948.568 264.065 948.568C262.257 948.568 260.809 949.144 259.721 950.296C258.649 951.448 258.113 953.168 258.113 955.456C258.113 955.808 258.129 956.248 258.161 956.776C258.209 957.288 258.305 957.8 258.449 958.312L257.849 957.856C258.025 957.024 258.369 956.32 258.881 955.744C259.393 955.152 260.033 954.704 260.801 954.4C261.569 954.096 262.409 953.944 263.321 953.944C264.441 953.944 265.425 954.152 266.273 954.568C267.121 954.984 267.785 955.568 268.265 956.32C268.745 957.072 268.985 957.96 268.985 958.984C268.985 960.024 268.737 960.936 268.241 961.72C267.745 962.488 267.057 963.088 266.177 963.52C265.313 963.936 264.337 964.144 263.249 964.144ZM263.177 962.68C263.977 962.68 264.681 962.536 265.289 962.248C265.913 961.944 266.401 961.52 266.753 960.976C267.105 960.416 267.281 959.768 267.281 959.032C267.281 957.928 266.897 957.048 266.129 956.392C265.377 955.736 264.353 955.408 263.057 955.408C262.193 955.408 261.441 955.568 260.801 955.888C260.161 956.208 259.657 956.648 259.289 957.208C258.921 957.752 258.737 958.376 258.737 959.08C258.737 959.688 258.905 960.272 259.241 960.832C259.577 961.376 260.073 961.824 260.729 962.176C261.401 962.512 262.217 962.68 263.177 962.68ZM277.682 964.144C276.386 964.144 275.234 963.808 274.226 963.136C273.218 962.448 272.426 961.472 271.85 960.208C271.274 958.928 270.986 957.392 270.986 955.6C270.986 953.808 271.274 952.28 271.85 951.016C272.426 949.736 273.218 948.76 274.226 948.088C275.234 947.4 276.386 947.056 277.682 947.056C278.978 947.056 280.13 947.4 281.138 948.088C282.146 948.76 282.938 949.736 283.514 951.016C284.106 952.28 284.402 953.808 284.402 955.6C284.402 957.392 284.106 958.928 283.514 960.208C282.938 961.472 282.146 962.448 281.138 963.136C280.13 963.808 278.978 964.144 277.682 964.144ZM277.682 962.56C278.674 962.56 279.538 962.296 280.274 961.768C281.01 961.224 281.586 960.44 282.002 959.416C282.418 958.376 282.626 957.104 282.626 955.6C282.626 954.096 282.418 952.832 282.002 951.808C281.586 950.768 281.01 949.984 280.274 949.456C279.538 948.912 278.674 948.64 277.682 948.64C276.722 948.64 275.866 948.912 275.114 949.456C274.362 949.984 273.778 950.768 273.362 951.808C272.946 952.832 272.738 954.096 272.738 955.6C272.738 957.104 272.946 958.376 273.362 959.416C273.778 960.44 274.362 961.224 275.114 961.768C275.866 962.296 276.722 962.56 277.682 962.56Z" fill="white"/>
<path d="M672.163 294L674.227 277.2H675.523L673.459 294H672.163ZM663.067 289.44V288.12H677.587V289.44H663.067ZM665.923 294L667.987 277.2H669.307L667.219 294H665.923ZM663.835 283.08V281.76H678.355V283.08H663.835ZM683.402 285.336H692.282V286.872H683.402V285.336ZM683.594 294H681.818V277.2H693.338V278.736H683.594V294ZM698.59 285.336H707.47V286.872H698.59V285.336ZM698.782 294H697.006V277.2H708.526V278.736H698.782V294ZM712.193 294V277.2H719.033C720.825 277.2 722.393 277.56 723.737 278.28C725.097 278.984 726.153 279.968 726.905 281.232C727.657 282.496 728.033 283.952 728.033 285.6C728.033 287.248 727.657 288.704 726.905 289.968C726.153 291.232 725.097 292.224 723.737 292.944C722.393 293.648 720.825 294 719.033 294H712.193ZM713.969 292.464H718.937C720.425 292.464 721.713 292.176 722.801 291.6C723.905 291.008 724.761 290.2 725.369 289.176C725.977 288.136 726.281 286.944 726.281 285.6C726.281 284.24 725.977 283.048 725.369 282.024C724.761 281 723.905 280.2 722.801 279.624C721.713 279.032 720.425 278.736 718.937 278.736H713.969V292.464ZM737.421 294.144C735.933 294.144 734.677 293.816 733.653 293.16C732.629 292.488 731.853 291.528 731.325 290.28C730.797 289.016 730.533 287.504 730.533 285.744C730.533 283.84 730.853 282.248 731.493 280.968C732.149 279.672 733.053 278.696 734.205 278.04C735.357 277.384 736.693 277.056 738.213 277.056C738.965 277.056 739.685 277.128 740.373 277.272C741.061 277.416 741.669 277.648 742.197 277.968L741.501 279.36C741.069 279.072 740.573 278.872 740.013 278.76C739.453 278.632 738.861 278.568 738.237 278.568C736.429 278.568 734.981 279.144 733.893 280.296C732.821 281.448 732.285 283.168 732.285 285.456C732.285 285.808 732.301 286.248 732.333 286.776C732.381 287.288 732.477 287.8 732.621 288.312L732.021 287.856C732.197 287.024 732.541 286.32 733.053 285.744C733.565 285.152 734.205 284.704 734.973 284.4C735.741 284.096 736.581 283.944 737.493 283.944C738.613 283.944 739.597 284.152 740.445 284.568C741.293 284.984 741.957 285.568 742.437 286.32C742.917 287.072 743.157 287.96 743.157 288.984C743.157 290.024 742.909 290.936 742.413 291.72C741.917 292.488 741.229 293.088 740.349 293.52C739.485 293.936 738.509 294.144 737.421 294.144ZM737.349 292.68C738.149 292.68 738.853 292.536 739.461 292.248C740.085 291.944 740.573 291.52 740.925 290.976C741.277 290.416 741.453 289.768 741.453 289.032C741.453 287.928 741.069 287.048 740.301 286.392C739.549 285.736 738.525 285.408 737.229 285.408C736.365 285.408 735.613 285.568 734.973 285.888C734.333 286.208 733.829 286.648 733.461 287.208C733.093 287.752 732.909 288.376 732.909 289.08C732.909 289.688 733.077 290.272 733.413 290.832C733.749 291.376 734.245 291.824 734.901 292.176C735.573 292.512 736.389 292.68 737.349 292.68ZM752.046 294.144C750.558 294.144 749.302 293.816 748.278 293.16C747.254 292.488 746.478 291.528 745.95 290.28C745.422 289.016 745.158 287.504 745.158 285.744C745.158 283.84 745.478 282.248 746.118 280.968C746.774 279.672 747.678 278.696 748.83 278.04C749.982 277.384 751.318 277.056 752.838 277.056C753.59 277.056 754.31 277.128 754.998 277.272C755.686 277.416 756.294 277.648 756.822 277.968L756.126 279.36C755.694 279.072 755.198 278.872 754.638 278.76C754.078 278.632 753.486 278.568 752.862 278.568C751.054 278.568 749.606 279.144 748.518 280.296C747.446 281.448 746.91 283.168 746.91 285.456C746.91 285.808 746.926 286.248 746.958 286.776C747.006 287.288 747.102 287.8 747.246 288.312L746.646 287.856C746.822 287.024 747.166 286.32 747.678 285.744C748.19 285.152 748.83 284.704 749.598 284.4C750.366 284.096 751.206 283.944 752.118 283.944C753.238 283.944 754.222 284.152 755.07 284.568C755.918 284.984 756.582 285.568 757.062 286.32C757.542 287.072 757.782 287.96 757.782 288.984C757.782 290.024 757.534 290.936 757.038 291.72C756.542 292.488 755.854 293.088 754.974 293.52C754.11 293.936 753.134 294.144 752.046 294.144ZM751.974 292.68C752.774 292.68 753.478 292.536 754.086 292.248C754.71 291.944 755.198 291.52 755.55 290.976C755.902 290.416 756.078 289.768 756.078 289.032C756.078 287.928 755.694 287.048 754.926 286.392C754.174 285.736 753.15 285.408 751.854 285.408C750.99 285.408 750.238 285.568 749.598 285.888C748.958 286.208 748.454 286.648 748.086 287.208C747.718 287.752 747.534 288.376 747.534 289.08C747.534 289.688 747.702 290.272 748.038 290.832C748.374 291.376 748.87 291.824 749.526 292.176C750.198 292.512 751.014 292.68 751.974 292.68ZM761.271 294V277.2H768.519C770.391 277.2 771.839 277.576 772.863 278.328C773.903 279.08 774.423 280.144 774.423 281.52C774.423 282.432 774.207 283.2 773.775 283.824C773.359 284.448 772.783 284.92 772.047 285.24C771.327 285.56 770.535 285.72 769.671 285.72L770.079 285.144C771.151 285.144 772.071 285.312 772.839 285.648C773.623 285.968 774.231 286.456 774.663 287.112C775.095 287.752 775.311 288.552 775.311 289.512C775.311 290.936 774.783 292.04 773.727 292.824C772.687 293.608 771.111 294 768.999 294H761.271ZM763.047 292.536H768.975C770.447 292.536 771.575 292.288 772.359 291.792C773.143 291.28 773.535 290.472 773.535 289.368C773.535 288.28 773.143 287.488 772.359 286.992C771.575 286.48 770.447 286.224 768.975 286.224H762.855V284.76H768.399C769.743 284.76 770.783 284.504 771.519 283.992C772.271 283.48 772.647 282.72 772.647 281.712C772.647 280.688 772.271 279.928 771.519 279.432C770.783 278.92 769.743 278.664 768.399 278.664H763.047V292.536Z" fill="black"/>
<path d="M677.167 964L679.231 947.2H680.527L678.463 964H677.167ZM668.071 959.44V958.12H682.591V959.44H668.071ZM670.927 964L672.991 947.2H674.311L672.223 964H670.927ZM668.839 953.08V951.76H683.359V953.08H668.839ZM690.35 964.144C689.134 964.144 687.982 963.952 686.894 963.568C685.822 963.168 684.958 962.64 684.302 961.984L685.142 960.616C685.686 961.176 686.414 961.64 687.326 962.008C688.254 962.376 689.262 962.56 690.35 962.56C691.742 962.56 692.806 962.256 693.542 961.648C694.294 961.04 694.67 960.224 694.67 959.2C694.67 958.176 694.302 957.36 693.566 956.752C692.846 956.144 691.702 955.84 690.134 955.84H688.934V954.568L694.118 948.064L694.358 948.736H684.998V947.2H695.798V948.424L690.614 954.928L689.774 954.376H690.422C692.438 954.376 693.942 954.824 694.934 955.72C695.942 956.616 696.446 957.768 696.446 959.176C696.446 960.12 696.222 960.968 695.774 961.72C695.326 962.472 694.646 963.064 693.734 963.496C692.838 963.928 691.71 964.144 690.35 964.144ZM698.593 959.584V958.336L707.497 947.2H709.417L700.585 958.336L699.649 958.048H713.161V959.584H698.593ZM708.073 964V959.584L708.121 958.048V954.16H709.801V964H708.073ZM719.412 964.144C718.196 964.144 717.044 963.952 715.956 963.568C714.884 963.168 714.02 962.64 713.364 961.984L714.204 960.616C714.748 961.176 715.476 961.64 716.388 962.008C717.316 962.376 718.324 962.56 719.412 962.56C720.804 962.56 721.868 962.256 722.604 961.648C723.356 961.04 723.732 960.224 723.732 959.2C723.732 958.176 723.364 957.36 722.628 956.752C721.908 956.144 720.764 955.84 719.196 955.84H717.996V954.568L723.18 948.064L723.42 948.736H714.06V947.2H724.86V948.424L719.676 954.928L718.836 954.376H719.484C721.5 954.376 723.004 954.824 723.996 955.72C725.004 956.616 725.508 957.768 725.508 959.176C725.508 960.12 725.284 960.968 724.836 961.72C724.388 962.472 723.708 963.064 722.796 963.496C721.9 963.928 720.772 964.144 719.412 964.144ZM727.655 959.584V958.336L736.559 947.2H738.479L729.647 958.336L728.711 958.048H742.223V959.584H727.655ZM737.135 964V959.584L737.183 958.048V954.16H738.863V964H737.135ZM748.475 964.144C747.259 964.144 746.107 963.952 745.019 963.568C743.947 963.168 743.083 962.64 742.427 961.984L743.267 960.616C743.811 961.176 744.539 961.64 745.451 962.008C746.379 962.376 747.387 962.56 748.475 962.56C749.867 962.56 750.931 962.256 751.667 961.648C752.419 961.04 752.795 960.224 752.795 959.2C752.795 958.176 752.427 957.36 751.691 956.752C750.971 956.144 749.827 955.84 748.259 955.84H747.059V954.568L752.243 948.064L752.483 948.736H743.123V947.2H753.923V948.424L748.739 954.928L747.899 954.376H748.547C750.563 954.376 752.067 954.824 753.059 955.72C754.067 956.616 754.571 957.768 754.571 959.176C754.571 960.12 754.347 960.968 753.899 961.72C753.451 962.472 752.771 963.064 751.859 963.496C750.963 963.928 749.835 964.144 748.475 964.144ZM756.718 959.584V958.336L765.622 947.2H767.542L758.71 958.336L757.774 958.048H771.286V959.584H756.718ZM766.198 964V959.584L766.246 958.048V954.16H767.926V964H766.198Z" fill="white"/>
<path d="M1139.92 294L1141.98 277.2H1143.28L1141.22 294H1139.92ZM1130.82 289.44V288.12H1145.34V289.44H1130.82ZM1133.68 294L1135.74 277.2H1137.06L1134.98 294H1133.68ZM1131.59 283.08V281.76H1146.11V283.08H1131.59ZM1149.58 294V277.2H1156.82C1158.7 277.2 1160.14 277.576 1161.17 278.328C1162.21 279.08 1162.73 280.144 1162.73 281.52C1162.73 282.432 1162.51 283.2 1162.08 283.824C1161.66 284.448 1161.09 284.92 1160.35 285.24C1159.63 285.56 1158.84 285.72 1157.98 285.72L1158.38 285.144C1159.46 285.144 1160.38 285.312 1161.14 285.648C1161.93 285.968 1162.54 286.456 1162.97 287.112C1163.4 287.752 1163.62 288.552 1163.62 289.512C1163.62 290.936 1163.09 292.04 1162.03 292.824C1160.99 293.608 1159.42 294 1157.3 294H1149.58ZM1151.35 292.536H1157.28C1158.75 292.536 1159.88 292.288 1160.66 291.792C1161.45 291.28 1161.84 290.472 1161.84 289.368C1161.84 288.28 1161.45 287.488 1160.66 286.992C1159.88 286.48 1158.75 286.224 1157.28 286.224H1151.16V284.76H1156.7C1158.05 284.76 1159.09 284.504 1159.82 283.992C1160.58 283.48 1160.95 282.72 1160.95 281.712C1160.95 280.688 1160.58 279.928 1159.82 279.432C1159.09 278.92 1158.05 278.664 1156.7 278.664H1151.35V292.536ZM1174.97 294.144C1173.7 294.144 1172.53 293.936 1171.46 293.52C1170.39 293.088 1169.46 292.488 1168.68 291.72C1167.89 290.952 1167.28 290.048 1166.83 289.008C1166.4 287.968 1166.18 286.832 1166.18 285.6C1166.18 284.368 1166.4 283.232 1166.83 282.192C1167.28 281.152 1167.89 280.248 1168.68 279.48C1169.48 278.712 1170.41 278.12 1171.49 277.704C1172.56 277.272 1173.73 277.056 1174.99 277.056C1176.21 277.056 1177.35 277.264 1178.42 277.68C1179.49 278.08 1180.4 278.688 1181.13 279.504L1180.01 280.632C1179.32 279.928 1178.56 279.424 1177.73 279.12C1176.89 278.8 1176 278.64 1175.04 278.64C1174.03 278.64 1173.09 278.816 1172.23 279.168C1171.37 279.504 1170.61 279.992 1169.97 280.632C1169.33 281.256 1168.83 281.992 1168.46 282.84C1168.11 283.672 1167.93 284.592 1167.93 285.6C1167.93 286.608 1168.11 287.536 1168.46 288.384C1168.83 289.216 1169.33 289.952 1169.97 290.592C1170.61 291.216 1171.37 291.704 1172.23 292.056C1173.09 292.392 1174.03 292.56 1175.04 292.56C1176 292.56 1176.89 292.4 1177.73 292.08C1178.56 291.76 1179.32 291.248 1180.01 290.544L1181.13 291.672C1180.4 292.488 1179.49 293.104 1178.42 293.52C1177.35 293.936 1176.2 294.144 1174.97 294.144ZM1184.92 294V277.2H1192.17C1194.04 277.2 1195.49 277.576 1196.51 278.328C1197.55 279.08 1198.07 280.144 1198.07 281.52C1198.07 282.432 1197.86 283.2 1197.42 283.824C1197.01 284.448 1196.43 284.92 1195.7 285.24C1194.98 285.56 1194.18 285.72 1193.32 285.72L1193.73 285.144C1194.8 285.144 1195.72 285.312 1196.49 285.648C1197.27 285.968 1197.88 286.456 1198.31 287.112C1198.74 287.752 1198.96 288.552 1198.96 289.512C1198.96 290.936 1198.43 292.04 1197.38 292.824C1196.34 293.608 1194.76 294 1192.65 294H1184.92ZM1186.7 292.536H1192.62C1194.1 292.536 1195.22 292.288 1196.01 291.792C1196.79 291.28 1197.18 290.472 1197.18 289.368C1197.18 288.28 1196.79 287.488 1196.01 286.992C1195.22 286.48 1194.1 286.224 1192.62 286.224H1186.5V284.76H1192.05C1193.39 284.76 1194.43 284.504 1195.17 283.992C1195.92 283.48 1196.3 282.72 1196.3 281.712C1196.3 280.688 1195.92 279.928 1195.17 279.432C1194.43 278.92 1193.39 278.664 1192.05 278.664H1186.7V292.536ZM1210.31 294.144C1209.05 294.144 1207.88 293.936 1206.81 293.52C1205.73 293.088 1204.81 292.488 1204.02 291.72C1203.24 290.952 1202.62 290.048 1202.17 289.008C1201.74 287.968 1201.53 286.832 1201.53 285.6C1201.53 284.368 1201.74 283.232 1202.17 282.192C1202.62 281.152 1203.24 280.248 1204.02 279.48C1204.82 278.712 1205.76 278.12 1206.83 277.704C1207.9 277.272 1209.07 277.056 1210.33 277.056C1211.55 277.056 1212.69 277.264 1213.77 277.68C1214.84 278.08 1215.74 278.688 1216.48 279.504L1215.35 280.632C1214.66 279.928 1213.9 279.424 1213.07 279.12C1212.24 278.8 1211.34 278.64 1210.38 278.64C1209.37 278.64 1208.44 278.816 1207.57 279.168C1206.71 279.504 1205.96 279.992 1205.32 280.632C1204.68 281.256 1204.17 281.992 1203.81 282.84C1203.45 283.672 1203.28 284.592 1203.28 285.6C1203.28 286.608 1203.45 287.536 1203.81 288.384C1204.17 289.216 1204.68 289.952 1205.32 290.592C1205.96 291.216 1206.71 291.704 1207.57 292.056C1208.44 292.392 1209.37 292.56 1210.38 292.56C1211.34 292.56 1212.24 292.4 1213.07 292.08C1213.9 291.76 1214.66 291.248 1215.35 290.544L1216.48 291.672C1215.74 292.488 1214.84 293.104 1213.77 293.52C1212.69 293.936 1211.54 294.144 1210.31 294.144ZM1220.26 294V277.2H1227.51C1229.38 277.2 1230.83 277.576 1231.86 278.328C1232.9 279.08 1233.42 280.144 1233.42 281.52C1233.42 282.432 1233.2 283.2 1232.77 283.824C1232.35 284.448 1231.78 284.92 1231.04 285.24C1230.32 285.56 1229.53 285.72 1228.66 285.72L1229.07 285.144C1230.14 285.144 1231.06 285.312 1231.83 285.648C1232.62 285.968 1233.22 286.456 1233.66 287.112C1234.09 287.752 1234.3 288.552 1234.3 289.512C1234.3 290.936 1233.78 292.04 1232.72 292.824C1231.68 293.608 1230.1 294 1227.99 294H1220.26ZM1222.04 292.536H1227.97C1229.44 292.536 1230.57 292.288 1231.35 291.792C1232.14 291.28 1232.53 290.472 1232.53 289.368C1232.53 288.28 1232.14 287.488 1231.35 286.992C1230.57 286.48 1229.44 286.224 1227.97 286.224H1221.85V284.76H1227.39C1228.74 284.76 1229.78 284.504 1230.51 283.992C1231.26 283.48 1231.64 282.72 1231.64 281.712C1231.64 280.688 1231.26 279.928 1230.51 279.432C1229.78 278.92 1228.74 278.664 1227.39 278.664H1222.04V292.536ZM1245.65 294.144C1244.39 294.144 1243.22 293.936 1242.15 293.52C1241.08 293.088 1240.15 292.488 1239.37 291.72C1238.58 290.952 1237.97 290.048 1237.52 289.008C1237.09 287.968 1236.87 286.832 1236.87 285.6C1236.87 284.368 1237.09 283.232 1237.52 282.192C1237.97 281.152 1238.58 280.248 1239.37 279.48C1240.17 278.712 1241.1 278.12 1242.17 277.704C1243.25 277.272 1244.41 277.056 1245.68 277.056C1246.89 277.056 1248.04 277.264 1249.11 277.68C1250.18 278.08 1251.09 278.688 1251.82 279.504L1250.69 280.632C1250.01 279.928 1249.25 279.424 1248.41 279.12C1247.58 278.8 1246.69 278.64 1245.73 278.64C1244.72 278.64 1243.78 278.816 1242.92 279.168C1242.05 279.504 1241.3 279.992 1240.66 280.632C1240.02 281.256 1239.52 281.992 1239.15 282.84C1238.8 283.672 1238.62 284.592 1238.62 285.6C1238.62 286.608 1238.8 287.536 1239.15 288.384C1239.52 289.216 1240.02 289.952 1240.66 290.592C1241.3 291.216 1242.05 291.704 1242.92 292.056C1243.78 292.392 1244.72 292.56 1245.73 292.56C1246.69 292.56 1247.58 292.4 1248.41 292.08C1249.25 291.76 1250.01 291.248 1250.69 290.544L1251.82 291.672C1251.09 292.488 1250.18 293.104 1249.11 293.52C1248.04 293.936 1246.89 294.144 1245.65 294.144Z" fill="black"/>
<path d="M1155.85 964L1157.91 947.2H1159.21L1157.14 964H1155.85ZM1146.75 959.44V958.12H1161.27V959.44H1146.75ZM1149.61 964L1151.67 947.2H1152.99L1150.9 964H1149.61ZM1147.52 953.08V951.76H1162.04V953.08H1147.52ZM1166.94 964V947.92L1167.71 948.736H1162.98V947.2H1168.67V964H1166.94ZM1175.76 954.712H1184.64V956.224H1175.76V954.712ZM1175.95 962.464H1186.05V964H1174.17V947.2H1185.69V948.736H1175.95V962.464ZM1191.67 964V947.92L1192.44 948.736H1187.71V947.2H1193.4V964H1191.67ZM1200.48 954.712H1209.36V956.224H1200.48V954.712ZM1200.68 962.464H1210.78V964H1198.9V947.2H1210.42V948.736H1200.68V962.464ZM1216.39 964V947.92L1217.16 948.736H1212.43V947.2H1218.12V964H1216.39ZM1225.21 954.712H1234.09V956.224H1225.21V954.712ZM1225.4 962.464H1235.51V964H1223.63V947.2H1235.15V948.736H1225.4V962.464Z" fill="white"/>
</svg>
