<?xml version="1.0" encoding="UTF-8"?>
<svg width="500px" height="500px" viewBox="0 0 500 500" version="1.1" xmlns="http://www.w3.org/2000/svg" xmlns:xlink="http://www.w3.org/1999/xlink">
    <!-- Generator: Sketch 54.1 (76490) - https://sketchapp.com -->
    <title>dribble</title>
    <desc>Created with Sketch.</desc>
    <g id="Page-1" stroke="none" stroke-width="1" fill="none" fill-rule="evenodd">
        <g id="dribble" fill="#FFFFFF" fill-rule="nonzero">
            <path d="M250,0 C112.34375,0 0,112.353516 0,250 C0,387.65625 112.353516,500 250,500 C387.65625,500 500,387.646484 500,250 C500,112.34375 387.646484,0 250,0 Z M419.570312,108.896484 C450.78125,146.337891 469.833984,194.238281 470.654297,246.484375 C431.533203,237.333984 388.085937,236.71875 343.837891,244.785156 C332.324219,246.884766 320.810547,249.550781 309.365234,252.753906 C305.556641,242.392578 301.513672,232.119141 297.216797,221.943359 C292.832031,211.5625 288.203125,201.357422 283.359375,191.298828 C336.083984,171.162109 393.212891,141.181641 419.570312,108.896484 Z M250,29.296875 C307.441406,29.296875 359.814453,51.3574219 399.121094,87.4414063 C383.789062,108.349609 340.097656,138.789063 270,165.039063 C245.527344,119.472656 216.181641,77.5976563 182.275391,39.9414063 C203.623047,33.0371094 226.386719,29.296875 250,29.296875 Z M153.271484,51.6601562 C187.851562,88.7011719 217.597656,130.068359 242.099609,174.755859 C169.169922,198.359375 95.3320312,207.988281 34.6191406,201.767578 C49.4042969,135.703125 93.8867187,80.7324219 153.271484,51.6601562 Z M29.296875,250 C29.296875,243.515625 29.5996094,237.099609 30.1464844,230.761719 C43.5449219,232.177734 57.5195313,232.890625 71.9628906,232.890625 C128.925781,232.890625 192.919922,221.933594 255.761719,201.123047 C265.351563,220.751953 273.974609,240.947266 281.582031,261.640625 C257.080078,270.449219 233.232422,281.650391 210.839844,294.980469 C155.9375,327.666016 115.771484,369.716797 99.1113281,410.908203 C56.171875,370.615234 29.296875,313.388672 29.296875,250 Z M250,470.703125 C202.841797,470.703125 159.091797,455.830078 123.183594,430.527344 C134.316406,392.910156 171.972656,352.216797 225.830078,320.15625 C244.804688,308.847656 266.992188,298.193359 291.142578,289.53125 C308.261719,343.339844 318.75,400.136719 322.080078,458.603516 C299.482422,466.435547 275.234375,470.703125 250,470.703125 Z M350.654297,446.386719 C346.591797,389.433594 335.986328,333.984375 318.964844,280.722656 C366.425781,267.675781 419.140625,263.300781 469.130859,276.269531 C460.283203,350.498047 414.462891,413.544922 350.654297,446.386719 Z" id="Shape"></path>
        </g>
    </g>
</svg>