<?xml version="1.0" encoding="UTF-8"?>
<svg width="512px" height="512px" viewBox="0 0 512 512" version="1.1" xmlns="http://www.w3.org/2000/svg" xmlns:xlink="http://www.w3.org/1999/xlink">
    <!-- Generator: Sketch 54.1 (76490) - https://sketchapp.com -->
    <title>Shape</title>
    <desc>Created with Sketch.</desc>
    <g id="Page-1" stroke="none" stroke-width="1" fill="none" fill-rule="evenodd">
        <g id="github" fill="#FFFFFF" fill-rule="nonzero">
            <path d="M256,0 C115.300781,0 0,116.300781 0,257 C0,396.882812 114.25,512 256,512 C397.574219,512 512,397.054688 512,257 C512,116.300781 396.699219,0 256,0 Z M301,477.5 C286.601562,480.5 271.300781,482 256,482 C240.699219,482 225.398438,480.5 211,477.5 L211,407.300781 C211,390.5 215.5,384.5 221.5,376.398438 C224.554688,372.90625 226.398438,369.773438 240.097656,349.101562 L217,345.5 C157.597656,336.800781 134.199219,305.898438 124.898438,281.898438 C112.898438,249.800781 119.199219,209.597656 140.800781,184.101562 C144.101562,180.199219 146.800781,173.597656 144.402344,166.699219 C139.898438,152.898438 140.5,131 143.5,122.597656 C159.40625,124.871094 175.761719,136.265625 189.402344,144.5 C195.6875,148.167969 198.984375,147.199219 202,147.5 C212.960938,145.21875 230.058594,139.699219 256.300781,139.699219 C272.5,139.699219 289.601562,142.097656 306.402344,146.898438 C309.40625,146.828125 314.234375,149.382812 322.601562,144.5 C336.859375,135.8125 352.660156,124.808594 368.5,122.597656 C371.5,131 372.101562,152.898438 367.601562,166.699219 C365.199219,173.597656 367.898438,180.199219 371.203125,184.101562 C392.800781,209.601562 399.101562,249.800781 387.101562,281.898438 C377.800781,305.898438 354.402344,336.800781 295,345.5 L271.902344,349.101562 C286.0625,370.46875 287.554688,373.03125 290.503906,376.398438 C296.5,384.5 301,390.5 301,407.300781 L301,477.5 Z M331,468.800781 L331,407.300781 C331,390.199219 327.398438,378.800781 322.597656,370.398438 C368.199219,358.101562 400.601562,331.097656 415,292.398438 C430.300781,251.601562 423.402344,203 397.898438,169.398438 C402.402344,149.300781 402.402344,117.199219 391.601562,102.199219 C386.800781,95.601562 380.199219,92 371.800781,92 C371.5,92 371.5,92 371.5,92 C348.238281,93.257812 329.929688,104.972656 310.300781,116.898438 C292.300781,112.097656 274,109.699219 255.699219,109.699219 C237.101562,109.699219 218.5,112.398438 202.003906,116.898438 C181.339844,104.4375 163.207031,93.226562 139.300781,92 C131.800781,92 125.199219,95.601562 120.398438,102.199219 C109.601562,117.199219 109.601562,149.300781 114.101562,169.398438 C88.597656,203 81.699219,251.898438 97,292.398438 C111.398438,331.097656 143.800781,358.101562 189.402344,370.398438 C185.679688,376.910156 182.734375,385.3125 181.574219,396.683594 C172.363281,399.859375 164.375,400.894531 156.945312,398.710938 C149.109375,396.394531 143.003906,391.164062 137.699219,382.242188 C125.785156,362.226562 105.492188,345.886719 82.386719,348.011719 L85.023438,377.894531 C95.722656,376.914062 106.371094,388.234375 111.902344,397.566406 C121.027344,412.933594 133.320312,423.011719 148.449219,427.480469 C159.679688,430.789062 169.945312,430.710938 181,428.351562 L181,468.800781 C93.699219,438.199219 30,354.800781 30,257 C30,132.800781 131.800781,30 256,30 C380.199219,30 482,132.800781 482,257 C482,354.800781 418.300781,438.199219 331,468.800781 Z" id="Shape"></path>
        </g>
    </g>
</svg>