<?xml version="1.0" encoding="UTF-8"?>
<svg width="512px" height="414px" viewBox="0 0 512 414" version="1.1" xmlns="http://www.w3.org/2000/svg" xmlns:xlink="http://www.w3.org/1999/xlink">
    <!-- Generator: Sketch 54.1 (76490) - https://sketchapp.com -->
    <title>medium</title>
    <desc>Created with Sketch.</desc>
    <g id="Page-1" stroke="none" stroke-width="1" fill="none" fill-rule="evenodd">
        <g id="medium" fill="#FFFFFF" fill-rule="nonzero">
            <path d="M7.22146245,31.6788651 L62.6212378,70.9726208 L62.6212378,320.975691 L4.76825715,382.538976 C-5.38587958,393.374666 1.76041413,412.07831 16.0103371,412.07831 L141.209137,412.07831 C155.437727,412.07831 162.626685,393.397671 152.451216,382.538976 L94.5982356,320.975691 L94.5982356,138.954499 C153.923139,275.05629 211.754788,407.500172 210.368193,404.486425 C216.213222,417.2776 234.708257,417.622686 239.721328,402.760997 L239.74266,402.714985 C239.74266,402.714985 239.763993,402.691979 239.763993,402.668973 C253.629935,361.419732 283.36705,272.96277 281.468483,278.576164 C282.535094,275.37837 333.113787,119.698718 333.90308,117.283118 L333.90308,342.11794 L296.763684,382.723021 C286.801538,393.627728 293.990496,412.101315 308.15509,412.101315 L495.985287,412.101315 C510.107217,412.101315 517.317508,393.719752 507.419357,382.792038 L471.730553,343.383254 L470.301294,68.8560954 L507.227367,29.5623396 C517.381504,18.7266494 510.23521,0.0230057114 495.985287,0.0230057114 C481.010068,0.0230057114 550.275788,0 349.432935,0.115028563 C328.996669,0.759188489 335.908308,20.5671063 264.402707,224.926844 L176.727283,10.3065588 C174.167417,4.04900528 168.407717,0 162.072048,0 L16.0103371,0 C0.181829845,0.0230057114 -6.02584618,22.3155404 7.22146245,31.6788651 L7.22146245,31.6788651 Z M54.984303,377.592747 L78.5990706,352.447505 L102.213838,377.592747 L54.984303,377.592747 Z M365.90141,34.5315733 L457.011321,34.5315733 C446.793188,46.8396292 438.217636,50.4285203 438.2603,61.7933418 L439.774888,350.53803 C439.817552,361.48875 448.115785,365.330703 457.992604,377.569742 L346.425092,377.569742 C357.453851,364.065389 365.922742,360.361469 365.922742,349.180693 L365.922742,34.5315733 L365.90141,34.5315733 Z M151.640592,34.5315733 L248.787522,272.295604 L222.63422,351.596293 C90.8864293,49.8533774 95.5155211,45.1142008 69.4475482,34.5315733 L151.640592,34.5315733 Z" id="Shape"></path>
        </g>
    </g>
</svg>