<svg width="541" height="377" viewBox="0 0 541 377" fill="none" xmlns="http://www.w3.org/2000/svg">
<rect y="188" width="541" height="189" fill="white"/>
<path d="M199.615 102.769C199.168 101.187 198.885 99.8836 198.409 98.651C198.225 98.1665 197.658 97.6179 197.168 97.5039C195.282 97.0692 193.779 97.9955 193.516 99.9335C193.275 101.715 193.304 103.553 193.417 105.356C193.467 106.218 193.389 106.659 192.545 106.987C188.183 108.662 183.695 108.875 179.142 108.149C177.468 107.885 176.39 106.759 176.135 105.128C175.951 103.966 175.965 102.677 176.27 101.544C177.05 98.6011 178.844 96.371 181.383 94.6752C183.241 93.4355 183.78 91.07 182.723 89.7376C181.652 88.3839 179.511 88.4052 177.716 89.8302C176.617 90.7066 175.596 91.6685 174.49 92.5306C168.831 96.9125 163.15 101.28 157.484 105.648C155.165 107.436 152.549 108.583 149.705 109.16C149.131 109.274 148.485 109.046 147.875 108.975C148.031 108.391 148.074 107.735 148.365 107.229C149.102 105.947 150.067 104.793 150.719 103.475C152.102 100.682 150.698 97.7532 147.648 97.1975C146.393 96.9695 145.003 97.0977 143.741 97.3899C139.571 98.3517 135.891 100.532 132.068 102.349C128.962 103.831 125.821 105.234 122.665 106.595C122.098 106.838 121.374 106.724 120.722 106.773C120.835 106.104 120.814 105.363 121.098 104.771C121.828 103.254 122.211 101.715 122.013 100.033C121.686 97.2046 119.786 95.5872 116.971 95.801C116.219 95.858 115.453 95.9577 114.737 96.1715C110.106 97.5181 105.731 99.4419 101.589 101.957C98.944 103.56 96.1074 104.835 93.3204 106.189C92.7035 106.488 91.9376 106.496 91.2426 106.638C91.1788 106.517 91.115 106.389 91.0511 106.268C91.4554 105.797 91.8099 105.284 92.2638 104.864C94.2352 103.026 96.2563 101.252 98.1994 99.3849C100.079 97.5894 101.632 95.5302 102.653 93.1077C103.412 91.3051 102.979 89.645 101.419 88.7259C99.7737 87.7569 98.0008 87.2866 96.0932 87.935C94.9515 88.3269 93.7885 88.6831 92.6822 89.1676C84.8319 92.6375 78.719 98.4301 72.7267 104.372C72.3509 104.743 71.9892 105.391 72.0317 105.876C72.0956 106.567 72.4076 107.351 72.8756 107.842C73.0813 108.063 73.9961 107.807 74.4641 107.543C75.2158 107.115 75.8682 106.524 76.5419 105.968C79.8253 103.282 83.0732 100.539 86.4062 97.91C88.64 96.143 91.0653 94.6467 93.8168 93.7846C94.6253 93.5281 95.6323 93.1719 96.2138 94.0696C96.7953 94.9674 96.1074 95.7796 95.4833 96.3781C94.0934 97.7176 92.6964 99.0714 91.1717 100.254C87.782 102.876 84.2859 105.341 80.9032 107.97C79.9104 108.74 78.9885 109.723 78.329 110.792C77.4567 112.196 78.2652 113.649 79.8962 113.742C81.3996 113.827 82.9881 113.955 84.4064 113.578C87.3919 112.787 90.3633 111.846 93.207 110.649C98.015 108.626 102.674 106.232 107.496 104.237C109.482 103.418 111.709 103.104 113.857 102.798C115.113 102.62 115.602 103.446 114.907 104.515C114.084 105.762 113.07 106.916 111.992 107.949C110.886 109.011 110.028 110.151 109.716 111.661C109.454 112.922 109.936 113.713 111.212 113.813C112.219 113.891 113.283 113.891 114.255 113.649C121.772 111.725 129.168 109.445 136.252 106.225C138.21 105.334 140.245 104.6 142.266 103.859C142.585 103.745 143.124 103.866 143.379 104.087C143.535 104.223 143.457 104.843 143.287 105.106C142.514 106.268 141.748 107.45 140.834 108.498C139.444 110.087 139.734 112.281 141.656 113.143C143.401 113.927 145.266 114.226 147.195 113.955C154.726 112.887 160.619 108.491 166.576 104.251C167.15 103.845 167.561 103.204 168.058 102.684C168.299 102.427 168.561 102.192 168.817 101.95C168.98 102.52 168.923 102.954 168.838 103.382C168.377 105.783 168.547 108.056 169.923 110.179C171.901 113.229 174.915 114.226 178.248 114.134C181.064 114.055 183.9 113.628 186.659 113.029C189.517 112.409 192.289 111.398 195.225 110.514C195.24 110.543 195.431 110.778 195.559 111.041C196.679 113.336 198.509 114.504 201.047 114.639C203.31 114.761 205.501 114.483 207.614 113.663C210.217 112.652 211.437 110.407 212.387 108.006C213.67 104.771 215.734 102.128 218.407 99.9976C219.968 98.7507 221.797 97.8459 223.393 96.6346C224.925 95.4804 226.435 94.2477 227.733 92.8512C229.023 91.4619 229.229 89.6592 228.733 87.8139C228.35 86.396 227.683 85.8117 226.3 85.6621C225.201 85.541 224.329 86.054 223.79 87.3792C222.648 90.1865 220.691 92.2599 218.103 93.6777C213.294 96.3211 208.451 98.9004 203.572 101.415C202.324 102.021 200.941 102.313 199.615 102.769ZM240.526 103.98C240.412 103.866 240.306 103.745 240.193 103.631C241.136 102.57 242.008 101.43 243.043 100.461C247.015 96.7629 251.092 93.179 255.028 89.4526C260.07 84.6789 265.055 79.8481 269.97 74.9461C271.076 73.8489 271.97 72.4452 272.629 71.0274C272.998 70.2507 273.005 68.9825 272.615 68.2272C271.381 65.8119 268.417 65.6337 266.63 67.6644C262.921 71.8824 259.311 76.193 255.418 80.2329C251.213 84.6076 246.816 88.7971 242.363 92.9225C236.796 98.0739 230.023 101.244 223.194 104.294C222.166 104.757 221.202 105.377 220.23 105.961C219.684 106.289 219.648 106.766 219.925 107.336C220.514 108.54 221.733 108.989 223.471 108.341C225.456 107.607 227.378 106.709 229.314 105.854C230.194 105.47 231.045 105.014 231.91 104.593C231.846 105.071 231.661 105.391 231.427 105.655C230.321 106.909 229.215 108.156 228.087 109.388C227.009 110.571 226.719 111.711 227.258 112.794C227.804 113.884 228.875 114.419 230.484 113.963C232.399 113.421 234.321 112.78 236.079 111.868C241.59 109.004 247.015 105.983 252.489 103.04C253 102.762 253.595 102.641 254.149 102.449C254.248 102.584 254.34 102.719 254.439 102.855C253.986 103.467 253.553 104.102 253.064 104.686C252.198 105.733 251.128 106.652 250.44 107.807C249.156 109.951 250.156 112.573 252.546 113.172C254.234 113.592 256.056 113.756 257.794 113.635C260.822 113.428 263.743 112.602 266.545 111.376C266.835 111.248 267.466 111.355 267.622 111.583C268.424 112.723 269.537 113.279 270.842 113.535C274.331 114.226 277.785 113.841 280.969 112.424C286.075 110.144 291.039 107.536 296.066 105.063C296.393 104.907 296.698 104.714 297.017 104.543C296.818 105.299 296.449 105.904 296.13 106.531C295.783 107.208 295.428 107.885 295.166 108.59C294.372 110.728 295.244 112.73 297.378 113.464C298.435 113.827 299.591 114.055 300.704 114.084C307.541 114.24 313.958 112.495 320.043 109.481C321.036 108.989 321.936 108.22 322.752 107.45C323.73 106.524 323.709 106.146 322.752 105.213C322.475 104.942 321.844 104.778 321.49 104.892C318.766 105.797 316.107 106.916 313.356 107.707C310.895 108.412 308.363 108.961 305.817 109.246C303.683 109.488 302.413 107.151 303.491 105.234C303.839 104.615 304.335 104.066 304.832 103.546C305.718 102.612 306.69 101.75 307.569 100.803C309.512 98.7009 309.888 96.143 309.406 93.4569C309.101 91.7255 307.796 91.3407 306.491 92.4879C305.959 92.951 305.477 93.5352 305.144 94.1622C304.293 95.7796 303.03 96.9196 301.449 97.7461C296.988 100.076 292.535 102.427 288.06 104.729C286.209 105.683 284.351 106.645 282.422 107.386C281.181 107.864 279.791 108.077 278.451 108.163C277.175 108.241 276.6 107.229 277.21 106.082C277.572 105.398 278.111 104.743 278.721 104.265C281.132 102.37 283.593 100.532 286.06 98.708C288.209 97.1191 289.741 95.1384 290.379 92.4879C290.741 90.9845 290.025 89.9514 288.947 89.1534C287.904 88.3767 286.699 88.1559 285.571 88.9895C284.444 89.816 283.288 90.6496 282.323 91.64C278.012 96.0717 273.757 100.56 269.48 105.035C269.296 105.227 269.119 105.448 268.899 105.569C265.474 107.358 262.034 109.146 258.092 109.481C257.574 109.524 256.723 109.388 256.581 109.082C256.39 108.662 256.609 107.928 256.865 107.443C257.645 105.968 258.652 104.607 259.347 103.097C260.134 101.387 260.432 99.4846 259.099 97.9242C257.794 96.3995 255.957 96.6631 254.227 97.0692C250.44 97.9599 247.242 100.119 243.916 101.993C242.788 102.648 241.66 103.318 240.526 103.98ZM191.68 70.0512C190.509 70.0726 187.957 72.3027 187.85 73.4071C187.836 73.5425 187.857 73.7277 187.942 73.8275C188.737 74.7894 189.481 75.8011 190.382 76.649C190.722 76.9696 191.481 77.0907 191.956 76.9625C192.885 76.7131 193.8 76.307 194.637 75.8225C195.417 75.3736 195.374 74.6611 194.871 73.9486C194.41 73.2931 194.034 72.5379 193.779 71.7755C193.445 70.7637 192.658 70.0299 191.68 70.0512Z" fill="white"/>
<path d="M199.615 102.769C200.941 102.313 202.324 102.021 203.544 101.394C208.416 98.879 213.266 96.2997 218.074 93.6564C220.663 92.2314 222.613 90.158 223.762 87.3579C224.301 86.0326 225.173 85.5196 226.272 85.6407C227.655 85.7904 228.321 86.3746 228.704 87.7925C229.201 89.6379 228.988 91.4405 227.704 92.8299C226.407 94.2335 224.896 95.459 223.364 96.6132C221.762 97.8174 219.939 98.7294 218.379 99.9762C215.706 102.107 213.642 104.75 212.358 107.985C211.408 110.386 210.188 112.63 207.586 113.642C205.473 114.468 203.281 114.746 201.019 114.618C198.48 114.483 196.651 113.307 195.53 111.02C195.403 110.756 195.211 110.521 195.197 110.493C192.261 111.369 189.488 112.388 186.63 113.008C183.872 113.606 181.035 114.027 178.22 114.112C174.887 114.212 171.873 113.207 169.895 110.158C168.519 108.042 168.349 105.762 168.81 103.361C168.895 102.933 168.958 102.498 168.788 101.928C168.533 102.171 168.278 102.406 168.029 102.662C167.533 103.182 167.122 103.824 166.547 104.23C160.583 108.462 154.697 112.858 147.166 113.934C145.237 114.205 143.379 113.906 141.628 113.122C139.706 112.26 139.415 110.065 140.805 108.476C141.72 107.429 142.486 106.246 143.259 105.085C143.436 104.821 143.507 104.201 143.351 104.066C143.096 103.845 142.557 103.724 142.238 103.838C140.217 104.579 138.181 105.313 136.224 106.203C129.14 109.431 121.743 111.711 114.226 113.628C113.262 113.877 112.191 113.87 111.184 113.792C109.908 113.692 109.425 112.901 109.688 111.64C110 110.129 110.851 108.982 111.964 107.928C113.049 106.895 114.063 105.747 114.879 104.493C115.581 103.432 115.084 102.598 113.829 102.776C111.68 103.083 109.454 103.396 107.468 104.216C102.646 106.211 97.9938 108.605 93.1786 110.628C90.335 111.825 87.3636 112.766 84.3781 113.556C82.9598 113.934 81.3713 113.806 79.8679 113.72C78.2368 113.628 77.4355 112.174 78.3007 110.771C78.9602 109.702 79.8821 108.719 80.8749 107.949C84.2575 105.327 87.7607 102.855 91.1434 100.233C92.6681 99.0571 94.0651 97.7034 95.455 96.3567C96.072 95.7582 96.7599 94.946 96.1854 94.0482C95.6039 93.1505 94.604 93.5139 93.7885 93.7632C91.0441 94.6254 88.6188 96.1216 86.3779 97.8886C83.0449 100.518 79.8041 103.261 76.5136 105.947C75.8399 106.496 75.1804 107.094 74.4358 107.522C73.9678 107.785 73.0601 108.042 72.8473 107.821C72.3793 107.329 72.0672 106.545 72.0034 105.854C71.9609 105.377 72.3225 104.729 72.6984 104.351C78.6907 98.4087 84.8036 92.6161 92.6539 89.1462C93.7602 88.6617 94.9232 88.2984 96.0649 87.9136C97.9654 87.2652 99.7454 87.7355 101.391 88.7045C102.944 89.6236 103.383 91.2837 102.625 93.0864C101.603 95.5017 100.05 97.5609 98.1711 99.3635C96.228 101.223 94.1998 103.004 92.2355 104.843C91.7887 105.263 91.427 105.776 91.0228 106.246C91.0867 106.367 91.1505 106.496 91.2143 106.617C91.9093 106.474 92.6681 106.467 93.2921 106.168C96.0791 104.814 98.9157 103.539 101.561 101.936C105.709 99.4205 110.078 97.4967 114.708 96.1501C115.432 95.9435 116.191 95.8366 116.942 95.7796C119.758 95.5659 121.658 97.1904 121.984 100.012C122.176 101.693 121.8 103.239 121.07 104.75C120.786 105.341 120.807 106.075 120.694 106.752C121.346 106.702 122.069 106.816 122.637 106.574C125.792 105.213 128.934 103.802 132.04 102.327C135.862 100.503 139.543 98.3304 143.713 97.3685C144.968 97.0764 146.365 96.9481 147.62 97.1761C150.669 97.7319 152.074 100.667 150.691 103.453C150.038 104.771 149.067 105.926 148.336 107.208C148.046 107.714 148.003 108.369 147.847 108.954C148.457 109.025 149.102 109.26 149.677 109.139C152.527 108.562 155.137 107.415 157.456 105.626C163.129 101.259 168.802 96.8911 174.461 92.5092C175.568 91.6542 176.596 90.6852 177.688 89.8089C179.482 88.3839 181.624 88.3625 182.695 89.7162C183.751 91.0486 183.205 93.4141 181.354 94.6539C178.816 96.3496 177.014 98.5797 176.241 101.522C175.944 102.655 175.929 103.938 176.107 105.106C176.362 106.738 177.44 107.856 179.113 108.127C183.666 108.854 188.155 108.64 192.516 106.966C193.36 106.645 193.445 106.196 193.389 105.334C193.275 103.532 193.247 101.693 193.488 99.9121C193.75 97.9812 195.254 97.0479 197.14 97.4825C197.629 97.5965 198.19 98.1451 198.381 98.6296C198.885 99.8836 199.168 101.187 199.615 102.769ZM211.898 100.845C211.727 100.831 211.671 100.817 211.649 100.831C208.38 103.325 204.912 105.455 200.977 106.731C200.799 106.788 200.622 107.436 200.728 107.678C201.211 108.761 202.232 109.11 203.764 108.704C207.699 107.657 210.018 104.786 211.819 101.351C211.876 101.23 211.862 101.066 211.898 100.845Z" fill="white"/>
<path d="M240.526 103.98C241.661 103.318 242.788 102.648 243.93 102.007C247.256 100.133 250.454 97.9741 254.241 97.0835C255.971 96.6774 257.815 96.4137 259.113 97.9385C260.446 99.4989 260.148 101.401 259.361 103.111C258.666 104.622 257.666 105.983 256.879 107.457C256.624 107.942 256.397 108.676 256.595 109.096C256.737 109.403 257.588 109.538 258.106 109.495C262.049 109.16 265.481 107.372 268.913 105.584C269.14 105.462 269.317 105.242 269.495 105.049C273.771 100.582 278.026 96.086 282.337 91.6542C283.309 90.6567 284.465 89.8302 285.585 89.0037C286.72 88.1701 287.925 88.391 288.961 89.1676C290.039 89.9656 290.748 90.9987 290.393 92.5021C289.762 95.1526 288.223 97.1334 286.075 98.7222C283.607 100.546 281.146 102.384 278.735 104.28C278.125 104.757 277.593 105.413 277.224 106.097C276.615 107.244 277.189 108.255 278.465 108.177C279.806 108.092 281.189 107.878 282.437 107.4C284.373 106.659 286.231 105.69 288.074 104.743C292.549 102.441 297.003 100.09 301.463 97.7604C303.052 96.9339 304.307 95.7939 305.158 94.1765C305.484 93.5495 305.973 92.9724 306.505 92.5021C307.817 91.355 309.115 91.7397 309.42 93.4711C309.895 96.1572 309.526 98.7151 307.583 100.817C306.711 101.765 305.739 102.62 304.846 103.56C304.349 104.08 303.86 104.629 303.506 105.249C302.421 107.165 303.69 109.502 305.832 109.26C308.37 108.968 310.909 108.426 313.37 107.721C316.121 106.93 318.781 105.812 321.504 104.907C321.858 104.786 322.489 104.957 322.766 105.227C323.723 106.154 323.745 106.538 322.766 107.465C321.951 108.241 321.05 109.004 320.057 109.495C313.965 112.509 307.555 114.255 300.719 114.098C299.605 114.069 298.449 113.841 297.393 113.478C295.258 112.744 294.386 110.742 295.18 108.605C295.442 107.892 295.797 107.215 296.145 106.545C296.464 105.918 296.832 105.32 297.031 104.558C296.719 104.729 296.407 104.921 296.081 105.078C291.06 107.55 286.096 110.158 280.983 112.438C277.806 113.856 274.345 114.24 270.856 113.549C269.558 113.293 268.445 112.737 267.637 111.597C267.481 111.376 266.85 111.269 266.559 111.39C263.758 112.623 260.836 113.442 257.808 113.649C256.07 113.77 254.248 113.606 252.56 113.186C250.17 112.587 249.17 109.958 250.454 107.821C251.142 106.674 252.206 105.747 253.078 104.7C253.567 104.116 253.993 103.482 254.454 102.869C254.354 102.734 254.262 102.598 254.163 102.463C253.61 102.655 253.014 102.776 252.503 103.054C247.029 105.99 241.604 109.011 236.094 111.882C234.335 112.794 232.406 113.442 230.498 113.977C228.889 114.433 227.811 113.898 227.272 112.808C226.733 111.725 227.017 110.585 228.102 109.403C229.229 108.17 230.335 106.923 231.442 105.669C231.676 105.398 231.86 105.085 231.924 104.607C231.059 105.028 230.208 105.484 229.328 105.869C227.392 106.724 225.471 107.621 223.485 108.355C221.74 109.004 220.521 108.555 219.939 107.351C219.656 106.773 219.698 106.303 220.244 105.975C221.216 105.391 222.173 104.771 223.208 104.308C230.03 101.252 236.81 98.0881 242.377 92.9367C246.83 88.8114 251.227 84.6219 255.432 80.2471C259.318 76.2072 262.935 71.8966 266.644 67.6786C268.431 65.648 271.395 65.8261 272.629 68.2415C273.019 69.0039 273.005 70.265 272.643 71.0416C271.977 72.4595 271.083 73.8631 269.984 74.9604C265.07 79.8624 260.084 84.6931 255.042 89.4669C251.106 93.1932 247.029 96.7771 243.058 100.475C242.022 101.437 241.15 102.584 240.207 103.646C240.306 103.745 240.412 103.859 240.526 103.98Z" fill="white"/>
<path d="M191.68 70.0512C192.658 70.037 193.438 70.7709 193.779 71.7826C194.034 72.545 194.41 73.3002 194.871 73.9557C195.374 74.6682 195.417 75.3807 194.637 75.8296C193.8 76.3141 192.885 76.7202 191.956 76.9696C191.481 77.0979 190.722 76.9767 190.382 76.6561C189.481 75.8082 188.737 74.7965 187.942 73.8346C187.857 73.7349 187.836 73.5496 187.85 73.4142C187.964 72.3027 190.517 70.0726 191.68 70.0512Z" fill="white"/>
<path d="M211.898 100.845C211.862 101.066 211.876 101.23 211.812 101.351C210.011 104.778 207.692 107.65 203.756 108.704C202.232 109.11 201.204 108.761 200.721 107.678C200.615 107.436 200.792 106.788 200.97 106.731C204.912 105.448 208.38 103.325 211.642 100.831C211.671 100.817 211.72 100.838 211.898 100.845Z" fill="white"/>
<path d="M199.615 291.769C199.168 290.187 198.885 288.884 198.409 287.651C198.225 287.166 197.658 286.618 197.168 286.504C195.282 286.069 193.779 286.995 193.516 288.933C193.275 290.715 193.304 292.553 193.417 294.356C193.467 295.218 193.389 295.659 192.545 295.987C188.183 297.662 183.695 297.875 179.142 297.149C177.468 296.885 176.39 295.759 176.135 294.128C175.951 292.966 175.965 291.677 176.27 290.544C177.05 287.601 178.844 285.371 181.383 283.675C183.241 282.435 183.78 280.07 182.723 278.738C181.652 277.384 179.511 277.405 177.716 278.83C176.617 279.707 175.596 280.668 174.49 281.531C168.831 285.912 163.15 290.28 157.484 294.648C155.165 296.436 152.549 297.583 149.705 298.16C149.131 298.274 148.485 298.046 147.875 297.975C148.031 297.391 148.074 296.735 148.365 296.229C149.102 294.947 150.067 293.793 150.719 292.475C152.102 289.682 150.698 286.753 147.648 286.197C146.393 285.969 145.003 286.098 143.741 286.39C139.571 287.352 135.891 289.532 132.068 291.349C128.962 292.831 125.821 294.234 122.665 295.595C122.098 295.838 121.374 295.724 120.722 295.773C120.835 295.104 120.814 294.363 121.098 293.771C121.828 292.254 122.211 290.715 122.013 289.033C121.686 286.205 119.786 284.587 116.971 284.801C116.219 284.858 115.453 284.958 114.737 285.171C110.106 286.518 105.731 288.442 101.589 290.957C98.944 292.56 96.1074 293.835 93.3204 295.189C92.7035 295.488 91.9376 295.496 91.2426 295.638C91.1788 295.517 91.115 295.389 91.0511 295.268C91.4554 294.797 91.8099 294.284 92.2638 293.864C94.2352 292.026 96.2563 290.252 98.1994 288.385C100.079 286.589 101.632 284.53 102.653 282.108C103.412 280.305 102.979 278.645 101.419 277.726C99.7737 276.757 98.0008 276.287 96.0932 276.935C94.9515 277.327 93.7885 277.683 92.6822 278.168C84.8319 281.637 78.719 287.43 72.7267 293.372C72.3509 293.743 71.9892 294.391 72.0317 294.876C72.0956 295.567 72.4076 296.351 72.8756 296.842C73.0813 297.063 73.9961 296.807 74.4641 296.543C75.2158 296.115 75.8682 295.524 76.5419 294.968C79.8253 292.282 83.0732 289.539 86.4062 286.91C88.64 285.143 91.0653 283.647 93.8168 282.785C94.6253 282.528 95.6323 282.172 96.2138 283.07C96.7953 283.967 96.1074 284.78 95.4833 285.378C94.0934 286.718 92.6964 288.071 91.1717 289.254C87.782 291.876 84.2859 294.341 80.9032 296.97C79.9104 297.74 78.9885 298.723 78.329 299.792C77.4567 301.196 78.2652 302.649 79.8962 302.742C81.3996 302.827 82.9881 302.955 84.4064 302.578C87.3919 301.787 90.3633 300.846 93.207 299.649C98.015 297.626 102.674 295.232 107.496 293.237C109.482 292.418 111.709 292.104 113.857 291.798C115.113 291.62 115.602 292.446 114.907 293.515C114.084 294.762 113.07 295.916 111.992 296.949C110.886 298.011 110.028 299.151 109.716 300.661C109.454 301.922 109.936 302.713 111.212 302.813C112.219 302.891 113.283 302.891 114.255 302.649C121.772 300.725 129.168 298.445 136.252 295.225C138.21 294.334 140.245 293.6 142.266 292.859C142.585 292.745 143.124 292.866 143.379 293.087C143.535 293.223 143.457 293.843 143.287 294.106C142.514 295.268 141.748 296.45 140.834 297.498C139.444 299.087 139.734 301.281 141.656 302.143C143.401 302.927 145.266 303.226 147.195 302.955C154.726 301.887 160.619 297.491 166.576 293.251C167.15 292.845 167.561 292.204 168.058 291.684C168.299 291.427 168.561 291.192 168.817 290.95C168.98 291.52 168.923 291.954 168.838 292.382C168.377 294.783 168.547 297.056 169.923 299.179C171.901 302.229 174.915 303.226 178.248 303.134C181.064 303.055 183.9 302.628 186.659 302.029C189.517 301.409 192.289 300.398 195.225 299.514C195.24 299.543 195.431 299.778 195.559 300.041C196.679 302.336 198.509 303.504 201.047 303.639C203.31 303.761 205.501 303.483 207.614 302.663C210.217 301.652 211.437 299.407 212.387 297.006C213.67 293.771 215.734 291.128 218.407 288.998C219.968 287.751 221.797 286.846 223.393 285.635C224.925 284.48 226.435 283.248 227.733 281.851C229.023 280.462 229.229 278.659 228.733 276.814C228.35 275.396 227.683 274.812 226.3 274.662C225.201 274.541 224.329 275.054 223.79 276.379C222.648 279.186 220.691 281.26 218.103 282.678C213.294 285.321 208.451 287.9 203.572 290.415C202.324 291.021 200.941 291.313 199.615 291.769ZM240.526 292.98C240.412 292.866 240.306 292.745 240.193 292.631C241.136 291.57 242.008 290.43 243.043 289.461C247.015 285.763 251.092 282.179 255.028 278.453C260.07 273.679 265.055 268.848 269.97 263.946C271.076 262.849 271.97 261.445 272.629 260.027C272.998 259.251 273.005 257.982 272.615 257.227C271.381 254.812 268.417 254.634 266.63 256.664C262.921 260.882 259.311 265.193 255.418 269.233C251.213 273.608 246.816 277.797 242.363 281.922C236.796 287.074 230.023 290.244 223.194 293.294C222.166 293.757 221.202 294.377 220.23 294.961C219.684 295.289 219.648 295.766 219.925 296.336C220.514 297.54 221.733 297.989 223.471 297.341C225.456 296.607 227.378 295.709 229.314 294.854C230.194 294.47 231.045 294.014 231.91 293.593C231.846 294.071 231.661 294.391 231.427 294.655C230.321 295.909 229.215 297.156 228.087 298.388C227.009 299.571 226.719 300.711 227.258 301.794C227.804 302.884 228.875 303.419 230.484 302.963C232.399 302.421 234.321 301.78 236.079 300.868C241.59 298.004 247.015 294.983 252.489 292.04C253 291.762 253.595 291.641 254.149 291.449C254.248 291.584 254.34 291.719 254.439 291.855C253.986 292.467 253.553 293.102 253.064 293.686C252.198 294.733 251.128 295.652 250.44 296.807C249.156 298.951 250.156 301.573 252.546 302.172C254.234 302.592 256.056 302.756 257.794 302.635C260.822 302.428 263.743 301.602 266.545 300.376C266.835 300.248 267.466 300.355 267.622 300.583C268.424 301.723 269.537 302.279 270.842 302.535C274.331 303.226 277.785 302.841 280.969 301.424C286.075 299.144 291.039 296.536 296.066 294.063C296.393 293.907 296.698 293.714 297.017 293.543C296.818 294.299 296.449 294.904 296.13 295.531C295.783 296.208 295.428 296.885 295.166 297.59C294.372 299.728 295.244 301.73 297.378 302.464C298.435 302.827 299.591 303.055 300.704 303.084C307.541 303.24 313.958 301.495 320.043 298.481C321.036 297.989 321.936 297.22 322.752 296.45C323.73 295.524 323.709 295.146 322.752 294.213C322.475 293.942 321.844 293.778 321.49 293.892C318.766 294.797 316.107 295.916 313.356 296.707C310.895 297.412 308.363 297.961 305.817 298.246C303.683 298.488 302.413 296.151 303.491 294.234C303.839 293.615 304.335 293.066 304.832 292.546C305.718 291.612 306.69 290.75 307.569 289.803C309.512 287.701 309.888 285.143 309.406 282.457C309.101 280.725 307.796 280.341 306.491 281.488C305.959 281.951 305.477 282.535 305.144 283.162C304.293 284.78 303.03 285.92 301.449 286.746C296.988 289.076 292.535 291.427 288.06 293.729C286.209 294.683 284.351 295.645 282.422 296.386C281.181 296.864 279.791 297.077 278.451 297.163C277.175 297.241 276.6 296.229 277.21 295.082C277.572 294.398 278.111 293.743 278.721 293.265C281.132 291.37 283.593 289.532 286.06 287.708C288.209 286.119 289.741 284.138 290.379 281.488C290.741 279.984 290.025 278.951 288.947 278.153C287.904 277.377 286.699 277.156 285.571 277.989C284.444 278.816 283.288 279.65 282.323 280.64C278.012 285.072 273.757 289.56 269.48 294.035C269.296 294.227 269.119 294.448 268.899 294.569C265.474 296.358 262.034 298.146 258.092 298.481C257.574 298.524 256.723 298.388 256.581 298.082C256.39 297.662 256.609 296.928 256.865 296.443C257.645 294.968 258.652 293.607 259.347 292.097C260.134 290.387 260.432 288.485 259.099 286.924C257.794 285.399 255.957 285.663 254.227 286.069C250.44 286.96 247.242 289.119 243.916 290.993C242.788 291.648 241.66 292.318 240.526 292.98ZM191.68 259.051C190.509 259.073 187.957 261.303 187.85 262.407C187.836 262.542 187.857 262.728 187.942 262.827C188.737 263.789 189.481 264.801 190.382 265.649C190.722 265.97 191.481 266.091 191.956 265.962C192.885 265.713 193.8 265.307 194.637 264.822C195.417 264.374 195.374 263.661 194.871 262.949C194.41 262.293 194.034 261.538 193.779 260.775C193.445 259.764 192.658 259.03 191.68 259.051Z" fill="white"/>
<path d="M199.615 291.769C200.941 291.313 202.324 291.021 203.544 290.394C208.416 287.879 213.266 285.3 218.074 282.656C220.663 281.231 222.613 279.158 223.762 276.358C224.301 275.033 225.173 274.52 226.272 274.641C227.655 274.79 228.321 275.375 228.704 276.792C229.201 278.638 228.988 280.44 227.704 281.83C226.407 283.233 224.896 284.459 223.364 285.613C221.762 286.817 219.939 287.729 218.379 288.976C215.706 291.107 213.642 293.75 212.358 296.985C211.408 299.386 210.188 301.63 207.586 302.642C205.473 303.468 203.281 303.746 201.019 303.618C198.48 303.483 196.651 302.307 195.53 300.02C195.403 299.756 195.211 299.521 195.197 299.493C192.261 300.369 189.488 301.388 186.63 302.008C183.872 302.606 181.035 303.027 178.22 303.112C174.887 303.212 171.873 302.207 169.895 299.158C168.519 297.042 168.349 294.762 168.81 292.361C168.895 291.933 168.958 291.498 168.788 290.928C168.533 291.171 168.278 291.406 168.029 291.662C167.533 292.182 167.122 292.824 166.547 293.23C160.583 297.462 154.697 301.858 147.166 302.934C145.237 303.205 143.379 302.906 141.628 302.122C139.706 301.26 139.415 299.065 140.805 297.476C141.72 296.429 142.486 295.246 143.259 294.085C143.436 293.821 143.507 293.201 143.351 293.066C143.096 292.845 142.557 292.724 142.238 292.838C140.217 293.579 138.181 294.313 136.224 295.203C129.14 298.431 121.743 300.711 114.226 302.628C113.262 302.877 112.191 302.87 111.184 302.792C109.908 302.692 109.425 301.901 109.688 300.64C110 299.129 110.851 297.982 111.964 296.928C113.049 295.895 114.063 294.747 114.879 293.493C115.581 292.432 115.084 291.598 113.829 291.776C111.68 292.083 109.454 292.396 107.468 293.216C102.646 295.211 97.9938 297.605 93.1786 299.628C90.335 300.825 87.3636 301.766 84.3781 302.556C82.9598 302.934 81.3713 302.806 79.8679 302.72C78.2368 302.628 77.4355 301.174 78.3007 299.771C78.9602 298.702 79.8821 297.719 80.8749 296.949C84.2575 294.327 87.7607 291.855 91.1434 289.233C92.6681 288.057 94.0651 286.703 95.455 285.357C96.072 284.758 96.7599 283.946 96.1854 283.048C95.6039 282.15 94.604 282.514 93.7885 282.763C91.0441 283.625 88.6188 285.122 86.3779 286.889C83.0449 289.518 79.8041 292.261 76.5136 294.947C75.8399 295.496 75.1804 296.094 74.4358 296.522C73.9678 296.785 73.0601 297.042 72.8473 296.821C72.3793 296.329 72.0672 295.545 72.0034 294.854C71.9609 294.377 72.3225 293.729 72.6984 293.351C78.6907 287.409 84.8036 281.616 92.6539 278.146C93.7602 277.662 94.9232 277.298 96.0649 276.914C97.9654 276.265 99.7454 276.735 101.391 277.704C102.944 278.624 103.383 280.284 102.625 282.086C101.603 284.502 100.05 286.561 98.1711 288.363C96.228 290.223 94.1998 292.004 92.2355 293.843C91.7887 294.263 91.427 294.776 91.0228 295.246C91.0867 295.367 91.1505 295.496 91.2143 295.617C91.9093 295.474 92.6681 295.467 93.2921 295.168C96.0791 293.814 98.9157 292.539 101.561 290.936C105.709 288.42 110.078 286.497 114.708 285.15C115.432 284.943 116.191 284.837 116.942 284.78C119.758 284.566 121.658 286.19 121.984 289.012C122.176 290.693 121.8 292.239 121.07 293.75C120.786 294.341 120.807 295.075 120.694 295.752C121.346 295.702 122.069 295.816 122.637 295.574C125.792 294.213 128.934 292.802 132.04 291.327C135.862 289.503 139.543 287.33 143.713 286.368C144.968 286.076 146.365 285.948 147.62 286.176C150.669 286.732 152.074 289.667 150.691 292.453C150.038 293.771 149.067 294.926 148.336 296.208C148.046 296.714 148.003 297.369 147.847 297.954C148.457 298.025 149.102 298.26 149.677 298.139C152.527 297.562 155.137 296.415 157.456 294.626C163.129 290.259 168.802 285.891 174.461 281.509C175.568 280.654 176.596 279.685 177.688 278.809C179.482 277.384 181.624 277.362 182.695 278.716C183.751 280.049 183.205 282.414 181.354 283.654C178.816 285.35 177.014 287.58 176.241 290.522C175.944 291.655 175.929 292.938 176.107 294.106C176.362 295.738 177.44 296.856 179.113 297.127C183.666 297.854 188.155 297.64 192.516 295.966C193.36 295.645 193.445 295.196 193.389 294.334C193.275 292.532 193.247 290.693 193.488 288.912C193.75 286.981 195.254 286.048 197.14 286.482C197.629 286.596 198.19 287.145 198.381 287.63C198.885 288.884 199.168 290.187 199.615 291.769ZM211.898 289.845C211.727 289.831 211.671 289.817 211.649 289.831C208.38 292.325 204.912 294.455 200.977 295.731C200.799 295.788 200.622 296.436 200.728 296.678C201.211 297.761 202.232 298.11 203.764 297.704C207.699 296.657 210.018 293.786 211.819 290.351C211.876 290.23 211.862 290.066 211.898 289.845Z" fill="black"/>
<path d="M240.526 292.98C241.661 292.318 242.788 291.648 243.93 291.007C247.256 289.133 250.454 286.974 254.241 286.083C255.971 285.677 257.815 285.414 259.113 286.938C260.446 288.499 260.148 290.401 259.361 292.111C258.666 293.622 257.666 294.983 256.879 296.457C256.624 296.942 256.397 297.676 256.595 298.096C256.737 298.403 257.588 298.538 258.106 298.495C262.049 298.16 265.481 296.372 268.913 294.584C269.14 294.462 269.317 294.242 269.495 294.049C273.771 289.582 278.026 285.086 282.337 280.654C283.309 279.657 284.465 278.83 285.585 278.004C286.72 277.17 287.925 277.391 288.961 278.168C290.039 278.966 290.748 279.999 290.393 281.502C289.762 284.153 288.223 286.133 286.075 287.722C283.607 289.546 281.146 291.384 278.735 293.28C278.125 293.757 277.593 294.413 277.224 295.097C276.615 296.244 277.189 297.255 278.465 297.177C279.806 297.092 281.189 296.878 282.437 296.4C284.373 295.659 286.231 294.69 288.074 293.743C292.549 291.441 297.003 289.09 301.463 286.76C303.052 285.934 304.307 284.794 305.158 283.176C305.484 282.549 305.973 281.972 306.505 281.502C307.817 280.355 309.115 280.74 309.42 282.471C309.895 285.157 309.526 287.715 307.583 289.817C306.711 290.765 305.739 291.62 304.846 292.56C304.349 293.08 303.86 293.629 303.506 294.249C302.421 296.165 303.69 298.502 305.832 298.26C308.37 297.968 310.909 297.426 313.37 296.721C316.121 295.93 318.781 294.812 321.504 293.907C321.858 293.786 322.489 293.957 322.766 294.227C323.723 295.154 323.745 295.538 322.766 296.465C321.951 297.241 321.05 298.004 320.057 298.495C313.965 301.509 307.555 303.255 300.719 303.098C299.605 303.069 298.449 302.841 297.393 302.478C295.258 301.744 294.386 299.742 295.18 297.605C295.442 296.892 295.797 296.215 296.145 295.545C296.464 294.918 296.832 294.32 297.031 293.558C296.719 293.729 296.407 293.921 296.081 294.078C291.06 296.55 286.096 299.158 280.983 301.438C277.806 302.856 274.345 303.24 270.856 302.549C269.558 302.293 268.445 301.737 267.637 300.597C267.481 300.376 266.85 300.269 266.559 300.39C263.758 301.623 260.836 302.442 257.808 302.649C256.07 302.77 254.248 302.606 252.56 302.186C250.17 301.587 249.17 298.958 250.454 296.821C251.142 295.674 252.206 294.747 253.078 293.7C253.567 293.116 253.993 292.482 254.454 291.869C254.354 291.734 254.262 291.598 254.163 291.463C253.61 291.655 253.014 291.776 252.503 292.054C247.029 294.99 241.604 298.011 236.094 300.882C234.335 301.794 232.406 302.442 230.498 302.977C228.889 303.433 227.811 302.898 227.272 301.808C226.733 300.725 227.017 299.585 228.102 298.403C229.229 297.17 230.335 295.923 231.442 294.669C231.676 294.398 231.86 294.085 231.924 293.607C231.059 294.028 230.208 294.484 229.328 294.869C227.392 295.724 225.471 296.621 223.485 297.355C221.74 298.004 220.521 297.555 219.939 296.351C219.656 295.773 219.698 295.303 220.244 294.975C221.216 294.391 222.173 293.771 223.208 293.308C230.03 290.252 236.81 287.088 242.377 281.937C246.83 277.811 251.227 273.622 255.432 269.247C259.318 265.207 262.935 260.897 266.644 256.679C268.431 254.648 271.395 254.826 272.629 257.241C273.019 258.004 273.005 259.265 272.643 260.042C271.977 261.459 271.083 262.863 269.984 263.96C265.07 268.862 260.084 273.693 255.042 278.467C251.106 282.193 247.029 285.777 243.058 289.475C242.022 290.437 241.15 291.584 240.207 292.646C240.306 292.745 240.412 292.859 240.526 292.98Z" fill="black"/>
<path d="M191.68 259.051C192.658 259.037 193.438 259.771 193.779 260.783C194.034 261.545 194.41 262.3 194.871 262.956C195.374 263.668 195.417 264.381 194.637 264.83C193.8 265.314 192.885 265.72 191.956 265.97C191.481 266.098 190.722 265.977 190.382 265.656C189.481 264.808 188.737 263.796 187.942 262.835C187.857 262.735 187.836 262.55 187.85 262.414C187.964 261.303 190.517 259.073 191.68 259.051Z" fill="black"/>
<path d="M211.898 289.845C211.862 290.066 211.876 290.23 211.812 290.351C210.011 293.778 207.692 296.65 203.756 297.704C202.232 298.11 201.204 297.761 200.721 296.678C200.615 296.436 200.792 295.788 200.97 295.731C204.912 294.448 208.38 292.325 211.642 289.831C211.671 289.817 211.72 289.838 211.898 289.845Z" fill="white"/>
<path d="M110.78 68.384H107.723V78.2236C107.723 78.7936 107.787 79.2354 107.915 79.5631C108.042 79.8909 108.234 80.1403 108.503 80.3184C108.766 80.4894 109.085 80.5963 109.461 80.6319C109.837 80.6675 110.262 80.6746 110.759 80.6604V81.5653C110.234 81.6009 109.716 81.5938 109.22 81.551C108.716 81.5083 108.276 81.3658 107.894 81.1378C107.511 80.9098 107.206 80.5678 106.979 80.1118C106.752 79.6558 106.653 79.0216 106.695 78.2236V68.384H104.107V67.4791H106.695V63.0973H107.73V67.4791H110.787L110.78 68.384Z" fill="white"/>
<path d="M113.73 62V70.493H113.787C113.971 69.9658 114.226 69.4955 114.567 69.0822C114.9 68.669 115.297 68.3199 115.737 68.0278C116.183 67.7356 116.666 67.5148 117.198 67.3723C117.722 67.2298 118.261 67.1514 118.807 67.1514C119.623 67.1514 120.318 67.2511 120.892 67.4506C121.467 67.6501 121.935 67.9138 122.296 68.2486C122.658 68.5764 122.949 68.9469 123.154 69.3601C123.36 69.7734 123.516 70.1866 123.601 70.607C123.693 71.0274 123.743 71.4335 123.764 71.8254C123.786 72.2173 123.793 72.5592 123.793 72.8514V81.5653H122.757V72.659C122.757 72.3099 122.729 71.8753 122.672 71.3409C122.615 70.8136 122.459 70.3077 122.197 69.8232C121.935 69.3387 121.53 68.9255 120.999 68.5764C120.46 68.2272 119.722 68.0562 118.779 68.0562C117.978 68.0562 117.268 68.2059 116.652 68.498C116.035 68.7901 115.503 69.1962 115.07 69.7164C114.63 70.2365 114.304 70.8564 114.077 71.5831C113.85 72.3028 113.737 73.0936 113.737 73.9558V81.5724H112.702V62H113.73Z" fill="white"/>
<path d="M127.225 74.6611V74.825C127.225 75.6444 127.331 76.4353 127.551 77.1834C127.771 77.9315 128.09 78.587 128.523 79.157C128.948 79.7199 129.487 80.1688 130.132 80.4965C130.778 80.8243 131.529 80.9881 132.388 80.9881C133.792 80.9881 134.905 80.6176 135.721 79.8766C136.543 79.1356 137.103 78.1096 137.415 76.7915H138.451C138.139 78.4374 137.472 79.6985 136.444 80.5749C135.416 81.4513 134.054 81.893 132.366 81.893C131.331 81.893 130.423 81.7078 129.65 81.3301C128.877 80.9525 128.232 80.4466 127.714 79.7983C127.197 79.1499 126.807 78.3804 126.558 77.4969C126.303 76.6134 126.175 75.6586 126.175 74.6326C126.175 73.6494 126.31 72.7018 126.573 71.7969C126.835 70.892 127.232 70.1011 127.757 69.41C128.282 68.726 128.941 68.1774 129.735 67.7641C130.53 67.3509 131.459 67.1443 132.529 67.1443C133.508 67.1443 134.38 67.3295 135.132 67.6929C135.884 68.0563 136.515 68.555 137.025 69.1891C137.536 69.8161 137.919 70.55 138.181 71.3836C138.444 72.2173 138.578 73.1079 138.578 74.0555C138.578 74.1481 138.571 74.255 138.564 74.369C138.557 74.4901 138.55 74.5828 138.55 74.654H127.225V74.6611V74.6611ZM137.536 73.7563C137.501 72.9868 137.373 72.26 137.153 71.576C136.933 70.892 136.614 70.2864 136.182 69.7663C135.756 69.2461 135.231 68.8329 134.621 68.5194C134.012 68.2059 133.317 68.0563 132.529 68.0563C131.693 68.0563 130.955 68.213 130.317 68.5336C129.679 68.8543 129.14 69.2746 128.7 69.7948C128.26 70.3149 127.927 70.9205 127.686 71.6188C127.452 72.3099 127.303 73.0224 127.246 73.7563C127.246 73.7563 137.536 73.7563 137.536 73.7563Z" fill="white"/>
<path d="M110.78 257.384H107.723V267.224C107.723 267.794 107.787 268.235 107.915 268.563C108.042 268.891 108.234 269.14 108.503 269.318C108.766 269.489 109.085 269.596 109.461 269.632C109.837 269.668 110.262 269.675 110.759 269.66V270.565C110.234 270.601 109.716 270.594 109.22 270.551C108.716 270.508 108.276 270.366 107.894 270.138C107.511 269.91 107.206 269.568 106.979 269.112C106.752 268.656 106.653 268.022 106.695 267.224V257.384H104.107V256.479H106.695V252.097H107.73V256.479H110.787L110.78 257.384Z" fill="black"/>
<path d="M113.73 251V259.493H113.787C113.971 258.966 114.226 258.495 114.567 258.082C114.9 257.669 115.297 257.32 115.737 257.028C116.183 256.736 116.666 256.515 117.198 256.372C117.722 256.23 118.261 256.151 118.807 256.151C119.623 256.151 120.318 256.251 120.892 256.451C121.467 256.65 121.935 256.914 122.296 257.249C122.658 257.576 122.949 257.947 123.154 258.36C123.36 258.773 123.516 259.187 123.601 259.607C123.693 260.027 123.743 260.434 123.764 260.825C123.786 261.217 123.793 261.559 123.793 261.851V270.565H122.757V261.659C122.757 261.31 122.729 260.875 122.672 260.341C122.615 259.814 122.459 259.308 122.197 258.823C121.935 258.339 121.53 257.925 120.999 257.576C120.46 257.227 119.722 257.056 118.779 257.056C117.978 257.056 117.268 257.206 116.652 257.498C116.035 257.79 115.503 258.196 115.07 258.716C114.63 259.236 114.304 259.856 114.077 260.583C113.85 261.303 113.737 262.094 113.737 262.956V270.572H112.702V251H113.73Z" fill="black"/>
<path d="M127.225 263.661V263.825C127.225 264.644 127.331 265.435 127.551 266.183C127.771 266.932 128.09 267.587 128.523 268.157C128.948 268.72 129.487 269.169 130.132 269.497C130.778 269.824 131.529 269.988 132.388 269.988C133.792 269.988 134.905 269.618 135.721 268.877C136.543 268.136 137.103 267.11 137.415 265.792H138.451C138.139 267.437 137.472 268.699 136.444 269.575C135.416 270.451 134.054 270.893 132.366 270.893C131.331 270.893 130.423 270.708 129.65 270.33C128.877 269.953 128.232 269.447 127.714 268.798C127.197 268.15 126.807 267.38 126.558 266.497C126.303 265.613 126.175 264.659 126.175 263.633C126.175 262.649 126.31 261.702 126.573 260.797C126.835 259.892 127.232 259.101 127.757 258.41C128.282 257.726 128.941 257.177 129.735 256.764C130.53 256.351 131.459 256.144 132.529 256.144C133.508 256.144 134.38 256.33 135.132 256.693C135.884 257.056 136.515 257.555 137.025 258.189C137.536 258.816 137.919 259.55 138.181 260.384C138.444 261.217 138.578 262.108 138.578 263.056C138.578 263.148 138.571 263.255 138.564 263.369C138.557 263.49 138.55 263.583 138.55 263.654H127.225V263.661V263.661ZM137.536 262.756C137.501 261.987 137.373 261.26 137.153 260.576C136.933 259.892 136.614 259.286 136.182 258.766C135.756 258.246 135.231 257.833 134.621 257.519C134.012 257.206 133.317 257.056 132.529 257.056C131.693 257.056 130.955 257.213 130.317 257.534C129.679 257.854 129.14 258.275 128.7 258.795C128.26 259.315 127.927 259.921 127.686 260.619C127.452 261.31 127.303 262.022 127.246 262.756C127.246 262.756 137.536 262.756 137.536 262.756Z" fill="black"/>
<path d="M335.46 90.7209H336.162C336.46 91.697 336.609 92.8798 336.609 94.2549C337.722 93.065 338.913 92.1815 340.197 91.5973C341.473 91.013 342.828 90.7209 344.253 90.7209C347.21 90.7209 349.671 91.7683 351.636 93.8488C353.6 95.9364 354.586 98.6938 354.586 102.114C354.586 105.47 353.6 108.27 351.628 110.521C349.657 112.773 347.062 113.899 343.842 113.899C342.523 113.899 341.254 113.635 340.048 113.101C338.842 112.566 337.694 111.775 336.616 110.728V118.879C336.616 121.358 336.665 122.869 336.758 123.41C336.85 123.952 337.126 124.358 337.58 124.629C338.034 124.9 338.878 125.035 340.112 125.035V126.239H328.95V125.035H329.73C330.964 125.035 331.765 124.857 332.141 124.501C332.517 124.144 332.73 123.717 332.793 123.218C332.857 122.719 332.886 121.273 332.886 118.879V99.3849C332.886 97.0978 332.857 95.6585 332.793 95.06C332.73 94.4686 332.481 94.0126 332.049 93.6991C331.616 93.3856 330.843 93.2289 329.73 93.2289H328.95V92.0248C330.659 91.8538 332.836 91.4191 335.46 90.7209ZM336.609 109.011C337.545 110.165 338.545 111.034 339.594 111.619C340.644 112.203 341.757 112.495 342.92 112.495C344.884 112.495 346.601 111.647 348.054 109.951C349.515 108.256 350.246 105.555 350.246 101.857C350.246 98.6439 349.544 96.2428 348.132 94.6539C346.721 93.065 345.048 92.267 343.097 92.267C341.899 92.267 340.757 92.5734 339.679 93.1861C338.601 93.7989 337.573 94.7251 336.602 95.9649V109.011H336.609V109.011Z" fill="white"/>
<path d="M364.244 96.1929C364.833 94.6396 365.797 93.3357 367.123 92.2884C368.457 91.241 369.754 90.7137 371.024 90.7137C372.173 90.7137 373.073 91.07 373.733 91.7896C374.392 92.5092 374.725 93.2431 374.725 93.9912C374.725 94.4971 374.555 94.9317 374.215 95.3022C373.874 95.6656 373.463 95.8509 372.974 95.8509C372.102 95.8509 371.442 95.2025 370.995 93.9129C370.683 93.0365 370.215 92.6019 369.584 92.6019C368.84 92.6019 367.939 93.1149 366.896 94.1337C365.854 95.1526 365.187 96.2142 364.89 97.3186C364.592 98.4159 364.45 99.9335 364.45 101.85V105.676C364.45 107.963 364.478 109.403 364.542 110.001C364.606 110.592 364.854 111.048 365.287 111.362C365.719 111.675 366.492 111.832 367.606 111.832H368.336V113.036H356.99V111.832H357.536C358.578 111.832 359.323 111.69 359.762 111.398C360.209 111.113 360.472 110.706 360.557 110.179C360.642 109.652 360.684 108.156 360.684 105.669V99.62C360.684 97.3115 360.656 95.8722 360.592 95.2809C360.528 94.6966 360.28 94.2406 359.847 93.92C359.415 93.5994 358.642 93.4355 357.529 93.4355H356.983V92.2599C358.614 92.0675 360.755 91.5545 363.4 90.7137C363.911 92.096 364.188 93.9271 364.244 96.1929Z" fill="white"/>
<path d="M374.463 102.27C374.463 98.9859 375.555 96.2427 377.747 94.0269C379.938 91.8181 382.633 90.7137 385.831 90.7137C389.05 90.7137 391.752 91.8252 393.943 94.0411C396.135 96.257 397.227 99.0001 397.227 102.27C397.227 105.883 396.113 108.726 393.887 110.799C391.66 112.872 388.972 113.906 385.831 113.906C382.682 113.906 380.002 112.851 377.789 110.749C375.569 108.647 374.463 105.819 374.463 102.27ZM378.789 102.406C378.789 106.211 379.406 108.882 380.64 110.407C381.874 111.939 383.604 112.701 385.831 112.701C388.107 112.701 389.852 111.939 391.057 110.407C392.263 108.882 392.873 106.211 392.873 102.406C392.873 98.6296 392.27 95.9435 391.071 94.3332C389.873 92.723 388.121 91.925 385.831 91.925C383.554 91.925 381.81 92.723 380.604 94.319C379.392 95.9221 378.789 98.6154 378.789 102.406Z" fill="white"/>
<path d="M406.843 90.7209V113.777C406.843 116.065 406.751 117.824 406.566 119.043C406.382 120.268 405.928 121.437 405.198 122.555C404.467 123.674 403.439 124.572 402.106 125.242C400.773 125.911 399.276 126.253 397.61 126.253C396.028 126.253 394.695 125.947 393.617 125.334C392.539 124.721 392 123.945 392 123.004C392 122.449 392.171 122.014 392.511 121.722C392.851 121.423 393.227 121.273 393.646 121.273C394.426 121.273 395.071 121.829 395.574 122.947C396.184 124.379 397.113 125.099 398.361 125.099C399.454 125.099 400.425 124.736 401.269 124.009C402.113 123.282 402.631 122.349 402.822 121.202C403.013 120.055 403.106 118.231 403.106 115.715V99.1569C403.106 97.0408 403.028 95.6514 402.872 94.9745C402.716 94.3048 402.439 93.8559 402.049 93.635C401.659 93.4141 400.907 93.3073 399.794 93.3073H399.142V92.1031C402.198 91.7896 404.574 91.3265 406.261 90.7138L406.843 90.7209ZM401.709 79.7626C401.709 79.0145 401.971 78.3661 402.489 77.8246C403.013 77.2831 403.652 77.0124 404.418 77.0124C405.162 77.0124 405.8 77.2831 406.318 77.8246C406.843 78.3661 407.098 79.0145 407.098 79.7626C407.098 80.5321 406.836 81.1876 406.304 81.7291C405.772 82.2706 405.141 82.5414 404.41 82.5414C403.63 82.5414 402.978 82.2635 402.467 81.7006C401.964 81.1449 401.709 80.4965 401.709 79.7626Z" fill="white"/>
<path d="M431.195 98.8434H416.303C416.232 99.8765 416.197 100.646 416.197 101.152C416.197 104.928 416.785 107.757 417.955 109.652C419.125 111.547 420.877 112.495 423.21 112.495C426.373 112.495 428.614 111.07 429.94 108.227H431.195C430.642 110.008 429.536 111.405 427.883 112.409C426.231 113.414 424.43 113.913 422.487 113.913C420.678 113.913 418.969 113.457 417.36 112.538C415.75 111.619 414.438 110.322 413.41 108.647C412.381 106.973 411.871 104.935 411.871 102.541C411.871 99.1498 412.864 96.3354 414.842 94.091C416.821 91.8466 419.303 90.7209 422.274 90.7209C425.075 90.7209 427.238 91.5759 428.77 93.2859C430.302 94.9959 431.11 96.8484 431.195 98.8434ZM426.635 97.796C426.685 97.397 426.713 97.0336 426.713 96.7201C426.713 95.1811 426.266 93.9913 425.373 93.1434C424.479 92.2955 423.38 91.8751 422.075 91.8751C418.913 91.8751 417.026 93.8488 416.416 97.796H426.635Z" fill="white"/>
<path d="M452.314 107.799H453.462C452.278 111.868 449.328 113.906 444.598 113.906C441.556 113.906 438.996 112.865 436.918 110.785C434.84 108.704 433.805 105.954 433.805 102.534C433.805 99.0215 434.925 96.1786 437.166 93.9912C439.407 91.811 442.059 90.7137 445.123 90.7137C446.967 90.7137 448.662 91.1199 450.207 91.9321C451.753 92.7444 452.526 93.7347 452.526 94.9032C452.526 95.3379 452.385 95.7511 452.094 96.1359C451.81 96.5206 451.392 96.713 450.853 96.713C449.704 96.713 449.002 96.0432 448.74 94.6966C448.534 93.6849 448.208 92.9795 447.775 92.5734C447.321 92.1744 446.442 91.9677 445.144 91.9677C442.811 91.9677 441.059 92.78 439.889 94.4045C438.719 96.029 438.131 98.4729 438.131 101.743C438.131 105.113 438.762 107.75 440.024 109.659C441.286 111.561 443.194 112.516 445.747 112.516C449.186 112.516 451.378 110.949 452.314 107.799Z" fill="white"/>
<path d="M468.036 92.7871H461.596V105.755C461.596 107.743 461.682 109.089 461.859 109.773C462.029 110.464 462.405 111.02 462.965 111.44C463.532 111.861 464.135 112.067 464.781 112.067C466.036 112.067 467.121 111.355 468.043 109.916L468.879 110.414C468.34 111.569 467.546 112.438 466.497 113.022C465.447 113.606 464.376 113.899 463.305 113.899C462.05 113.899 460.951 113.528 460.008 112.787C459.058 112.046 458.469 111.177 458.235 110.179C458.001 109.182 457.88 107.436 457.88 104.942V92.7871H454.774V91.583C456.2 91.5474 457.476 90.9489 458.611 89.7733C459.738 88.6048 460.462 86.9589 460.774 84.8499H461.611V91.583H468.05V92.7871H468.036Z" fill="white"/>
<path d="M335.46 279.721H336.162C336.46 280.697 336.609 281.88 336.609 283.255C337.722 282.065 338.913 281.182 340.197 280.597C341.473 280.013 342.828 279.721 344.253 279.721C347.21 279.721 349.671 280.768 351.636 282.849C353.6 284.936 354.586 287.694 354.586 291.114C354.586 294.47 353.6 297.27 351.628 299.521C349.657 301.773 347.062 302.899 343.842 302.899C342.523 302.899 341.254 302.635 340.048 302.101C338.842 301.566 337.694 300.775 336.616 299.728V307.879C336.616 310.358 336.665 311.869 336.758 312.41C336.85 312.952 337.126 313.358 337.58 313.629C338.034 313.9 338.878 314.035 340.112 314.035V315.239H328.95V314.035H329.73C330.964 314.035 331.765 313.857 332.141 313.501C332.517 313.144 332.73 312.717 332.793 312.218C332.857 311.719 332.886 310.273 332.886 307.879V288.385C332.886 286.098 332.857 284.659 332.793 284.06C332.73 283.469 332.481 283.013 332.049 282.699C331.616 282.386 330.843 282.229 329.73 282.229H328.95V281.025C330.659 280.854 332.836 280.419 335.46 279.721ZM336.609 298.011C337.545 299.165 338.545 300.034 339.594 300.619C340.644 301.203 341.757 301.495 342.92 301.495C344.884 301.495 346.601 300.647 348.054 298.951C349.515 297.256 350.246 294.555 350.246 290.857C350.246 287.644 349.544 285.243 348.132 283.654C346.721 282.065 345.048 281.267 343.097 281.267C341.899 281.267 340.757 281.573 339.679 282.186C338.601 282.799 337.573 283.725 336.602 284.965V298.011H336.609V298.011Z" fill="black"/>
<path d="M364.244 285.193C364.833 283.64 365.797 282.336 367.123 281.288C368.457 280.241 369.754 279.714 371.024 279.714C372.173 279.714 373.073 280.07 373.733 280.79C374.392 281.509 374.725 282.243 374.725 282.991C374.725 283.497 374.555 283.932 374.215 284.302C373.874 284.666 373.463 284.851 372.974 284.851C372.102 284.851 371.442 284.202 370.995 282.913C370.683 282.036 370.215 281.602 369.584 281.602C368.84 281.602 367.939 282.115 366.896 283.134C365.854 284.153 365.187 285.214 364.89 286.319C364.592 287.416 364.45 288.933 364.45 290.85V294.676C364.45 296.963 364.478 298.403 364.542 299.001C364.606 299.592 364.854 300.048 365.287 300.362C365.719 300.675 366.492 300.832 367.606 300.832H368.336V302.036H356.99V300.832H357.536C358.578 300.832 359.323 300.69 359.762 300.398C360.209 300.113 360.472 299.706 360.557 299.179C360.642 298.652 360.684 297.156 360.684 294.669V288.62C360.684 286.311 360.656 284.872 360.592 284.281C360.528 283.697 360.28 283.241 359.847 282.92C359.415 282.599 358.642 282.435 357.529 282.435H356.983V281.26C358.614 281.067 360.755 280.554 363.4 279.714C363.911 281.096 364.188 282.927 364.244 285.193Z" fill="black"/>
<path d="M374.463 291.27C374.463 287.986 375.555 285.243 377.747 283.027C379.938 280.818 382.633 279.714 385.831 279.714C389.05 279.714 391.752 280.825 393.943 283.041C396.135 285.257 397.227 288 397.227 291.27C397.227 294.883 396.113 297.726 393.887 299.799C391.66 301.872 388.972 302.906 385.831 302.906C382.682 302.906 380.002 301.851 377.789 299.749C375.569 297.647 374.463 294.819 374.463 291.27ZM378.789 291.406C378.789 295.211 379.406 297.882 380.64 299.407C381.874 300.939 383.604 301.701 385.831 301.701C388.107 301.701 389.852 300.939 391.057 299.407C392.263 297.882 392.873 295.211 392.873 291.406C392.873 287.63 392.27 284.943 391.071 283.333C389.873 281.723 388.121 280.925 385.831 280.925C383.554 280.925 381.81 281.723 380.604 283.319C379.392 284.922 378.789 287.615 378.789 291.406Z" fill="black"/>
<path d="M406.843 279.721V302.777C406.843 305.065 406.751 306.824 406.566 308.043C406.382 309.268 405.928 310.437 405.198 311.555C404.467 312.674 403.439 313.572 402.106 314.242C400.773 314.911 399.276 315.253 397.61 315.253C396.028 315.253 394.695 314.947 393.617 314.334C392.539 313.721 392 312.945 392 312.004C392 311.449 392.171 311.014 392.511 310.722C392.851 310.423 393.227 310.273 393.646 310.273C394.426 310.273 395.071 310.829 395.574 311.947C396.184 313.379 397.113 314.099 398.361 314.099C399.454 314.099 400.425 313.736 401.269 313.009C402.113 312.282 402.631 311.349 402.822 310.202C403.013 309.055 403.106 307.231 403.106 304.715V288.157C403.106 286.041 403.028 284.651 402.872 283.975C402.716 283.305 402.439 282.856 402.049 282.635C401.659 282.414 400.907 282.307 399.794 282.307H399.142V281.103C402.198 280.79 404.574 280.327 406.261 279.714L406.843 279.721ZM401.709 268.763C401.709 268.015 401.971 267.366 402.489 266.825C403.013 266.283 403.652 266.012 404.418 266.012C405.162 266.012 405.8 266.283 406.318 266.825C406.843 267.366 407.098 268.015 407.098 268.763C407.098 269.532 406.836 270.188 406.304 270.729C405.772 271.271 405.141 271.541 404.41 271.541C403.63 271.541 402.978 271.264 402.467 270.701C401.964 270.145 401.709 269.497 401.709 268.763Z" fill="black"/>
<path d="M431.195 287.843H416.303C416.232 288.877 416.197 289.646 416.197 290.152C416.197 293.928 416.785 296.757 417.955 298.652C419.125 300.547 420.877 301.495 423.21 301.495C426.373 301.495 428.614 300.07 429.94 297.227H431.195C430.642 299.008 429.536 300.405 427.883 301.409C426.231 302.414 424.43 302.913 422.487 302.913C420.678 302.913 418.969 302.457 417.36 301.538C415.75 300.619 414.438 299.322 413.41 297.647C412.381 295.973 411.871 293.935 411.871 291.541C411.871 288.15 412.864 285.335 414.842 283.091C416.821 280.847 419.303 279.721 422.274 279.721C425.075 279.721 427.238 280.576 428.77 282.286C430.302 283.996 431.11 285.848 431.195 287.843ZM426.635 286.796C426.685 286.397 426.713 286.034 426.713 285.72C426.713 284.181 426.266 282.991 425.373 282.143C424.479 281.296 423.38 280.875 422.075 280.875C418.913 280.875 417.026 282.849 416.416 286.796H426.635Z" fill="black"/>
<path d="M452.314 296.799H453.462C452.278 300.868 449.328 302.906 444.598 302.906C441.556 302.906 438.996 301.865 436.918 299.785C434.84 297.704 433.805 294.954 433.805 291.534C433.805 288.021 434.925 285.179 437.166 282.991C439.407 280.811 442.059 279.714 445.123 279.714C446.967 279.714 448.662 280.12 450.207 280.932C451.753 281.744 452.526 282.735 452.526 283.903C452.526 284.338 452.385 284.751 452.094 285.136C451.81 285.521 451.392 285.713 450.853 285.713C449.704 285.713 449.002 285.043 448.74 283.697C448.534 282.685 448.208 281.979 447.775 281.573C447.321 281.174 446.442 280.968 445.144 280.968C442.811 280.968 441.059 281.78 439.889 283.404C438.719 285.029 438.131 287.473 438.131 290.743C438.131 294.113 438.762 296.75 440.024 298.659C441.286 300.561 443.194 301.516 445.747 301.516C449.186 301.516 451.378 299.949 452.314 296.799Z" fill="black"/>
<path d="M468.036 281.787H461.596V294.755C461.596 296.743 461.682 298.089 461.859 298.773C462.029 299.464 462.405 300.02 462.965 300.44C463.532 300.861 464.135 301.067 464.781 301.067C466.036 301.067 467.121 300.355 468.043 298.916L468.879 299.414C468.34 300.569 467.546 301.438 466.497 302.022C465.447 302.606 464.376 302.899 463.305 302.899C462.05 302.899 460.951 302.528 460.008 301.787C459.058 301.046 458.469 300.177 458.235 299.179C458.001 298.182 457.88 296.436 457.88 293.942V281.787H454.774V280.583C456.2 280.547 457.476 279.949 458.611 278.773C459.738 277.605 460.462 275.959 460.774 273.85H461.611V280.583H468.05V281.787H468.036Z" fill="black"/>
</svg>
