<?xml version="1.0" encoding="utf-8"?>
<!-- Generator: Adobe Illustrator 23.0.3, SVG Export Plug-In . SVG Version: 6.00 Build 0)  -->
<svg version="1.1" id="Layer_1" xmlns="http://www.w3.org/2000/svg" xmlns:xlink="http://www.w3.org/1999/xlink" x="0px" y="0px"
	 viewBox="0 0 140.31 34.55" style="enable-background:new 0 0 140.31 34.55;" xml:space="preserve">
<style type="text/css">
	.st0{fill-rule:evenodd;clip-rule:evenodd;fill:#353535;stroke:#353535;stroke-miterlimit:10;}
	.st1{fill:#FFFFFF;}
	.st2{fill:#353535;}
	.st3{fill-rule:evenodd;clip-rule:evenodd;fill:none;stroke:#353535;stroke-miterlimit:10;}
</style>
<rect x="81.72" y="3.84" class="st0" width="53.72" height="26.8"/>
<g>
	<path class="st1" d="M87.66,11.65h2.99v5.74h0.05c0.28-0.51,0.58-1,0.87-1.49l2.76-4.25h3.6l-4.15,5.54l4.34,7.38h-3.45l-3-5.5
		l-1.01,1.26v4.24h-2.99V11.65z"/>
	<path class="st1" d="M106.8,19.03h-4.53v3.2h5.07v2.33h-8.09V11.65h7.81v2.33h-4.8v2.77h4.53V19.03z"/>
	<path class="st1" d="M111.68,14.06h-3.36v-2.41h9.78v2.41h-3.4v10.5h-3.01V14.06z"/>
	<path class="st1" d="M130.44,17.95c0,4.43-2.49,6.81-6.12,6.81c-3.83,0-5.9-2.96-5.9-6.6c0-3.76,2.32-6.7,6.11-6.7
		C128.53,11.45,130.44,14.56,130.44,17.95z M121.6,18.13c0,2.65,1.07,4.35,2.87,4.35c1.83,0,2.81-1.88,2.81-4.42
		c0-2.31-0.94-4.32-2.82-4.32C122.64,13.73,121.6,15.54,121.6,18.13z"/>
</g>
<g>
	<path class="st2" d="M21.6,19.72c-0.07-1.47-0.14-3.27-0.12-5.01h-0.06c-0.38,1.57-0.91,3.33-1.35,4.7l-1.55,4.91h-2.28l-1.39-4.86
		c-0.39-1.38-0.83-3.14-1.13-4.76h-0.05c-0.06,1.65-0.14,3.54-0.22,5.05l-0.25,4.78h-2.73l0.92-12.92h3.79l1.28,4.42
		c0.42,1.53,0.83,3.09,1.12,4.59h0.06c0.33-1.48,0.75-3.11,1.19-4.6l1.36-4.41h3.73l0.78,12.92h-2.86L21.6,19.72z"/>
	<path class="st2" d="M29.84,11.62v7.72c0,2.13,0.83,3.1,2.16,3.1c1.39,0,2.19-0.91,2.19-3.1v-7.72h3.01v7.46
		c0,3.79-1.92,5.65-5.27,5.65c-3.33,0-5.1-1.83-5.1-5.67v-7.44H29.84z"/>
	<path class="st2" d="M39.68,24.53V11.62h3.31l2.66,4.84c0.71,1.25,1.48,2.87,2.04,4.23l0.05,0c-0.16-1.6-0.26-3.49-0.26-5.57v-3.49
		h2.73v12.92h-3.05l-2.72-4.96c-0.72-1.3-1.55-2.95-2.12-4.36l-0.06,0c0.09,1.59,0.15,3.46,0.15,5.72v3.59H39.68z"/>
	<path class="st2" d="M52.73,11.8c1.01-0.17,2.37-0.27,3.79-0.27c2.37,0,3.94,0.43,5.14,1.32c1.37,1,2.19,2.62,2.19,4.96
		c0,2.52-0.89,4.27-2.19,5.3c-1.31,1.04-3.28,1.55-5.76,1.55c-1.4,0-2.47-0.09-3.17-0.18V11.8z M55.73,22.4
		c0.23,0.04,0.6,0.05,0.91,0.05c2.38,0.02,4.03-1.36,4.03-4.59c0-2.68-1.4-4.15-3.78-4.15c-0.54,0-0.92,0.04-1.16,0.1V22.4z"/>
	<path class="st2" d="M77.07,17.92c0,4.43-2.49,6.81-6.12,6.81c-3.83,0-5.9-2.96-5.9-6.6c0-3.76,2.32-6.7,6.11-6.7
		C75.16,11.42,77.07,14.53,77.07,17.92z M68.22,18.1c0,2.65,1.07,4.35,2.87,4.35c1.83,0,2.81-1.88,2.81-4.42
		c0-2.31-0.94-4.32-2.82-4.32C69.27,13.7,68.22,15.51,68.22,18.1z"/>
</g>
<rect x="3.59" y="3.55" class="st3" width="131.85" height="27.09"/>
</svg>
