<svg width="336" height="192" viewBox="0 0 336 192" fill="none" xmlns="http://www.w3.org/2000/svg">
<rect width="336" height="192" fill="black"/>
<rect width="336" height="192" fill="black"/>
<path d="M201.623 114.413H193.434L209.813 73.4653C210.675 71.3102 213.778 67 219.295 67C226.191 67 228.347 71.3102 229.209 73.4653C229.898 75.1894 239.841 101.482 244.725 114.413H236.536L222.312 77.3445C222.025 76.4825 221.019 74.7584 219.295 74.7584C217.571 74.7584 216.565 76.4825 216.278 77.3445L213.261 85.103L201.623 114.413Z" fill="white"/>
<path d="M97.3157 114.413H89.1262L105.505 73.4653C106.367 71.3102 109.471 67 114.988 67C121.884 67 124.039 71.3102 124.901 73.4653C125.591 75.1894 135.533 101.482 140.418 114.413H132.229L118.005 77.3445C117.717 76.4825 116.712 74.7584 114.988 74.7584C113.264 74.7584 112.258 76.4825 111.97 77.3445L108.953 85.103L97.3157 114.413Z" fill="white"/>
<path d="M185.675 75.1894V67.862H163.693C159.814 67.862 148.176 68.7241 148.176 80.3617C148.176 91.9993 157.228 94.1544 159.814 94.1544H174.038C179.641 94.1544 182.227 98.0336 182.227 100.62C182.227 103.206 180.072 107.085 173.176 107.085H149.038V114.413H175.762C182.658 114.413 189.555 110.964 189.555 99.3267C189.555 87.6891 176.624 87.2581 174.038 87.2581H163.693C156.797 87.2581 155.504 83.8099 155.504 80.7927C155.504 77.7756 158.952 75.1894 163.693 75.1894H185.675Z" fill="white"/>
<path d="M68.4371 67.862H43.0067V75.1894H66.282C69.4428 75.0457 75.7645 76.2239 75.7645 82.0858C75.7645 87.9477 69.4428 89.1258 66.282 88.9822H48.61C42.5757 88.9822 43.0067 93.7234 43.0067 96.3095V114.413H50.3341V99.3267C50.3341 97.6026 50.7651 96.3095 52.9203 96.3095H64.5579L75.3335 114.413H83.5229L72.7473 95.4475C76.1955 94.8728 83.0919 91.3959 83.0919 82.0858C83.0919 70.4482 71.8853 67.862 68.4371 67.862Z" fill="white"/>
<path d="M252.915 67.431V74.7584H277.483C281.793 74.7584 285.242 76.4825 285.242 80.7927C285.242 85.103 282.655 87.2581 278.776 87.2581H258.087C253.777 87.2581 252.915 90.7063 252.915 94.1544V110.102C252.915 113.55 256.363 114.125 258.087 113.981H276.621C285.673 113.981 293 110.533 293 101.051C293 93.4648 287.253 90.9936 284.379 90.7063C287.109 90.4189 292.569 87.7753 292.569 79.4997C292.569 69.1551 283.086 67.431 278.345 67.431H252.915Z" fill="white"/>
<path d="M277.914 94.1544H259.811V104.068C259.811 107.947 261.966 107.516 264.553 107.516H278.345C282.655 107.516 285.242 104.499 285.242 100.62C285.242 96.7406 281.793 94.1544 277.914 94.1544Z" fill="black"/>
</svg>
