<svg width="336" height="192" viewBox="0 0 336 192" fill="none" xmlns="http://www.w3.org/2000/svg">
<rect width="336" height="192" fill="black"/>
<path d="M0 0H336V192H0V0Z" fill="black"/>
<path d="M24.083 115H22.3965L22.4072 113.84H24.083C24.5378 113.84 24.9191 113.74 25.2271 113.539C25.535 113.335 25.7677 113.043 25.9253 112.664C26.0828 112.28 26.1616 111.822 26.1616 111.289V110.886C26.1616 110.474 26.1169 110.111 26.0273 109.795C25.9378 109.48 25.8053 109.215 25.6299 109C25.458 108.786 25.245 108.623 24.9907 108.512C24.7365 108.401 24.4447 108.345 24.1152 108.345H22.3643V107.18H24.1152C24.638 107.18 25.1143 107.267 25.5439 107.443C25.9772 107.618 26.3514 107.871 26.6665 108.2C26.9852 108.526 27.2287 108.916 27.397 109.371C27.5688 109.826 27.6548 110.334 27.6548 110.896V111.289C27.6548 111.847 27.5688 112.356 27.397 112.814C27.2287 113.269 26.9852 113.659 26.6665 113.985C26.3514 114.311 25.9754 114.561 25.5386 114.737C25.1017 114.912 24.6165 115 24.083 115ZM23.2236 107.18V115H21.7466V107.18H23.2236Z" fill="white"/>
<path d="M32.0054 113.765V111.084C32.0054 110.888 31.9714 110.717 31.9033 110.574C31.8353 110.431 31.7314 110.32 31.5918 110.241C31.4521 110.162 31.2749 110.123 31.0601 110.123C30.8703 110.123 30.7038 110.155 30.5605 110.22C30.4209 110.284 30.3135 110.375 30.2383 110.494C30.1631 110.608 30.1255 110.741 30.1255 110.891H28.7021C28.7021 110.651 28.7594 110.424 28.874 110.209C28.9886 109.991 29.1515 109.797 29.3628 109.629C29.5776 109.457 29.8337 109.323 30.1309 109.226C30.4316 109.129 30.7682 109.081 31.1406 109.081C31.5811 109.081 31.9731 109.156 32.3169 109.307C32.6642 109.453 32.9364 109.675 33.1333 109.973C33.3338 110.27 33.4341 110.644 33.4341 111.095V113.63C33.4341 113.92 33.452 114.169 33.4878 114.377C33.5272 114.581 33.5845 114.758 33.6597 114.909V115H32.2148C32.1468 114.853 32.0949 114.667 32.0591 114.441C32.0233 114.212 32.0054 113.987 32.0054 113.765ZM32.2041 111.46L32.2148 112.304H31.3179C31.0959 112.304 30.9007 112.327 30.7324 112.374C30.5641 112.417 30.4263 112.481 30.3188 112.567C30.2114 112.649 30.1309 112.75 30.0771 112.868C30.0234 112.982 29.9966 113.113 29.9966 113.26C29.9966 113.403 30.0288 113.532 30.0933 113.646C30.1613 113.761 30.258 113.852 30.3833 113.92C30.5122 113.985 30.6626 114.017 30.8345 114.017C31.0851 114.017 31.3035 113.967 31.4897 113.867C31.6759 113.763 31.821 113.638 31.9248 113.491C32.0286 113.344 32.0841 113.204 32.0913 113.072L32.4995 113.684C32.4494 113.831 32.3742 113.987 32.2739 114.151C32.1737 114.316 32.0448 114.47 31.8872 114.613C31.7297 114.757 31.5399 114.875 31.3179 114.968C31.0959 115.061 30.8381 115.107 30.5444 115.107C30.1685 115.107 29.8319 115.032 29.5347 114.882C29.2375 114.731 29.0029 114.526 28.8311 114.264C28.6592 114.003 28.5732 113.706 28.5732 113.373C28.5732 113.065 28.6305 112.792 28.7451 112.556C28.8597 112.32 29.0298 112.121 29.2554 111.96C29.481 111.795 29.7603 111.672 30.0933 111.589C30.4299 111.503 30.8148 111.46 31.248 111.46H32.2041Z" fill="white"/>
<path d="M36.5547 113.926L37.9082 109.188H39.3906L37.3979 115H36.4956L36.5547 113.926ZM35.5664 109.188L36.936 113.937L36.9844 115H36.0767L34.0786 109.188H35.5664Z" fill="white"/>
<path d="M43.2524 113.765V111.084C43.2524 110.888 43.2184 110.717 43.1504 110.574C43.0824 110.431 42.9785 110.32 42.8389 110.241C42.6992 110.162 42.522 110.123 42.3071 110.123C42.1173 110.123 41.9508 110.155 41.8076 110.22C41.668 110.284 41.5605 110.375 41.4854 110.494C41.4102 110.608 41.3726 110.741 41.3726 110.891H39.9492C39.9492 110.651 40.0065 110.424 40.1211 110.209C40.2357 109.991 40.3986 109.797 40.6099 109.629C40.8247 109.457 41.0807 109.323 41.3779 109.226C41.6787 109.129 42.0153 109.081 42.3877 109.081C42.8281 109.081 43.2202 109.156 43.564 109.307C43.9113 109.453 44.1834 109.675 44.3804 109.973C44.5809 110.27 44.6812 110.644 44.6812 111.095V113.63C44.6812 113.92 44.6991 114.169 44.7349 114.377C44.7743 114.581 44.8315 114.758 44.9067 114.909V115H43.4619C43.3939 114.853 43.342 114.667 43.3062 114.441C43.2703 114.212 43.2524 113.987 43.2524 113.765ZM43.4512 111.46L43.4619 112.304H42.5649C42.3429 112.304 42.1478 112.327 41.9795 112.374C41.8112 112.417 41.6733 112.481 41.5659 112.567C41.4585 112.649 41.3779 112.75 41.3242 112.868C41.2705 112.982 41.2437 113.113 41.2437 113.26C41.2437 113.403 41.2759 113.532 41.3403 113.646C41.4084 113.761 41.505 113.852 41.6304 113.92C41.7593 113.985 41.9097 114.017 42.0815 114.017C42.3322 114.017 42.5506 113.967 42.7368 113.867C42.923 113.763 43.068 113.638 43.1719 113.491C43.2757 113.344 43.3312 113.204 43.3384 113.072L43.7466 113.684C43.6965 113.831 43.6213 113.987 43.521 114.151C43.4207 114.316 43.2918 114.47 43.1343 114.613C42.9767 114.757 42.7869 114.875 42.5649 114.968C42.3429 115.061 42.0851 115.107 41.7915 115.107C41.4155 115.107 41.0789 115.032 40.7817 114.882C40.4845 114.731 40.25 114.526 40.0781 114.264C39.9062 114.003 39.8203 113.706 39.8203 113.373C39.8203 113.065 39.8776 112.792 39.9922 112.556C40.1068 112.32 40.2769 112.121 40.5024 111.96C40.728 111.795 41.0073 111.672 41.3403 111.589C41.6769 111.503 42.0618 111.46 42.4951 111.46H43.4512Z" fill="white"/>
<path d="M47.3774 110.375V115H45.9595V109.188H47.3022L47.3774 110.375ZM49.1445 109.151L49.123 110.472C49.0443 110.458 48.9548 110.447 48.8545 110.44C48.7578 110.433 48.6665 110.429 48.5806 110.429C48.3621 110.429 48.1706 110.46 48.0059 110.521C47.8411 110.578 47.7033 110.662 47.5923 110.773C47.4849 110.884 47.4025 111.02 47.3452 111.181C47.2879 111.339 47.2557 111.518 47.2485 111.718L46.9424 111.681C46.9424 111.312 46.98 110.97 47.0552 110.655C47.1304 110.34 47.2396 110.064 47.3828 109.828C47.526 109.591 47.7051 109.409 47.9199 109.28C48.1383 109.147 48.389 109.081 48.6719 109.081C48.7507 109.081 48.8348 109.088 48.9243 109.103C49.0174 109.113 49.0908 109.129 49.1445 109.151Z" fill="white"/>
<path d="M54.2471 107.18V115H52.77V107.18H54.2471ZM57.3999 110.558V111.724H53.8604V110.558H57.3999ZM57.8135 107.18V108.345H53.8604V107.18H57.8135Z" fill="white"/>
<path d="M61.729 113.765V111.084C61.729 110.888 61.695 110.717 61.627 110.574C61.5589 110.431 61.4551 110.32 61.3154 110.241C61.1758 110.162 60.9985 110.123 60.7837 110.123C60.5939 110.123 60.4274 110.155 60.2842 110.22C60.1445 110.284 60.0371 110.375 59.9619 110.494C59.8867 110.608 59.8491 110.741 59.8491 110.891H58.4258C58.4258 110.651 58.4831 110.424 58.5977 110.209C58.7122 109.991 58.8752 109.797 59.0864 109.629C59.3013 109.457 59.5573 109.323 59.8545 109.226C60.1553 109.129 60.4919 109.081 60.8643 109.081C61.3047 109.081 61.6968 109.156 62.0405 109.307C62.3879 109.453 62.66 109.675 62.8569 109.973C63.0575 110.27 63.1577 110.644 63.1577 111.095V113.63C63.1577 113.92 63.1756 114.169 63.2114 114.377C63.2508 114.581 63.3081 114.758 63.3833 114.909V115H61.9385C61.8704 114.853 61.8185 114.667 61.7827 114.441C61.7469 114.212 61.729 113.987 61.729 113.765ZM61.9277 111.46L61.9385 112.304H61.0415C60.8195 112.304 60.6243 112.327 60.4561 112.374C60.2878 112.417 60.1499 112.481 60.0425 112.567C59.9351 112.649 59.8545 112.75 59.8008 112.868C59.7471 112.982 59.7202 113.113 59.7202 113.26C59.7202 113.403 59.7524 113.532 59.8169 113.646C59.8849 113.761 59.9816 113.852 60.1069 113.92C60.2358 113.985 60.3862 114.017 60.5581 114.017C60.8088 114.017 61.0272 113.967 61.2134 113.867C61.3996 113.763 61.5446 113.638 61.6484 113.491C61.7523 113.344 61.8078 113.204 61.8149 113.072L62.2231 113.684C62.173 113.831 62.0978 113.987 61.9976 114.151C61.8973 114.316 61.7684 114.47 61.6108 114.613C61.4533 114.757 61.2635 114.875 61.0415 114.968C60.8195 115.061 60.5617 115.107 60.2681 115.107C59.8921 115.107 59.5555 115.032 59.2583 114.882C58.9611 114.731 58.7266 114.526 58.5547 114.264C58.3828 114.003 58.2969 113.706 58.2969 113.373C58.2969 113.065 58.3542 112.792 58.4688 112.556C58.5833 112.32 58.7534 112.121 58.979 111.96C59.2046 111.795 59.4839 111.672 59.8169 111.589C60.1535 111.503 60.5384 111.46 60.9717 111.46H61.9277Z" fill="white"/>
<path d="M68.9907 113.883V115H64.6187V113.883H68.9907ZM68.8887 110.037L65.1504 115H64.2158V114.125L67.9326 109.188H68.8887V110.037ZM68.3677 109.188V110.311H64.291V109.188H68.3677Z" fill="white"/>
<path d="M73.2017 113.765V111.084C73.2017 110.888 73.1676 110.717 73.0996 110.574C73.0316 110.431 72.9277 110.32 72.7881 110.241C72.6484 110.162 72.4712 110.123 72.2563 110.123C72.0666 110.123 71.9001 110.155 71.7568 110.22C71.6172 110.284 71.5098 110.375 71.4346 110.494C71.3594 110.608 71.3218 110.741 71.3218 110.891H69.8984C69.8984 110.651 69.9557 110.424 70.0703 110.209C70.1849 109.991 70.3478 109.797 70.5591 109.629C70.7739 109.457 71.0299 109.323 71.3271 109.226C71.6279 109.129 71.9645 109.081 72.3369 109.081C72.7773 109.081 73.1694 109.156 73.5132 109.307C73.8605 109.453 74.1326 109.675 74.3296 109.973C74.5301 110.27 74.6304 110.644 74.6304 111.095V113.63C74.6304 113.92 74.6483 114.169 74.6841 114.377C74.7235 114.581 74.7808 114.758 74.856 114.909V115H73.4111C73.3431 114.853 73.2912 114.667 73.2554 114.441C73.2196 114.212 73.2017 113.987 73.2017 113.765ZM73.4004 111.46L73.4111 112.304H72.5142C72.2922 112.304 72.097 112.327 71.9287 112.374C71.7604 112.417 71.6226 112.481 71.5151 112.567C71.4077 112.649 71.3271 112.75 71.2734 112.868C71.2197 112.982 71.1929 113.113 71.1929 113.26C71.1929 113.403 71.2251 113.532 71.2896 113.646C71.3576 113.761 71.4543 113.852 71.5796 113.92C71.7085 113.985 71.8589 114.017 72.0308 114.017C72.2814 114.017 72.4998 113.967 72.686 113.867C72.8722 113.763 73.0173 113.638 73.1211 113.491C73.2249 113.344 73.2804 113.204 73.2876 113.072L73.6958 113.684C73.6457 113.831 73.5705 113.987 73.4702 114.151C73.37 114.316 73.241 114.47 73.0835 114.613C72.9259 114.757 72.7362 114.875 72.5142 114.968C72.2922 115.061 72.0343 115.107 71.7407 115.107C71.3647 115.107 71.0282 115.032 70.731 114.882C70.4338 114.731 70.1992 114.526 70.0273 114.264C69.8555 114.003 69.7695 113.706 69.7695 113.373C69.7695 113.065 69.8268 112.792 69.9414 112.556C70.056 112.32 70.2261 112.121 70.4517 111.96C70.6772 111.795 70.9565 111.672 71.2896 111.589C71.6261 111.503 72.0111 111.46 72.4443 111.46H73.4004Z" fill="white"/>
<path d="M78.519 115.107C78.0786 115.107 77.6829 115.036 77.332 114.893C76.9811 114.749 76.6821 114.551 76.4351 114.296C76.1916 114.039 76.0036 113.74 75.8711 113.399C75.7422 113.056 75.6777 112.687 75.6777 112.293V112.078C75.6777 111.631 75.7422 111.224 75.8711 110.859C76 110.49 76.1826 110.173 76.4189 109.908C76.6553 109.643 76.9382 109.439 77.2676 109.296C77.597 109.153 77.9604 109.081 78.3579 109.081C78.7697 109.081 79.1331 109.151 79.4482 109.291C79.7633 109.427 80.0265 109.62 80.2378 109.871C80.4491 110.121 80.6084 110.422 80.7158 110.773C80.8232 111.12 80.877 111.505 80.877 111.928V112.524H76.3223V111.546H79.4805V111.439C79.4733 111.213 79.4303 111.007 79.3516 110.821C79.2728 110.632 79.151 110.481 78.9863 110.37C78.8216 110.256 78.6086 110.198 78.3472 110.198C78.1359 110.198 77.9515 110.245 77.7939 110.338C77.64 110.427 77.5111 110.556 77.4072 110.725C77.307 110.889 77.2318 111.086 77.1816 111.315C77.1315 111.545 77.1064 111.799 77.1064 112.078V112.293C77.1064 112.536 77.1387 112.762 77.2031 112.97C77.2712 113.177 77.3696 113.358 77.4985 113.512C77.631 113.663 77.7886 113.781 77.9712 113.867C78.1574 113.949 78.3687 113.99 78.605 113.99C78.9022 113.99 79.1707 113.933 79.4106 113.818C79.6541 113.7 79.8654 113.527 80.0444 113.297L80.7588 114.039C80.637 114.218 80.4723 114.389 80.2646 114.554C80.0605 114.719 79.8135 114.853 79.5234 114.957C79.2334 115.057 78.8986 115.107 78.519 115.107Z" fill="white"/>
<path d="M83.3315 106.75V115H81.9082V106.75H83.3315Z" fill="white"/>
<path d="M86.189 109.188V115H84.7656V109.188H86.189ZM84.6689 107.668C84.6689 107.457 84.7406 107.282 84.8838 107.142C85.0306 107.002 85.2275 106.933 85.4746 106.933C85.7217 106.933 85.9168 107.002 86.0601 107.142C86.2069 107.282 86.2803 107.457 86.2803 107.668C86.2803 107.876 86.2069 108.05 86.0601 108.189C85.9168 108.329 85.7217 108.399 85.4746 108.399C85.2275 108.399 85.0306 108.329 84.8838 108.189C84.7406 108.05 84.6689 107.876 84.6689 107.668Z" fill="white"/>
<path d="M22.7183 153.401H23.2983C23.5825 153.401 23.8169 153.354 24.0015 153.26C24.189 153.164 24.3281 153.033 24.4189 152.869C24.5127 152.702 24.5596 152.515 24.5596 152.307C24.5596 152.061 24.5186 151.854 24.4365 151.687C24.3545 151.52 24.2314 151.394 24.0674 151.309C23.9033 151.224 23.6953 151.182 23.4434 151.182C23.2148 151.182 23.0127 151.227 22.8369 151.318C22.6641 151.406 22.5278 151.532 22.4282 151.696C22.3315 151.86 22.2832 152.053 22.2832 152.276H21.4702C21.4702 151.951 21.5522 151.655 21.7163 151.388C21.8804 151.122 22.1104 150.909 22.4062 150.751C22.7051 150.593 23.0508 150.514 23.4434 150.514C23.8301 150.514 24.1685 150.583 24.4585 150.72C24.7485 150.855 24.9741 151.057 25.1353 151.327C25.2964 151.593 25.377 151.926 25.377 152.324C25.377 152.485 25.3389 152.658 25.2627 152.843C25.1895 153.024 25.0737 153.194 24.9155 153.353C24.7603 153.511 24.5581 153.641 24.3091 153.744C24.0601 153.843 23.7612 153.893 23.4126 153.893H22.7183V153.401ZM22.7183 154.069V153.581H23.4126C23.8198 153.581 24.1567 153.629 24.4233 153.726C24.6899 153.823 24.8994 153.952 25.0518 154.113C25.207 154.274 25.3154 154.451 25.377 154.645C25.4414 154.835 25.4736 155.025 25.4736 155.216C25.4736 155.515 25.4224 155.78 25.3198 156.011C25.2202 156.243 25.0781 156.439 24.8936 156.6C24.7119 156.761 24.498 156.883 24.252 156.965C24.0059 157.047 23.7378 157.088 23.4478 157.088C23.1694 157.088 22.9072 157.048 22.6611 156.969C22.418 156.89 22.2026 156.776 22.0151 156.626C21.8276 156.474 21.6812 156.288 21.5757 156.068C21.4702 155.846 21.4175 155.592 21.4175 155.308H22.2305C22.2305 155.531 22.2788 155.726 22.3755 155.893C22.4751 156.06 22.6157 156.19 22.7974 156.284C22.9819 156.375 23.1987 156.42 23.4478 156.42C23.6968 156.42 23.9106 156.377 24.0894 156.292C24.271 156.205 24.4102 156.073 24.5068 155.897C24.6064 155.721 24.6562 155.5 24.6562 155.233C24.6562 154.967 24.6006 154.749 24.4893 154.579C24.3779 154.406 24.2197 154.278 24.0146 154.196C23.8125 154.111 23.5737 154.069 23.2983 154.069H22.7183Z" fill="white"/>
<path d="M30.6108 153.291V154.267C30.6108 154.791 30.564 155.233 30.4702 155.594C30.3765 155.954 30.2417 156.244 30.0659 156.464C29.8901 156.684 29.6777 156.843 29.4287 156.943C29.1826 157.04 28.9043 157.088 28.5938 157.088C28.3477 157.088 28.1206 157.057 27.9126 156.996C27.7046 156.934 27.5171 156.836 27.3501 156.701C27.186 156.563 27.0454 156.385 26.9282 156.165C26.811 155.945 26.7217 155.679 26.6602 155.365C26.5986 155.052 26.5679 154.686 26.5679 154.267V153.291C26.5679 152.767 26.6147 152.327 26.7085 151.973C26.8052 151.618 26.9414 151.334 27.1172 151.12C27.293 150.903 27.5039 150.748 27.75 150.654C27.999 150.561 28.2773 150.514 28.585 150.514C28.834 150.514 29.0625 150.544 29.2705 150.606C29.4814 150.665 29.6689 150.76 29.833 150.892C29.9971 151.021 30.1362 151.193 30.2505 151.41C30.3677 151.624 30.457 151.886 30.5186 152.197C30.5801 152.507 30.6108 152.872 30.6108 153.291ZM29.7935 154.398V153.155C29.7935 152.868 29.7759 152.616 29.7407 152.399C29.7085 152.179 29.6602 151.992 29.5957 151.836C29.5312 151.681 29.4492 151.555 29.3496 151.458C29.2529 151.362 29.1401 151.292 29.0112 151.248C28.8853 151.201 28.7432 151.177 28.585 151.177C28.3916 151.177 28.2202 151.214 28.0708 151.287C27.9214 151.357 27.7954 151.47 27.6929 151.625C27.5933 151.781 27.5171 151.984 27.4644 152.236C27.4116 152.488 27.3853 152.794 27.3853 153.155V154.398C27.3853 154.686 27.4014 154.939 27.4336 155.159C27.4688 155.378 27.52 155.569 27.5874 155.73C27.6548 155.888 27.7368 156.019 27.8335 156.121C27.9302 156.224 28.0415 156.3 28.1675 156.35C28.2964 156.396 28.4385 156.42 28.5938 156.42C28.793 156.42 28.9673 156.382 29.1167 156.306C29.2661 156.229 29.3906 156.111 29.4902 155.95C29.5928 155.786 29.6689 155.576 29.7188 155.321C29.7686 155.063 29.7935 154.756 29.7935 154.398Z" fill="white"/>
<path d="M32.6851 153.955L32.0347 153.788L32.3555 150.602H35.6382V151.353H33.0454L32.8521 153.093C32.9692 153.026 33.1172 152.963 33.2959 152.904C33.4775 152.846 33.6855 152.816 33.9199 152.816C34.2158 152.816 34.481 152.868 34.7153 152.97C34.9497 153.07 35.1489 153.213 35.313 153.401C35.48 153.588 35.6074 153.814 35.6953 154.078C35.7832 154.341 35.8271 154.636 35.8271 154.961C35.8271 155.269 35.7847 155.551 35.6997 155.809C35.6177 156.067 35.4932 156.292 35.3262 156.486C35.1592 156.676 34.9482 156.824 34.6934 156.93C34.4414 157.035 34.144 157.088 33.8013 157.088C33.5435 157.088 33.2988 157.053 33.0674 156.982C32.8389 156.909 32.6338 156.799 32.4521 156.653C32.2734 156.503 32.127 156.319 32.0127 156.099C31.9014 155.876 31.8311 155.616 31.8018 155.317H32.5752C32.6104 155.557 32.6807 155.759 32.7861 155.923C32.8916 156.087 33.0293 156.212 33.1992 156.297C33.3721 156.379 33.5728 156.42 33.8013 156.42C33.9946 156.42 34.166 156.386 34.3154 156.319C34.4648 156.251 34.5908 156.155 34.6934 156.029C34.7959 155.903 34.8735 155.75 34.9263 155.572C34.9819 155.393 35.0098 155.192 35.0098 154.97C35.0098 154.768 34.9819 154.58 34.9263 154.407C34.8706 154.234 34.7871 154.083 34.6758 153.955C34.5674 153.826 34.4341 153.726 34.2759 153.656C34.1177 153.583 33.936 153.546 33.731 153.546C33.4585 153.546 33.252 153.583 33.1113 153.656C32.9736 153.729 32.8315 153.829 32.6851 153.955Z" fill="white"/>
<path d="M36.8203 156.569C36.8203 156.432 36.8628 156.316 36.9478 156.222C37.0356 156.125 37.1616 156.077 37.3257 156.077C37.4897 156.077 37.6143 156.125 37.6992 156.222C37.7871 156.316 37.8311 156.432 37.8311 156.569C37.8311 156.704 37.7871 156.818 37.6992 156.912C37.6143 157.006 37.4897 157.053 37.3257 157.053C37.1616 157.053 37.0356 157.006 36.9478 156.912C36.8628 156.818 36.8203 156.704 36.8203 156.569Z" fill="white"/>
<path d="M43.4165 154.847V155.515H38.7935V155.036L41.6587 150.602H42.3223L41.6104 151.885L39.7163 154.847H43.4165ZM42.5244 150.602V157H41.7114V150.602H42.5244Z" fill="white"/>
<path d="M45.1831 153.955L44.5327 153.788L44.8535 150.602H48.1362V151.353H45.5435L45.3501 153.093C45.4673 153.026 45.6152 152.963 45.7939 152.904C45.9756 152.846 46.1836 152.816 46.418 152.816C46.7139 152.816 46.979 152.868 47.2134 152.97C47.4478 153.07 47.647 153.213 47.811 153.401C47.978 153.588 48.1055 153.814 48.1934 154.078C48.2812 154.341 48.3252 154.636 48.3252 154.961C48.3252 155.269 48.2827 155.551 48.1978 155.809C48.1157 156.067 47.9912 156.292 47.8242 156.486C47.6572 156.676 47.4463 156.824 47.1914 156.93C46.9395 157.035 46.6421 157.088 46.2993 157.088C46.0415 157.088 45.7969 157.053 45.5654 156.982C45.3369 156.909 45.1318 156.799 44.9502 156.653C44.7715 156.503 44.625 156.319 44.5107 156.099C44.3994 155.876 44.3291 155.616 44.2998 155.317H45.0732C45.1084 155.557 45.1787 155.759 45.2842 155.923C45.3896 156.087 45.5273 156.212 45.6973 156.297C45.8701 156.379 46.0708 156.42 46.2993 156.42C46.4927 156.42 46.6641 156.386 46.8135 156.319C46.9629 156.251 47.0889 156.155 47.1914 156.029C47.2939 155.903 47.3716 155.75 47.4243 155.572C47.48 155.393 47.5078 155.192 47.5078 154.97C47.5078 154.768 47.48 154.58 47.4243 154.407C47.3687 154.234 47.2852 154.083 47.1738 153.955C47.0654 153.826 46.9321 153.726 46.7739 153.656C46.6157 153.583 46.4341 153.546 46.229 153.546C45.9565 153.546 45.75 153.583 45.6094 153.656C45.4717 153.729 45.3296 153.829 45.1831 153.955Z" fill="white"/>
<path d="M53.2339 153.291V154.267C53.2339 154.791 53.187 155.233 53.0933 155.594C52.9995 155.954 52.8647 156.244 52.689 156.464C52.5132 156.684 52.3008 156.843 52.0518 156.943C51.8057 157.04 51.5273 157.088 51.2168 157.088C50.9707 157.088 50.7437 157.057 50.5356 156.996C50.3276 156.934 50.1401 156.836 49.9731 156.701C49.8091 156.563 49.6685 156.385 49.5513 156.165C49.4341 155.945 49.3447 155.679 49.2832 155.365C49.2217 155.052 49.1909 154.686 49.1909 154.267V153.291C49.1909 152.767 49.2378 152.327 49.3315 151.973C49.4282 151.618 49.5645 151.334 49.7402 151.12C49.916 150.903 50.127 150.748 50.373 150.654C50.6221 150.561 50.9004 150.514 51.208 150.514C51.457 150.514 51.6855 150.544 51.8936 150.606C52.1045 150.665 52.292 150.76 52.4561 150.892C52.6201 151.021 52.7593 151.193 52.8735 151.41C52.9907 151.624 53.0801 151.886 53.1416 152.197C53.2031 152.507 53.2339 152.872 53.2339 153.291ZM52.4165 154.398V153.155C52.4165 152.868 52.3989 152.616 52.3638 152.399C52.3315 152.179 52.2832 151.992 52.2188 151.836C52.1543 151.681 52.0723 151.555 51.9727 151.458C51.876 151.362 51.7632 151.292 51.6343 151.248C51.5083 151.201 51.3662 151.177 51.208 151.177C51.0146 151.177 50.8433 151.214 50.6938 151.287C50.5444 151.357 50.4185 151.47 50.3159 151.625C50.2163 151.781 50.1401 151.984 50.0874 152.236C50.0347 152.488 50.0083 152.794 50.0083 153.155V154.398C50.0083 154.686 50.0244 154.939 50.0566 155.159C50.0918 155.378 50.1431 155.569 50.2104 155.73C50.2778 155.888 50.3599 156.019 50.4565 156.121C50.5532 156.224 50.6646 156.3 50.7905 156.35C50.9194 156.396 51.0615 156.42 51.2168 156.42C51.416 156.42 51.5903 156.382 51.7397 156.306C51.8892 156.229 52.0137 156.111 52.1133 155.95C52.2158 155.786 52.292 155.576 52.3418 155.321C52.3916 155.063 52.4165 154.756 52.4165 154.398Z" fill="white"/>
<path d="M54.3809 156.569C54.3809 156.432 54.4233 156.316 54.5083 156.222C54.5962 156.125 54.7222 156.077 54.8862 156.077C55.0503 156.077 55.1748 156.125 55.2598 156.222C55.3477 156.316 55.3916 156.432 55.3916 156.569C55.3916 156.704 55.3477 156.818 55.2598 156.912C55.1748 157.006 55.0503 157.053 54.8862 157.053C54.7222 157.053 54.5962 157.006 54.5083 156.912C54.4233 156.818 54.3809 156.704 54.3809 156.569Z" fill="white"/>
<path d="M60.687 155.269C60.687 155.658 60.5962 155.989 60.4146 156.262C60.2358 156.531 59.9927 156.736 59.6851 156.877C59.3804 157.018 59.0361 157.088 58.6523 157.088C58.2686 157.088 57.9229 157.018 57.6152 156.877C57.3076 156.736 57.0645 156.531 56.8857 156.262C56.707 155.989 56.6177 155.658 56.6177 155.269C56.6177 155.014 56.666 154.781 56.7627 154.57C56.8623 154.356 57.0015 154.17 57.1802 154.012C57.3618 153.854 57.5757 153.732 57.8218 153.647C58.0708 153.559 58.3447 153.515 58.6436 153.515C59.0361 153.515 59.3862 153.591 59.6938 153.744C60.0015 153.893 60.2432 154.1 60.4189 154.363C60.5977 154.627 60.687 154.929 60.687 155.269ZM59.8696 155.251C59.8696 155.014 59.8184 154.804 59.7158 154.623C59.6133 154.438 59.4697 154.294 59.2852 154.192C59.1006 154.089 58.8867 154.038 58.6436 154.038C58.3945 154.038 58.1792 154.089 57.9976 154.192C57.8188 154.294 57.6797 154.438 57.5801 154.623C57.4805 154.804 57.4307 155.014 57.4307 155.251C57.4307 155.497 57.479 155.708 57.5757 155.884C57.6753 156.057 57.8159 156.19 57.9976 156.284C58.1821 156.375 58.4004 156.42 58.6523 156.42C58.9043 156.42 59.1211 156.375 59.3027 156.284C59.4844 156.19 59.6235 156.057 59.7202 155.884C59.8198 155.708 59.8696 155.497 59.8696 155.251ZM60.5376 152.267C60.5376 152.578 60.4556 152.857 60.2915 153.106C60.1274 153.355 59.9033 153.552 59.6191 153.695C59.335 153.839 59.0127 153.911 58.6523 153.911C58.2861 153.911 57.9595 153.839 57.6724 153.695C57.3882 153.552 57.1655 153.355 57.0044 153.106C56.8433 152.857 56.7627 152.578 56.7627 152.267C56.7627 151.895 56.8433 151.579 57.0044 151.318C57.1685 151.057 57.3926 150.858 57.6768 150.72C57.9609 150.583 58.2847 150.514 58.6479 150.514C59.0142 150.514 59.3394 150.583 59.6235 150.72C59.9077 150.858 60.1304 151.057 60.2915 151.318C60.4556 151.579 60.5376 151.895 60.5376 152.267ZM59.7246 152.28C59.7246 152.066 59.6792 151.877 59.5884 151.713C59.4976 151.549 59.3716 151.42 59.2104 151.327C59.0493 151.23 58.8618 151.182 58.6479 151.182C58.4341 151.182 58.2466 151.227 58.0854 151.318C57.9272 151.406 57.8027 151.532 57.7119 151.696C57.624 151.86 57.5801 152.055 57.5801 152.28C57.5801 152.5 57.624 152.692 57.7119 152.856C57.8027 153.02 57.9287 153.147 58.0898 153.238C58.251 153.329 58.4385 153.375 58.6523 153.375C58.8662 153.375 59.0522 153.329 59.2104 153.238C59.3716 153.147 59.4976 153.02 59.5884 152.856C59.6792 152.692 59.7246 152.5 59.7246 152.28Z" fill="white"/>
<path d="M65.7319 153.291V154.267C65.7319 154.791 65.6851 155.233 65.5913 155.594C65.4976 155.954 65.3628 156.244 65.187 156.464C65.0112 156.684 64.7988 156.843 64.5498 156.943C64.3037 157.04 64.0254 157.088 63.7148 157.088C63.4688 157.088 63.2417 157.057 63.0337 156.996C62.8257 156.934 62.6382 156.836 62.4712 156.701C62.3071 156.563 62.1665 156.385 62.0493 156.165C61.9321 155.945 61.8428 155.679 61.7812 155.365C61.7197 155.052 61.689 154.686 61.689 154.267V153.291C61.689 152.767 61.7358 152.327 61.8296 151.973C61.9263 151.618 62.0625 151.334 62.2383 151.12C62.4141 150.903 62.625 150.748 62.8711 150.654C63.1201 150.561 63.3984 150.514 63.7061 150.514C63.9551 150.514 64.1836 150.544 64.3916 150.606C64.6025 150.665 64.79 150.76 64.9541 150.892C65.1182 151.021 65.2573 151.193 65.3716 151.41C65.4888 151.624 65.5781 151.886 65.6396 152.197C65.7012 152.507 65.7319 152.872 65.7319 153.291ZM64.9146 154.398V153.155C64.9146 152.868 64.897 152.616 64.8618 152.399C64.8296 152.179 64.7812 151.992 64.7168 151.836C64.6523 151.681 64.5703 151.555 64.4707 151.458C64.374 151.362 64.2612 151.292 64.1323 151.248C64.0063 151.201 63.8643 151.177 63.7061 151.177C63.5127 151.177 63.3413 151.214 63.1919 151.287C63.0425 151.357 62.9165 151.47 62.814 151.625C62.7144 151.781 62.6382 151.984 62.5854 152.236C62.5327 152.488 62.5063 152.794 62.5063 153.155V154.398C62.5063 154.686 62.5225 154.939 62.5547 155.159C62.5898 155.378 62.6411 155.569 62.7085 155.73C62.7759 155.888 62.8579 156.019 62.9546 156.121C63.0513 156.224 63.1626 156.3 63.2886 156.35C63.4175 156.396 63.5596 156.42 63.7148 156.42C63.9141 156.42 64.0884 156.382 64.2378 156.306C64.3872 156.229 64.5117 156.111 64.6113 155.95C64.7139 155.786 64.79 155.576 64.8398 155.321C64.8896 155.063 64.9146 154.756 64.9146 154.398Z" fill="white"/>
<path d="M69.4497 150.566V157H68.6367V151.582L66.9976 152.179V151.445L69.3223 150.566H69.4497Z" fill="white"/>
<path d="M75.8745 155.269C75.8745 155.658 75.7837 155.989 75.6021 156.262C75.4233 156.531 75.1802 156.736 74.8726 156.877C74.5679 157.018 74.2236 157.088 73.8398 157.088C73.4561 157.088 73.1104 157.018 72.8027 156.877C72.4951 156.736 72.252 156.531 72.0732 156.262C71.8945 155.989 71.8052 155.658 71.8052 155.269C71.8052 155.014 71.8535 154.781 71.9502 154.57C72.0498 154.356 72.189 154.17 72.3677 154.012C72.5493 153.854 72.7632 153.732 73.0093 153.647C73.2583 153.559 73.5322 153.515 73.8311 153.515C74.2236 153.515 74.5737 153.591 74.8813 153.744C75.189 153.893 75.4307 154.1 75.6064 154.363C75.7852 154.627 75.8745 154.929 75.8745 155.269ZM75.0571 155.251C75.0571 155.014 75.0059 154.804 74.9033 154.623C74.8008 154.438 74.6572 154.294 74.4727 154.192C74.2881 154.089 74.0742 154.038 73.8311 154.038C73.582 154.038 73.3667 154.089 73.1851 154.192C73.0063 154.294 72.8672 154.438 72.7676 154.623C72.668 154.804 72.6182 155.014 72.6182 155.251C72.6182 155.497 72.6665 155.708 72.7632 155.884C72.8628 156.057 73.0034 156.19 73.1851 156.284C73.3696 156.375 73.5879 156.42 73.8398 156.42C74.0918 156.42 74.3086 156.375 74.4902 156.284C74.6719 156.19 74.811 156.057 74.9077 155.884C75.0073 155.708 75.0571 155.497 75.0571 155.251ZM75.7251 152.267C75.7251 152.578 75.6431 152.857 75.479 153.106C75.3149 153.355 75.0908 153.552 74.8066 153.695C74.5225 153.839 74.2002 153.911 73.8398 153.911C73.4736 153.911 73.147 153.839 72.8599 153.695C72.5757 153.552 72.353 153.355 72.1919 153.106C72.0308 152.857 71.9502 152.578 71.9502 152.267C71.9502 151.895 72.0308 151.579 72.1919 151.318C72.356 151.057 72.5801 150.858 72.8643 150.72C73.1484 150.583 73.4722 150.514 73.8354 150.514C74.2017 150.514 74.5269 150.583 74.811 150.72C75.0952 150.858 75.3179 151.057 75.479 151.318C75.6431 151.579 75.7251 151.895 75.7251 152.267ZM74.9121 152.28C74.9121 152.066 74.8667 151.877 74.7759 151.713C74.6851 151.549 74.5591 151.42 74.3979 151.327C74.2368 151.23 74.0493 151.182 73.8354 151.182C73.6216 151.182 73.4341 151.227 73.2729 151.318C73.1147 151.406 72.9902 151.532 72.8994 151.696C72.8115 151.86 72.7676 152.055 72.7676 152.28C72.7676 152.5 72.8115 152.692 72.8994 152.856C72.9902 153.02 73.1162 153.147 73.2773 153.238C73.4385 153.329 73.626 153.375 73.8398 153.375C74.0537 153.375 74.2397 153.329 74.3979 153.238C74.5591 153.147 74.6851 153.02 74.7759 152.856C74.8667 152.692 74.9121 152.5 74.9121 152.28Z" fill="white"/>
<path d="M81.4468 153.783V153.603C81.4468 153.351 81.5259 153.143 81.6841 152.979C81.8452 152.815 82.0635 152.733 82.3389 152.733C82.6172 152.733 82.8369 152.815 82.998 152.979C83.1592 153.143 83.2397 153.351 83.2397 153.603V153.783C83.2397 154.032 83.1592 154.239 82.998 154.403C82.8398 154.564 82.6216 154.645 82.3433 154.645C82.0679 154.645 81.8496 154.564 81.6885 154.403C81.5273 154.239 81.4468 154.032 81.4468 153.783Z" fill="white"/>
<path d="M89.6821 156.319H89.7656C90.2344 156.319 90.6152 156.253 90.9082 156.121C91.2012 155.989 91.4268 155.812 91.585 155.589C91.7432 155.367 91.8516 155.116 91.9102 154.838C91.9688 154.557 91.998 154.268 91.998 153.972V152.992C91.998 152.702 91.9644 152.444 91.897 152.219C91.8325 151.993 91.7417 151.804 91.6245 151.652C91.5103 151.5 91.3799 151.384 91.2334 151.305C91.0869 151.226 90.9316 151.186 90.7676 151.186C90.5801 151.186 90.4116 151.224 90.2622 151.3C90.1157 151.374 89.9912 151.478 89.8887 151.612C89.7891 151.747 89.7129 151.905 89.6602 152.087C89.6074 152.269 89.5811 152.466 89.5811 152.68C89.5811 152.871 89.6045 153.055 89.6514 153.234C89.6982 153.413 89.77 153.574 89.8667 153.717C89.9634 153.861 90.0835 153.975 90.2271 154.06C90.3735 154.142 90.5449 154.183 90.7412 154.183C90.9229 154.183 91.0928 154.148 91.251 154.078C91.4121 154.004 91.5542 153.906 91.6772 153.783C91.8032 153.657 91.9028 153.515 91.9761 153.357C92.0522 153.199 92.0962 153.033 92.1079 152.86H92.4946C92.4946 153.104 92.4463 153.344 92.3496 153.581C92.2559 153.815 92.124 154.029 91.9541 154.223C91.7842 154.416 91.585 154.571 91.3564 154.688C91.1279 154.803 90.8789 154.86 90.6094 154.86C90.293 154.86 90.019 154.798 89.7876 154.675C89.5562 154.552 89.3657 154.388 89.2163 154.183C89.0698 153.978 88.96 153.75 88.8867 153.498C88.8164 153.243 88.7812 152.985 88.7812 152.724C88.7812 152.419 88.8237 152.134 88.9087 151.867C88.9937 151.601 89.1196 151.366 89.2866 151.164C89.4536 150.959 89.6602 150.799 89.9062 150.685C90.1553 150.571 90.4424 150.514 90.7676 150.514C91.1338 150.514 91.4458 150.587 91.7036 150.733C91.9614 150.88 92.1709 151.076 92.332 151.322C92.4961 151.568 92.6162 151.845 92.6924 152.153C92.7686 152.46 92.8066 152.777 92.8066 153.102V153.396C92.8066 153.728 92.7847 154.064 92.7407 154.407C92.6997 154.747 92.6191 155.072 92.499 155.383C92.3818 155.693 92.2104 155.972 91.9849 156.218C91.7593 156.461 91.4648 156.654 91.1016 156.798C90.7412 156.938 90.2959 157.009 89.7656 157.009H89.6821V156.319Z" fill="white"/>
<path d="M96.6079 150.566V157H95.7949V151.582L94.1558 152.179V151.445L96.4805 150.566H96.6079Z" fill="white"/>
<path d="M103.134 150.602V151.059L100.484 157H99.627L102.272 151.27H98.8096V150.602H103.134Z" fill="white"/>
<path d="M104.162 156.569C104.162 156.432 104.205 156.316 104.29 156.222C104.377 156.125 104.503 156.077 104.667 156.077C104.832 156.077 104.956 156.125 105.041 156.222C105.129 156.316 105.173 156.432 105.173 156.569C105.173 156.704 105.129 156.818 105.041 156.912C104.956 157.006 104.832 157.053 104.667 157.053C104.503 157.053 104.377 157.006 104.29 156.912C104.205 156.818 104.162 156.704 104.162 156.569Z" fill="white"/>
<path d="M110.468 155.269C110.468 155.658 110.377 155.989 110.196 156.262C110.017 156.531 109.774 156.736 109.466 156.877C109.162 157.018 108.817 157.088 108.434 157.088C108.05 157.088 107.704 157.018 107.396 156.877C107.089 156.736 106.846 156.531 106.667 156.262C106.488 155.989 106.399 155.658 106.399 155.269C106.399 155.014 106.447 154.781 106.544 154.57C106.644 154.356 106.783 154.17 106.961 154.012C107.143 153.854 107.357 153.732 107.603 153.647C107.852 153.559 108.126 153.515 108.425 153.515C108.817 153.515 109.167 153.591 109.475 153.744C109.783 153.893 110.024 154.1 110.2 154.363C110.379 154.627 110.468 154.929 110.468 155.269ZM109.651 155.251C109.651 155.014 109.6 154.804 109.497 154.623C109.395 154.438 109.251 154.294 109.066 154.192C108.882 154.089 108.668 154.038 108.425 154.038C108.176 154.038 107.96 154.089 107.779 154.192C107.6 154.294 107.461 154.438 107.361 154.623C107.262 154.804 107.212 155.014 107.212 155.251C107.212 155.497 107.26 155.708 107.357 155.884C107.457 156.057 107.597 156.19 107.779 156.284C107.963 156.375 108.182 156.42 108.434 156.42C108.686 156.42 108.902 156.375 109.084 156.284C109.266 156.19 109.405 156.057 109.501 155.884C109.601 155.708 109.651 155.497 109.651 155.251ZM110.319 152.267C110.319 152.578 110.237 152.857 110.073 153.106C109.909 153.355 109.685 153.552 109.4 153.695C109.116 153.839 108.794 153.911 108.434 153.911C108.067 153.911 107.741 153.839 107.454 153.695C107.169 153.552 106.947 153.355 106.786 153.106C106.625 152.857 106.544 152.578 106.544 152.267C106.544 151.895 106.625 151.579 106.786 151.318C106.95 151.057 107.174 150.858 107.458 150.72C107.742 150.583 108.066 150.514 108.429 150.514C108.795 150.514 109.121 150.583 109.405 150.72C109.689 150.858 109.912 151.057 110.073 151.318C110.237 151.579 110.319 151.895 110.319 152.267ZM109.506 152.28C109.506 152.066 109.46 151.877 109.37 151.713C109.279 151.549 109.153 151.42 108.992 151.327C108.831 151.23 108.643 151.182 108.429 151.182C108.215 151.182 108.028 151.227 107.867 151.318C107.708 151.406 107.584 151.532 107.493 151.696C107.405 151.86 107.361 152.055 107.361 152.28C107.361 152.5 107.405 152.692 107.493 152.856C107.584 153.02 107.71 153.147 107.871 153.238C108.032 153.329 108.22 153.375 108.434 153.375C108.647 153.375 108.833 153.329 108.992 153.238C109.153 153.147 109.279 153.02 109.37 152.856C109.46 152.692 109.506 152.5 109.506 152.28Z" fill="white"/>
<path d="M114.168 150.566V157H113.355V151.582L111.716 152.179V151.445L114.041 150.566H114.168Z" fill="white"/>
<path d="M120.576 153.291V154.267C120.576 154.791 120.529 155.233 120.435 155.594C120.341 155.954 120.207 156.244 120.031 156.464C119.855 156.684 119.643 156.843 119.394 156.943C119.147 157.04 118.869 157.088 118.559 157.088C118.312 157.088 118.085 157.057 117.877 156.996C117.669 156.934 117.482 156.836 117.315 156.701C117.151 156.563 117.01 156.385 116.893 156.165C116.776 155.945 116.687 155.679 116.625 155.365C116.563 155.052 116.533 154.686 116.533 154.267V153.291C116.533 152.767 116.58 152.327 116.673 151.973C116.77 151.618 116.906 151.334 117.082 151.12C117.258 150.903 117.469 150.748 117.715 150.654C117.964 150.561 118.242 150.514 118.55 150.514C118.799 150.514 119.027 150.544 119.235 150.606C119.446 150.665 119.634 150.76 119.798 150.892C119.962 151.021 120.101 151.193 120.215 151.41C120.333 151.624 120.422 151.886 120.483 152.197C120.545 152.507 120.576 152.872 120.576 153.291ZM119.758 154.398V153.155C119.758 152.868 119.741 152.616 119.706 152.399C119.673 152.179 119.625 151.992 119.561 151.836C119.496 151.681 119.414 151.555 119.314 151.458C119.218 151.362 119.105 151.292 118.976 151.248C118.85 151.201 118.708 151.177 118.55 151.177C118.356 151.177 118.185 151.214 118.036 151.287C117.886 151.357 117.76 151.47 117.658 151.625C117.558 151.781 117.482 151.984 117.429 152.236C117.376 152.488 117.35 152.794 117.35 153.155V154.398C117.35 154.686 117.366 154.939 117.398 155.159C117.434 155.378 117.485 155.569 117.552 155.73C117.62 155.888 117.702 156.019 117.798 156.121C117.895 156.224 118.006 156.3 118.132 156.35C118.261 156.396 118.403 156.42 118.559 156.42C118.758 156.42 118.932 156.382 119.082 156.306C119.231 156.229 119.355 156.111 119.455 155.95C119.558 155.786 119.634 155.576 119.684 155.321C119.733 155.063 119.758 154.756 119.758 154.398Z" fill="white"/>
<path d="M121.723 156.569C121.723 156.432 121.765 156.316 121.85 156.222C121.938 156.125 122.064 156.077 122.228 156.077C122.392 156.077 122.517 156.125 122.602 156.222C122.689 156.316 122.733 156.432 122.733 156.569C122.733 156.704 122.689 156.818 122.602 156.912C122.517 157.006 122.392 157.053 122.228 157.053C122.064 157.053 121.938 157.006 121.85 156.912C121.765 156.818 121.723 156.704 121.723 156.569Z" fill="white"/>
<path d="M128.319 154.847V155.515H123.696V155.036L126.561 150.602H127.225L126.513 151.885L124.619 154.847H128.319ZM127.427 150.602V157H126.614V150.602H127.427Z" fill="white"/>
<path d="M133.381 154.847V155.515H128.758V155.036L131.624 150.602H132.287L131.575 151.885L129.681 154.847H133.381ZM132.489 150.602V157H131.676V150.602H132.489Z" fill="white"/>
<path d="M138.444 154.847V155.515H133.821V155.036L136.686 150.602H137.35L136.638 151.885L134.744 154.847H138.444ZM137.552 150.602V157H136.739V150.602H137.552Z" fill="white"/>
<path d="M143.506 154.847V155.515H138.883V155.036L141.749 150.602H142.412L141.7 151.885L139.806 154.847H143.506ZM142.614 150.602V157H141.801V150.602H142.614Z" fill="white"/>
<path d="M25.7241 169.332V170H21.5361V169.416L23.6323 167.082C23.8901 166.795 24.0894 166.552 24.23 166.353C24.3735 166.15 24.4731 165.97 24.5288 165.812C24.5874 165.651 24.6167 165.487 24.6167 165.32C24.6167 165.109 24.5728 164.918 24.4849 164.749C24.3999 164.576 24.2739 164.438 24.1069 164.335C23.9399 164.233 23.7378 164.182 23.5005 164.182C23.2163 164.182 22.979 164.237 22.7886 164.349C22.6011 164.457 22.4604 164.609 22.3667 164.806C22.2729 165.002 22.2261 165.228 22.2261 165.482H21.4131C21.4131 165.122 21.4922 164.792 21.6504 164.494C21.8086 164.195 22.043 163.958 22.3535 163.782C22.6641 163.603 23.0464 163.514 23.5005 163.514C23.9048 163.514 24.2505 163.585 24.5376 163.729C24.8247 163.87 25.0444 164.069 25.1968 164.327C25.3521 164.582 25.4297 164.88 25.4297 165.223C25.4297 165.411 25.3975 165.601 25.333 165.794C25.2715 165.985 25.1851 166.175 25.0737 166.366C24.9653 166.556 24.8379 166.744 24.6914 166.928C24.5479 167.113 24.394 167.294 24.23 167.473L22.5161 169.332H25.7241Z" fill="white"/>
<path d="M30.7866 169.332V170H26.5986V169.416L28.6948 167.082C28.9526 166.795 29.1519 166.552 29.2925 166.353C29.436 166.15 29.5356 165.97 29.5913 165.812C29.6499 165.651 29.6792 165.487 29.6792 165.32C29.6792 165.109 29.6353 164.918 29.5474 164.749C29.4624 164.576 29.3364 164.438 29.1694 164.335C29.0024 164.233 28.8003 164.182 28.563 164.182C28.2788 164.182 28.0415 164.237 27.8511 164.349C27.6636 164.457 27.5229 164.609 27.4292 164.806C27.3354 165.002 27.2886 165.228 27.2886 165.482H26.4756C26.4756 165.122 26.5547 164.792 26.7129 164.494C26.8711 164.195 27.1055 163.958 27.416 163.782C27.7266 163.603 28.1089 163.514 28.563 163.514C28.9673 163.514 29.313 163.585 29.6001 163.729C29.8872 163.87 30.1069 164.069 30.2593 164.327C30.4146 164.582 30.4922 164.88 30.4922 165.223C30.4922 165.411 30.46 165.601 30.3955 165.794C30.334 165.985 30.2476 166.175 30.1362 166.366C30.0278 166.556 29.9004 166.744 29.7539 166.928C29.6104 167.113 29.4565 167.294 29.2925 167.473L27.5786 169.332H30.7866Z" fill="white"/>
<path d="M35.8491 169.332V170H31.6611V169.416L33.7573 167.082C34.0151 166.795 34.2144 166.552 34.355 166.353C34.4985 166.15 34.5981 165.97 34.6538 165.812C34.7124 165.651 34.7417 165.487 34.7417 165.32C34.7417 165.109 34.6978 164.918 34.6099 164.749C34.5249 164.576 34.3989 164.438 34.2319 164.335C34.0649 164.233 33.8628 164.182 33.6255 164.182C33.3413 164.182 33.104 164.237 32.9136 164.349C32.7261 164.457 32.5854 164.609 32.4917 164.806C32.3979 165.002 32.3511 165.228 32.3511 165.482H31.5381C31.5381 165.122 31.6172 164.792 31.7754 164.494C31.9336 164.195 32.168 163.958 32.4785 163.782C32.7891 163.603 33.1714 163.514 33.6255 163.514C34.0298 163.514 34.3755 163.585 34.6626 163.729C34.9497 163.87 35.1694 164.069 35.3218 164.327C35.4771 164.582 35.5547 164.88 35.5547 165.223C35.5547 165.411 35.5225 165.601 35.458 165.794C35.3965 165.985 35.3101 166.175 35.1987 166.366C35.0903 166.556 34.9629 166.744 34.8164 166.928C34.6729 167.113 34.519 167.294 34.355 167.473L32.6411 169.332H35.8491Z" fill="white"/>
<path d="M36.8203 169.569C36.8203 169.432 36.8628 169.316 36.9478 169.222C37.0356 169.125 37.1616 169.077 37.3257 169.077C37.4897 169.077 37.6143 169.125 37.6992 169.222C37.7871 169.316 37.8311 169.432 37.8311 169.569C37.8311 169.704 37.7871 169.818 37.6992 169.912C37.6143 170.006 37.4897 170.053 37.3257 170.053C37.1616 170.053 37.0356 170.006 36.9478 169.912C36.8628 169.818 36.8203 169.704 36.8203 169.569Z" fill="white"/>
<path d="M43.2275 163.602V164.059L40.5776 170H39.7207L42.3662 164.27H38.9033V163.602H43.2275Z" fill="white"/>
<path d="M48.29 163.602V164.059L45.6401 170H44.7832L47.4287 164.27H43.9658V163.602H48.29Z" fill="white"/>
<path d="M49.3184 169.569C49.3184 169.432 49.3608 169.316 49.4458 169.222C49.5337 169.125 49.6597 169.077 49.8237 169.077C49.9878 169.077 50.1123 169.125 50.1973 169.222C50.2852 169.316 50.3291 169.432 50.3291 169.569C50.3291 169.704 50.2852 169.818 50.1973 169.912C50.1123 170.006 49.9878 170.053 49.8237 170.053C49.6597 170.053 49.5337 170.006 49.4458 169.912C49.3608 169.818 49.3184 169.704 49.3184 169.569Z" fill="white"/>
<path d="M55.7256 163.602V164.059L53.0757 170H52.2188L54.8643 164.27H51.4014V163.602H55.7256Z" fill="white"/>
<path d="M60.6694 166.291V167.267C60.6694 167.791 60.6226 168.233 60.5288 168.594C60.4351 168.954 60.3003 169.244 60.1245 169.464C59.9487 169.684 59.7363 169.843 59.4873 169.943C59.2412 170.04 58.9629 170.088 58.6523 170.088C58.4062 170.088 58.1792 170.057 57.9712 169.996C57.7632 169.934 57.5757 169.836 57.4087 169.701C57.2446 169.563 57.104 169.385 56.9868 169.165C56.8696 168.945 56.7803 168.679 56.7188 168.365C56.6572 168.052 56.6265 167.686 56.6265 167.267V166.291C56.6265 165.767 56.6733 165.327 56.7671 164.973C56.8638 164.618 57 164.334 57.1758 164.12C57.3516 163.903 57.5625 163.748 57.8086 163.654C58.0576 163.561 58.3359 163.514 58.6436 163.514C58.8926 163.514 59.1211 163.544 59.3291 163.606C59.54 163.665 59.7275 163.76 59.8916 163.892C60.0557 164.021 60.1948 164.193 60.3091 164.41C60.4263 164.624 60.5156 164.886 60.5771 165.197C60.6387 165.507 60.6694 165.872 60.6694 166.291ZM59.8521 167.398V166.155C59.8521 165.868 59.8345 165.616 59.7993 165.399C59.7671 165.179 59.7188 164.992 59.6543 164.836C59.5898 164.681 59.5078 164.555 59.4082 164.458C59.3115 164.362 59.1987 164.292 59.0698 164.248C58.9438 164.201 58.8018 164.177 58.6436 164.177C58.4502 164.177 58.2788 164.214 58.1294 164.287C57.98 164.357 57.854 164.47 57.7515 164.625C57.6519 164.781 57.5757 164.984 57.5229 165.236C57.4702 165.488 57.4438 165.794 57.4438 166.155V167.398C57.4438 167.686 57.46 167.939 57.4922 168.159C57.5273 168.378 57.5786 168.569 57.646 168.73C57.7134 168.888 57.7954 169.019 57.8921 169.121C57.9888 169.224 58.1001 169.3 58.2261 169.35C58.355 169.396 58.4971 169.42 58.6523 169.42C58.8516 169.42 59.0259 169.382 59.1753 169.306C59.3247 169.229 59.4492 169.111 59.5488 168.95C59.6514 168.786 59.7275 168.576 59.7773 168.321C59.8271 168.063 59.8521 167.756 59.8521 167.398Z" fill="white"/>
<path d="M65.7319 166.291V167.267C65.7319 167.791 65.6851 168.233 65.5913 168.594C65.4976 168.954 65.3628 169.244 65.187 169.464C65.0112 169.684 64.7988 169.843 64.5498 169.943C64.3037 170.04 64.0254 170.088 63.7148 170.088C63.4688 170.088 63.2417 170.057 63.0337 169.996C62.8257 169.934 62.6382 169.836 62.4712 169.701C62.3071 169.563 62.1665 169.385 62.0493 169.165C61.9321 168.945 61.8428 168.679 61.7812 168.365C61.7197 168.052 61.689 167.686 61.689 167.267V166.291C61.689 165.767 61.7358 165.327 61.8296 164.973C61.9263 164.618 62.0625 164.334 62.2383 164.12C62.4141 163.903 62.625 163.748 62.8711 163.654C63.1201 163.561 63.3984 163.514 63.7061 163.514C63.9551 163.514 64.1836 163.544 64.3916 163.606C64.6025 163.665 64.79 163.76 64.9541 163.892C65.1182 164.021 65.2573 164.193 65.3716 164.41C65.4888 164.624 65.5781 164.886 65.6396 165.197C65.7012 165.507 65.7319 165.872 65.7319 166.291ZM64.9146 167.398V166.155C64.9146 165.868 64.897 165.616 64.8618 165.399C64.8296 165.179 64.7812 164.992 64.7168 164.836C64.6523 164.681 64.5703 164.555 64.4707 164.458C64.374 164.362 64.2612 164.292 64.1323 164.248C64.0063 164.201 63.8643 164.177 63.7061 164.177C63.5127 164.177 63.3413 164.214 63.1919 164.287C63.0425 164.357 62.9165 164.47 62.814 164.625C62.7144 164.781 62.6382 164.984 62.5854 165.236C62.5327 165.488 62.5063 165.794 62.5063 166.155V167.398C62.5063 167.686 62.5225 167.939 62.5547 168.159C62.5898 168.378 62.6411 168.569 62.7085 168.73C62.7759 168.888 62.8579 169.019 62.9546 169.121C63.0513 169.224 63.1626 169.3 63.2886 169.35C63.4175 169.396 63.5596 169.42 63.7148 169.42C63.9141 169.42 64.0884 169.382 64.2378 169.306C64.3872 169.229 64.5117 169.111 64.6113 168.95C64.7139 168.786 64.79 168.576 64.8398 168.321C64.8896 168.063 64.9146 167.756 64.9146 167.398Z" fill="white"/>
<path d="M66.8789 169.569C66.8789 169.432 66.9214 169.316 67.0063 169.222C67.0942 169.125 67.2202 169.077 67.3843 169.077C67.5483 169.077 67.6729 169.125 67.7578 169.222C67.8457 169.316 67.8896 169.432 67.8896 169.569C67.8896 169.704 67.8457 169.818 67.7578 169.912C67.6729 170.006 67.5483 170.053 67.3843 170.053C67.2202 170.053 67.0942 170.006 67.0063 169.912C66.9214 169.818 66.8789 169.704 66.8789 169.569Z" fill="white"/>
<path d="M73.4751 167.847V168.515H68.8521V168.036L71.7173 163.602H72.3809L71.6689 164.885L69.7749 167.847H73.4751ZM72.583 163.602V170H71.77V163.602H72.583Z" fill="white"/>
<path d="M78.5376 167.847V168.515H73.9146V168.036L76.7798 163.602H77.4434L76.7314 164.885L74.8374 167.847H78.5376ZM77.6455 163.602V170H76.8325V163.602H77.6455Z" fill="white"/>
<path d="M83.6001 167.847V168.515H78.9771V168.036L81.8423 163.602H82.5059L81.7939 164.885L79.8999 167.847H83.6001ZM82.708 163.602V170H81.895V163.602H82.708Z" fill="white"/>
<path d="M255.617 156.077V150.25H256.434V157H255.687L255.617 156.077ZM252.417 154.675V154.583C252.417 154.22 252.461 153.89 252.549 153.594C252.64 153.295 252.768 153.039 252.932 152.825C253.099 152.611 253.296 152.447 253.525 152.333C253.756 152.216 254.014 152.157 254.298 152.157C254.597 152.157 254.858 152.21 255.081 152.315C255.306 152.418 255.497 152.569 255.652 152.768C255.81 152.964 255.935 153.202 256.025 153.48C256.116 153.758 256.179 154.073 256.214 154.425V154.829C256.182 155.178 256.119 155.491 256.025 155.77C255.935 156.048 255.81 156.285 255.652 156.481C255.497 156.678 255.306 156.829 255.081 156.934C254.855 157.037 254.591 157.088 254.29 157.088C254.011 157.088 253.756 157.028 253.525 156.908C253.296 156.788 253.099 156.619 252.932 156.402C252.768 156.186 252.64 155.931 252.549 155.638C252.461 155.342 252.417 155.021 252.417 154.675ZM253.235 154.583V154.675C253.235 154.913 253.258 155.135 253.305 155.343C253.355 155.551 253.431 155.734 253.534 155.893C253.636 156.051 253.767 156.175 253.925 156.266C254.083 156.354 254.272 156.398 254.492 156.398C254.761 156.398 254.982 156.341 255.155 156.227C255.331 156.112 255.472 155.961 255.577 155.774C255.683 155.586 255.765 155.383 255.823 155.163V154.104C255.788 153.943 255.737 153.788 255.669 153.638C255.605 153.486 255.52 153.351 255.415 153.234C255.312 153.114 255.185 153.019 255.032 152.948C254.883 152.878 254.706 152.843 254.5 152.843C254.278 152.843 254.086 152.89 253.925 152.983C253.767 153.074 253.636 153.2 253.534 153.361C253.431 153.52 253.355 153.704 253.305 153.915C253.258 154.123 253.235 154.346 253.235 154.583Z" fill="white"/>
<path d="M260.503 156.187V153.739C260.503 153.552 260.465 153.389 260.389 153.251C260.316 153.111 260.205 153.002 260.055 152.926C259.906 152.85 259.721 152.812 259.501 152.812C259.296 152.812 259.116 152.847 258.961 152.917C258.809 152.988 258.688 153.08 258.601 153.194C258.516 153.309 258.473 153.432 258.473 153.563H257.66C257.66 153.394 257.704 153.225 257.792 153.058C257.88 152.891 258.006 152.74 258.17 152.605C258.337 152.468 258.536 152.359 258.768 152.28C259.002 152.198 259.263 152.157 259.55 152.157C259.896 152.157 260.2 152.216 260.464 152.333C260.73 152.45 260.938 152.627 261.088 152.865C261.24 153.099 261.316 153.394 261.316 153.748V155.963C261.316 156.121 261.33 156.29 261.356 156.468C261.385 156.647 261.428 156.801 261.483 156.93V157H260.635C260.594 156.906 260.562 156.782 260.539 156.626C260.515 156.468 260.503 156.322 260.503 156.187ZM260.644 154.117L260.653 154.688H259.831C259.6 154.688 259.393 154.708 259.211 154.746C259.03 154.781 258.877 154.835 258.754 154.908C258.631 154.981 258.538 155.074 258.473 155.185C258.409 155.293 258.376 155.421 258.376 155.567C258.376 155.717 258.41 155.853 258.478 155.976C258.545 156.099 258.646 156.197 258.781 156.271C258.918 156.341 259.087 156.376 259.286 156.376C259.535 156.376 259.755 156.323 259.945 156.218C260.136 156.112 260.287 155.983 260.398 155.831C260.512 155.679 260.574 155.531 260.583 155.387L260.93 155.778C260.909 155.901 260.854 156.038 260.763 156.187C260.672 156.336 260.55 156.48 260.398 156.618C260.249 156.752 260.07 156.865 259.862 156.956C259.657 157.044 259.425 157.088 259.167 157.088C258.845 157.088 258.562 157.025 258.319 156.899C258.079 156.773 257.892 156.604 257.757 156.394C257.625 156.18 257.559 155.941 257.559 155.677C257.559 155.422 257.609 155.198 257.708 155.005C257.808 154.809 257.952 154.646 258.139 154.517C258.327 154.385 258.552 154.286 258.816 154.218C259.08 154.151 259.374 154.117 259.699 154.117H260.644Z" fill="white"/>
<path d="M263.971 156.266L265.271 152.245H266.102L264.393 157H263.848L263.971 156.266ZM262.885 152.245L264.226 156.288L264.318 157H263.773L262.05 152.245H262.885Z" fill="white"/>
<path d="M269.618 156.187V153.739C269.618 153.552 269.58 153.389 269.503 153.251C269.43 153.111 269.319 153.002 269.169 152.926C269.02 152.85 268.835 152.812 268.616 152.812C268.411 152.812 268.23 152.847 268.075 152.917C267.923 152.988 267.803 153.08 267.715 153.194C267.63 153.309 267.587 153.432 267.587 153.563H266.774C266.774 153.394 266.818 153.225 266.906 153.058C266.994 152.891 267.12 152.74 267.284 152.605C267.451 152.468 267.65 152.359 267.882 152.28C268.116 152.198 268.377 152.157 268.664 152.157C269.01 152.157 269.314 152.216 269.578 152.333C269.845 152.45 270.053 152.627 270.202 152.865C270.354 153.099 270.431 153.394 270.431 153.748V155.963C270.431 156.121 270.444 156.29 270.47 156.468C270.5 156.647 270.542 156.801 270.598 156.93V157H269.75C269.708 156.906 269.676 156.782 269.653 156.626C269.629 156.468 269.618 156.322 269.618 156.187ZM269.758 154.117L269.767 154.688H268.945C268.714 154.688 268.507 154.708 268.326 154.746C268.144 154.781 267.992 154.835 267.869 154.908C267.746 154.981 267.652 155.074 267.587 155.185C267.523 155.293 267.491 155.421 267.491 155.567C267.491 155.717 267.524 155.853 267.592 155.976C267.659 156.099 267.76 156.197 267.895 156.271C268.033 156.341 268.201 156.376 268.4 156.376C268.649 156.376 268.869 156.323 269.06 156.218C269.25 156.112 269.401 155.983 269.512 155.831C269.626 155.679 269.688 155.531 269.697 155.387L270.044 155.778C270.023 155.901 269.968 156.038 269.877 156.187C269.786 156.336 269.665 156.48 269.512 156.618C269.363 156.752 269.184 156.865 268.976 156.956C268.771 157.044 268.54 157.088 268.282 157.088C267.959 157.088 267.677 157.025 267.434 156.899C267.193 156.773 267.006 156.604 266.871 156.394C266.739 156.18 266.673 155.941 266.673 155.677C266.673 155.422 266.723 155.198 266.823 155.005C266.922 154.809 267.066 154.646 267.253 154.517C267.441 154.385 267.667 154.286 267.93 154.218C268.194 154.151 268.488 154.117 268.813 154.117H269.758Z" fill="white"/>
<path d="M272.522 152.992V157H271.709V152.245H272.5L272.522 152.992ZM274.008 152.219L274.003 152.975C273.936 152.96 273.872 152.951 273.81 152.948C273.751 152.942 273.684 152.939 273.608 152.939C273.42 152.939 273.255 152.969 273.111 153.027C272.968 153.086 272.846 153.168 272.747 153.273C272.647 153.379 272.568 153.505 272.509 153.651C272.454 153.795 272.417 153.953 272.399 154.126L272.171 154.258C272.171 153.971 272.199 153.701 272.254 153.449C272.313 153.197 272.402 152.975 272.522 152.781C272.643 152.585 272.795 152.433 272.979 152.324C273.167 152.213 273.39 152.157 273.647 152.157C273.706 152.157 273.773 152.165 273.85 152.179C273.926 152.191 273.979 152.204 274.008 152.219Z" fill="white"/>
<path d="M281.769 154.79C281.757 155.059 281.716 155.33 281.646 155.603C281.575 155.872 281.47 156.12 281.329 156.345C281.188 156.571 281.005 156.752 280.78 156.89C280.557 157.025 280.288 157.092 279.971 157.092C279.769 157.092 279.592 157.057 279.439 156.987C279.29 156.914 279.167 156.81 279.07 156.675C278.977 156.54 278.911 156.377 278.873 156.187C278.837 155.997 278.832 155.784 278.855 155.55L279.079 153.115H279.725L279.501 155.55C279.483 155.764 279.488 155.938 279.514 156.073C279.543 156.208 279.587 156.312 279.646 156.385C279.705 156.455 279.771 156.503 279.844 156.53C279.92 156.556 279.993 156.569 280.063 156.569C280.239 156.569 280.396 156.524 280.534 156.433C280.671 156.339 280.787 156.212 280.881 156.051C280.978 155.887 281.052 155.698 281.105 155.484C281.158 155.267 281.19 155.036 281.202 154.79C281.222 154.353 281.202 153.952 281.14 153.585C281.082 153.219 280.98 152.894 280.837 152.61C280.696 152.326 280.512 152.085 280.283 151.889C280.055 151.693 279.782 151.543 279.466 151.441C279.149 151.338 278.788 151.287 278.38 151.287C278.011 151.287 277.67 151.344 277.356 151.458C277.046 151.57 276.766 151.731 276.517 151.942C276.271 152.153 276.059 152.406 275.88 152.702C275.704 152.998 275.565 153.332 275.462 153.704C275.363 154.073 275.304 154.472 275.287 154.899C275.266 155.339 275.29 155.743 275.357 156.112C275.424 156.479 275.533 156.805 275.682 157.092C275.834 157.382 276.026 157.627 276.258 157.826C276.489 158.028 276.757 158.181 277.062 158.283C277.367 158.389 277.707 158.441 278.082 158.441C278.339 158.441 278.6 158.411 278.864 158.349C279.13 158.288 279.353 158.204 279.532 158.099L279.699 158.6C279.494 158.731 279.237 158.83 278.93 158.894C278.625 158.958 278.336 158.991 278.064 158.991C277.619 158.991 277.211 158.929 276.842 158.806C276.476 158.686 276.151 158.509 275.867 158.274C275.585 158.043 275.351 157.76 275.164 157.426C274.976 157.095 274.838 156.717 274.75 156.292C274.663 155.868 274.629 155.403 274.649 154.899C274.67 154.419 274.742 153.966 274.865 153.542C274.991 153.117 275.162 152.731 275.379 152.386C275.596 152.04 275.854 151.743 276.152 151.494C276.454 151.242 276.792 151.048 277.167 150.914C277.545 150.779 277.956 150.711 278.398 150.711C278.849 150.711 279.258 150.773 279.624 150.896C279.99 151.019 280.311 151.196 280.586 151.428C280.865 151.659 281.095 151.942 281.276 152.276C281.458 152.61 281.59 152.988 281.672 153.41C281.757 153.832 281.789 154.292 281.769 154.79ZM277.255 155.163C277.235 155.368 277.235 155.551 277.255 155.712C277.276 155.874 277.315 156.01 277.374 156.121C277.433 156.232 277.509 156.317 277.603 156.376C277.699 156.432 277.812 156.459 277.941 156.459C278.026 156.459 278.115 156.439 278.209 156.398C278.303 156.354 278.395 156.287 278.486 156.196C278.577 156.105 278.662 155.986 278.741 155.84C278.82 155.693 278.886 155.518 278.938 155.312L279.229 155.629C279.161 155.869 279.073 156.08 278.965 156.262C278.859 156.443 278.741 156.596 278.609 156.719C278.477 156.842 278.336 156.936 278.187 157C278.041 157.062 277.891 157.092 277.739 157.092C277.525 157.092 277.337 157.047 277.176 156.956C277.015 156.862 276.885 156.73 276.785 156.561C276.686 156.391 276.615 156.188 276.574 155.954C276.536 155.717 276.53 155.453 276.557 155.163C276.583 154.855 276.637 154.571 276.719 154.311C276.801 154.05 276.902 153.817 277.022 153.612C277.146 153.407 277.283 153.232 277.436 153.089C277.591 152.945 277.755 152.837 277.928 152.764C278.101 152.688 278.278 152.649 278.459 152.649C278.776 152.649 279.025 152.696 279.207 152.79C279.388 152.881 279.561 152.989 279.725 153.115L279.352 153.55C279.267 153.468 279.155 153.392 279.018 153.322C278.88 153.251 278.717 153.216 278.53 153.216C278.369 153.216 278.218 153.257 278.077 153.339C277.937 153.421 277.809 153.544 277.695 153.708C277.583 153.873 277.49 154.076 277.414 154.319C277.337 154.56 277.285 154.841 277.255 155.163Z" fill="white"/>
<path d="M283.658 152.992V157H282.845V152.245H283.636L283.658 152.992ZM285.144 152.219L285.139 152.975C285.072 152.96 285.007 152.951 284.946 152.948C284.887 152.942 284.82 152.939 284.744 152.939C284.556 152.939 284.391 152.969 284.247 153.027C284.104 153.086 283.982 153.168 283.882 153.273C283.783 153.379 283.704 153.505 283.645 153.651C283.589 153.795 283.553 153.953 283.535 154.126L283.307 154.258C283.307 153.971 283.334 153.701 283.39 153.449C283.449 153.197 283.538 152.975 283.658 152.781C283.778 152.585 283.931 152.433 284.115 152.324C284.303 152.213 284.525 152.157 284.783 152.157C284.842 152.157 284.909 152.165 284.985 152.179C285.062 152.191 285.114 152.204 285.144 152.219Z" fill="white"/>
<path d="M288.523 156.187V153.739C288.523 153.552 288.485 153.389 288.409 153.251C288.335 153.111 288.224 153.002 288.075 152.926C287.925 152.85 287.741 152.812 287.521 152.812C287.316 152.812 287.136 152.847 286.98 152.917C286.828 152.988 286.708 153.08 286.62 153.194C286.535 153.309 286.493 153.432 286.493 153.563H285.68C285.68 153.394 285.724 153.225 285.812 153.058C285.899 152.891 286.025 152.74 286.189 152.605C286.356 152.468 286.556 152.359 286.787 152.28C287.021 152.198 287.282 152.157 287.569 152.157C287.915 152.157 288.22 152.216 288.483 152.333C288.75 152.45 288.958 152.627 289.107 152.865C289.26 153.099 289.336 153.394 289.336 153.748V155.963C289.336 156.121 289.349 156.29 289.375 156.468C289.405 156.647 289.447 156.801 289.503 156.93V157H288.655C288.614 156.906 288.582 156.782 288.558 156.626C288.535 156.468 288.523 156.322 288.523 156.187ZM288.664 154.117L288.672 154.688H287.851C287.619 154.688 287.413 154.708 287.231 154.746C287.049 154.781 286.897 154.835 286.774 154.908C286.651 154.981 286.557 155.074 286.493 155.185C286.428 155.293 286.396 155.421 286.396 155.567C286.396 155.717 286.43 155.853 286.497 155.976C286.564 156.099 286.666 156.197 286.8 156.271C286.938 156.341 287.106 156.376 287.306 156.376C287.555 156.376 287.774 156.323 287.965 156.218C288.155 156.112 288.306 155.983 288.417 155.831C288.532 155.679 288.593 155.531 288.602 155.387L288.949 155.778C288.929 155.901 288.873 156.038 288.782 156.187C288.691 156.336 288.57 156.48 288.417 156.618C288.268 156.752 288.089 156.865 287.881 156.956C287.676 157.044 287.445 157.088 287.187 157.088C286.865 157.088 286.582 157.025 286.339 156.899C286.099 156.773 285.911 156.604 285.776 156.394C285.645 156.18 285.579 155.941 285.579 155.677C285.579 155.422 285.628 155.198 285.728 155.005C285.828 154.809 285.971 154.646 286.159 154.517C286.346 154.385 286.572 154.286 286.835 154.218C287.099 154.151 287.394 154.117 287.719 154.117H288.664Z" fill="white"/>
<path d="M293.383 155.739C293.383 155.622 293.357 155.513 293.304 155.414C293.254 155.311 293.15 155.219 292.992 155.137C292.837 155.052 292.603 154.979 292.289 154.917C292.025 154.861 291.787 154.795 291.573 154.719C291.362 154.643 291.182 154.551 291.032 154.442C290.886 154.334 290.773 154.207 290.694 154.06C290.615 153.914 290.575 153.742 290.575 153.546C290.575 153.358 290.616 153.181 290.698 153.014C290.783 152.847 290.902 152.699 291.054 152.57C291.209 152.441 291.396 152.34 291.612 152.267C291.829 152.194 292.071 152.157 292.337 152.157C292.718 152.157 293.043 152.225 293.313 152.359C293.583 152.494 293.789 152.674 293.933 152.9C294.076 153.123 294.148 153.37 294.148 153.643H293.335C293.335 153.511 293.295 153.383 293.216 153.26C293.14 153.134 293.027 153.03 292.878 152.948C292.731 152.866 292.551 152.825 292.337 152.825C292.112 152.825 291.929 152.86 291.788 152.931C291.65 152.998 291.549 153.084 291.485 153.19C291.423 153.295 291.393 153.407 291.393 153.524C291.393 153.612 291.407 153.691 291.437 153.761C291.469 153.829 291.524 153.892 291.604 153.95C291.683 154.006 291.794 154.059 291.938 154.108C292.081 154.158 292.264 154.208 292.487 154.258C292.876 154.346 293.197 154.451 293.449 154.574C293.701 154.697 293.889 154.848 294.012 155.027C294.135 155.206 294.196 155.422 294.196 155.677C294.196 155.885 294.152 156.076 294.064 156.249C293.979 156.421 293.855 156.571 293.691 156.697C293.53 156.82 293.336 156.917 293.111 156.987C292.888 157.054 292.638 157.088 292.359 157.088C291.94 157.088 291.586 157.013 291.296 156.864C291.006 156.714 290.786 156.521 290.637 156.284C290.487 156.046 290.413 155.796 290.413 155.532H291.23C291.242 155.755 291.306 155.932 291.423 156.064C291.541 156.193 291.684 156.285 291.854 156.341C292.024 156.394 292.192 156.42 292.359 156.42C292.582 156.42 292.768 156.391 292.917 156.332C293.07 156.273 293.186 156.193 293.265 156.09C293.344 155.988 293.383 155.871 293.383 155.739Z" fill="white"/>
<path d="M298.068 156.187V153.739C298.068 153.552 298.03 153.389 297.954 153.251C297.88 153.111 297.769 153.002 297.62 152.926C297.47 152.85 297.286 152.812 297.066 152.812C296.861 152.812 296.681 152.847 296.525 152.917C296.373 152.988 296.253 153.08 296.165 153.194C296.08 153.309 296.038 153.432 296.038 153.563H295.225C295.225 153.394 295.269 153.225 295.356 153.058C295.444 152.891 295.57 152.74 295.734 152.605C295.901 152.468 296.101 152.359 296.332 152.28C296.566 152.198 296.827 152.157 297.114 152.157C297.46 152.157 297.765 152.216 298.028 152.333C298.295 152.45 298.503 152.627 298.652 152.865C298.805 153.099 298.881 153.394 298.881 153.748V155.963C298.881 156.121 298.894 156.29 298.92 156.468C298.95 156.647 298.992 156.801 299.048 156.93V157H298.2C298.159 156.906 298.126 156.782 298.103 156.626C298.08 156.468 298.068 156.322 298.068 156.187ZM298.208 154.117L298.217 154.688H297.396C297.164 154.688 296.958 154.708 296.776 154.746C296.594 154.781 296.442 154.835 296.319 154.908C296.196 154.981 296.102 155.074 296.038 155.185C295.973 155.293 295.941 155.421 295.941 155.567C295.941 155.717 295.975 155.853 296.042 155.976C296.109 156.099 296.21 156.197 296.345 156.271C296.483 156.341 296.651 156.376 296.851 156.376C297.1 156.376 297.319 156.323 297.51 156.218C297.7 156.112 297.851 155.983 297.962 155.831C298.077 155.679 298.138 155.531 298.147 155.387L298.494 155.778C298.474 155.901 298.418 156.038 298.327 156.187C298.236 156.336 298.115 156.48 297.962 156.618C297.813 156.752 297.634 156.865 297.426 156.956C297.221 157.044 296.99 157.088 296.732 157.088C296.41 157.088 296.127 157.025 295.884 156.899C295.644 156.773 295.456 156.604 295.321 156.394C295.189 156.18 295.124 155.941 295.124 155.677C295.124 155.422 295.173 155.198 295.273 155.005C295.373 154.809 295.516 154.646 295.704 154.517C295.891 154.385 296.117 154.286 296.38 154.218C296.644 154.151 296.938 154.117 297.264 154.117H298.208Z" fill="white"/>
<path d="M300.155 150.25H300.973V156.077L300.902 157H300.155V150.25ZM304.185 154.583V154.675C304.185 155.021 304.144 155.342 304.062 155.638C303.98 155.931 303.86 156.186 303.702 156.402C303.543 156.619 303.35 156.788 303.122 156.908C302.893 157.028 302.631 157.088 302.335 157.088C302.033 157.088 301.768 157.037 301.54 156.934C301.314 156.829 301.124 156.678 300.968 156.481C300.813 156.285 300.688 156.048 300.595 155.77C300.504 155.491 300.441 155.178 300.406 154.829V154.425C300.441 154.073 300.504 153.758 300.595 153.48C300.688 153.202 300.813 152.964 300.968 152.768C301.124 152.569 301.314 152.418 301.54 152.315C301.765 152.21 302.027 152.157 302.326 152.157C302.625 152.157 302.89 152.216 303.122 152.333C303.353 152.447 303.546 152.611 303.702 152.825C303.86 153.039 303.98 153.295 304.062 153.594C304.144 153.89 304.185 154.22 304.185 154.583ZM303.368 154.675V154.583C303.368 154.346 303.346 154.123 303.302 153.915C303.258 153.704 303.188 153.52 303.091 153.361C302.994 153.2 302.867 153.074 302.708 152.983C302.55 152.89 302.355 152.843 302.124 152.843C301.919 152.843 301.74 152.878 301.588 152.948C301.438 153.019 301.311 153.114 301.206 153.234C301.1 153.351 301.014 153.486 300.946 153.638C300.882 153.788 300.833 153.943 300.801 154.104V155.163C300.848 155.368 300.924 155.566 301.03 155.756C301.138 155.944 301.282 156.098 301.46 156.218C301.642 156.338 301.866 156.398 302.133 156.398C302.353 156.398 302.54 156.354 302.695 156.266C302.854 156.175 302.981 156.051 303.078 155.893C303.177 155.734 303.25 155.551 303.297 155.343C303.344 155.135 303.368 154.913 303.368 154.675Z" fill="white"/>
<path d="M305.227 156.569C305.227 156.432 305.269 156.316 305.354 156.222C305.442 156.125 305.568 156.077 305.732 156.077C305.896 156.077 306.021 156.125 306.105 156.222C306.193 156.316 306.237 156.432 306.237 156.569C306.237 156.704 306.193 156.818 306.105 156.912C306.021 157.006 305.896 157.053 305.732 157.053C305.568 157.053 305.442 157.006 305.354 156.912C305.269 156.818 305.227 156.704 305.227 156.569Z" fill="white"/>
<path d="M308.47 152.245V157H307.652V152.245H308.47ZM307.591 150.984C307.591 150.852 307.63 150.741 307.709 150.65C307.792 150.559 307.912 150.514 308.07 150.514C308.225 150.514 308.344 150.559 308.426 150.65C308.511 150.741 308.553 150.852 308.553 150.984C308.553 151.11 308.511 151.218 308.426 151.309C308.344 151.397 308.225 151.441 308.07 151.441C307.912 151.441 307.792 151.397 307.709 151.309C307.63 151.218 307.591 151.11 307.591 150.984Z" fill="white"/>
<path d="M309.56 154.675V154.574C309.56 154.231 309.609 153.914 309.709 153.621C309.809 153.325 309.952 153.068 310.14 152.852C310.327 152.632 310.554 152.462 310.821 152.342C311.087 152.219 311.386 152.157 311.717 152.157C312.051 152.157 312.352 152.219 312.618 152.342C312.888 152.462 313.116 152.632 313.304 152.852C313.494 153.068 313.639 153.325 313.739 153.621C313.838 153.914 313.888 154.231 313.888 154.574V154.675C313.888 155.018 313.838 155.336 313.739 155.629C313.639 155.922 313.494 156.178 313.304 156.398C313.116 156.615 312.889 156.785 312.623 156.908C312.359 157.028 312.06 157.088 311.726 157.088C311.392 157.088 311.092 157.028 310.825 156.908C310.559 156.785 310.33 156.615 310.14 156.398C309.952 156.178 309.809 155.922 309.709 155.629C309.609 155.336 309.56 155.018 309.56 154.675ZM310.373 154.574V154.675C310.373 154.913 310.4 155.137 310.456 155.348C310.512 155.556 310.595 155.74 310.707 155.901C310.821 156.062 310.963 156.19 311.133 156.284C311.303 156.375 311.5 156.42 311.726 156.42C311.949 156.42 312.144 156.375 312.311 156.284C312.48 156.19 312.621 156.062 312.732 155.901C312.844 155.74 312.927 155.556 312.983 155.348C313.042 155.137 313.071 154.913 313.071 154.675V154.574C313.071 154.34 313.042 154.119 312.983 153.911C312.927 153.7 312.842 153.514 312.728 153.353C312.617 153.188 312.476 153.06 312.306 152.966C312.139 152.872 311.943 152.825 311.717 152.825C311.495 152.825 311.298 152.872 311.128 152.966C310.961 153.06 310.821 153.188 310.707 153.353C310.595 153.514 310.512 153.7 310.456 153.911C310.4 154.119 310.373 154.34 310.373 154.574Z" fill="white"/>
<path d="M253.433 163.992V168H252.62V163.245H253.411L253.433 163.992ZM254.918 163.219L254.914 163.975C254.846 163.96 254.782 163.951 254.72 163.948C254.662 163.942 254.594 163.939 254.518 163.939C254.331 163.939 254.165 163.969 254.021 164.027C253.878 164.086 253.756 164.168 253.657 164.273C253.557 164.379 253.478 164.505 253.419 164.651C253.364 164.795 253.327 164.953 253.31 165.126L253.081 165.258C253.081 164.971 253.109 164.701 253.165 164.449C253.223 164.197 253.312 163.975 253.433 163.781C253.553 163.585 253.705 163.433 253.89 163.324C254.077 163.213 254.3 163.157 254.558 163.157C254.616 163.157 254.684 163.165 254.76 163.179C254.836 163.191 254.889 163.204 254.918 163.219Z" fill="white"/>
<path d="M258.297 167.187V164.739C258.297 164.552 258.259 164.389 258.183 164.251C258.11 164.111 257.999 164.002 257.849 163.926C257.7 163.85 257.515 163.812 257.295 163.812C257.09 163.812 256.91 163.847 256.755 163.917C256.603 163.988 256.482 164.08 256.395 164.194C256.31 164.309 256.267 164.432 256.267 164.563H255.454C255.454 164.394 255.498 164.225 255.586 164.058C255.674 163.891 255.8 163.74 255.964 163.605C256.131 163.468 256.33 163.359 256.562 163.28C256.796 163.198 257.057 163.157 257.344 163.157C257.689 163.157 257.994 163.216 258.258 163.333C258.524 163.45 258.732 163.627 258.882 163.865C259.034 164.099 259.11 164.394 259.11 164.748V166.963C259.11 167.121 259.124 167.29 259.15 167.468C259.179 167.647 259.222 167.801 259.277 167.93V168H258.429C258.388 167.906 258.356 167.782 258.333 167.626C258.309 167.468 258.297 167.322 258.297 167.187ZM258.438 165.117L258.447 165.688H257.625C257.394 165.688 257.187 165.708 257.005 165.746C256.824 165.781 256.671 165.835 256.548 165.908C256.425 165.981 256.332 166.074 256.267 166.185C256.203 166.293 256.17 166.421 256.17 166.567C256.17 166.717 256.204 166.853 256.271 166.976C256.339 167.099 256.44 167.197 256.575 167.271C256.712 167.341 256.881 167.376 257.08 167.376C257.329 167.376 257.549 167.323 257.739 167.218C257.93 167.112 258.081 166.983 258.192 166.831C258.306 166.679 258.368 166.531 258.376 166.387L258.724 166.778C258.703 166.901 258.647 167.038 258.557 167.187C258.466 167.336 258.344 167.48 258.192 167.618C258.042 167.752 257.864 167.865 257.656 167.956C257.451 168.044 257.219 168.088 256.961 168.088C256.639 168.088 256.356 168.025 256.113 167.899C255.873 167.773 255.686 167.604 255.551 167.394C255.419 167.18 255.353 166.941 255.353 166.677C255.353 166.422 255.403 166.198 255.502 166.005C255.602 165.809 255.746 165.646 255.933 165.517C256.121 165.385 256.346 165.286 256.61 165.218C256.874 165.151 257.168 165.117 257.493 165.117H258.438Z" fill="white"/>
<path d="M263.158 166.739C263.158 166.622 263.131 166.513 263.079 166.414C263.029 166.311 262.925 166.219 262.767 166.137C262.611 166.052 262.377 165.979 262.063 165.917C261.8 165.861 261.561 165.795 261.347 165.719C261.136 165.643 260.956 165.551 260.807 165.442C260.66 165.334 260.547 165.207 260.468 165.06C260.389 164.914 260.35 164.742 260.35 164.546C260.35 164.358 260.391 164.181 260.473 164.014C260.558 163.847 260.676 163.699 260.829 163.57C260.984 163.441 261.17 163.34 261.387 163.267C261.604 163.194 261.845 163.157 262.112 163.157C262.493 163.157 262.818 163.225 263.087 163.359C263.357 163.494 263.563 163.674 263.707 163.9C263.851 164.123 263.922 164.37 263.922 164.643H263.109C263.109 164.511 263.07 164.383 262.991 164.26C262.915 164.134 262.802 164.03 262.652 163.948C262.506 163.866 262.326 163.825 262.112 163.825C261.886 163.825 261.703 163.86 261.562 163.931C261.425 163.998 261.324 164.084 261.259 164.19C261.198 164.295 261.167 164.407 261.167 164.524C261.167 164.612 261.182 164.691 261.211 164.761C261.243 164.829 261.299 164.892 261.378 164.95C261.457 165.006 261.568 165.059 261.712 165.108C261.855 165.158 262.039 165.208 262.261 165.258C262.651 165.346 262.972 165.451 263.224 165.574C263.476 165.697 263.663 165.848 263.786 166.027C263.909 166.206 263.971 166.422 263.971 166.677C263.971 166.885 263.927 167.076 263.839 167.249C263.754 167.421 263.629 167.571 263.465 167.697C263.304 167.82 263.111 167.917 262.885 167.987C262.663 168.054 262.412 168.088 262.134 168.088C261.715 168.088 261.36 168.013 261.07 167.864C260.78 167.714 260.561 167.521 260.411 167.284C260.262 167.046 260.187 166.796 260.187 166.532H261.004C261.016 166.755 261.081 166.932 261.198 167.064C261.315 167.193 261.458 167.285 261.628 167.341C261.798 167.394 261.967 167.42 262.134 167.42C262.356 167.42 262.542 167.391 262.692 167.332C262.844 167.273 262.96 167.193 263.039 167.09C263.118 166.988 263.158 166.871 263.158 166.739Z" fill="white"/>
<path d="M267.842 167.187V164.739C267.842 164.552 267.804 164.389 267.728 164.251C267.655 164.111 267.543 164.002 267.394 163.926C267.245 163.85 267.06 163.812 266.84 163.812C266.635 163.812 266.455 163.847 266.3 163.917C266.147 163.988 266.027 164.08 265.939 164.194C265.854 164.309 265.812 164.432 265.812 164.563H264.999C264.999 164.394 265.043 164.225 265.131 164.058C265.219 163.891 265.345 163.74 265.509 163.605C265.676 163.468 265.875 163.359 266.106 163.28C266.341 163.198 266.602 163.157 266.889 163.157C267.234 163.157 267.539 163.216 267.803 163.333C268.069 163.45 268.277 163.627 268.427 163.865C268.579 164.099 268.655 164.394 268.655 164.748V166.963C268.655 167.121 268.668 167.29 268.695 167.468C268.724 167.647 268.767 167.801 268.822 167.93V168H267.974C267.933 167.906 267.901 167.782 267.877 167.626C267.854 167.468 267.842 167.322 267.842 167.187ZM267.983 165.117L267.992 165.688H267.17C266.938 165.688 266.732 165.708 266.55 165.746C266.369 165.781 266.216 165.835 266.093 165.908C265.97 165.981 265.876 166.074 265.812 166.185C265.748 166.293 265.715 166.421 265.715 166.567C265.715 166.717 265.749 166.853 265.816 166.976C265.884 167.099 265.985 167.197 266.12 167.271C266.257 167.341 266.426 167.376 266.625 167.376C266.874 167.376 267.094 167.323 267.284 167.218C267.475 167.112 267.625 166.983 267.737 166.831C267.851 166.679 267.913 166.531 267.921 166.387L268.269 166.778C268.248 166.901 268.192 167.038 268.102 167.187C268.011 167.336 267.889 167.48 267.737 167.618C267.587 167.752 267.409 167.865 267.201 167.956C266.996 168.044 266.764 168.088 266.506 168.088C266.184 168.088 265.901 168.025 265.658 167.899C265.418 167.773 265.23 167.604 265.096 167.394C264.964 167.18 264.898 166.941 264.898 166.677C264.898 166.422 264.948 166.198 265.047 166.005C265.147 165.809 265.291 165.646 265.478 165.517C265.666 165.385 265.891 165.286 266.155 165.218C266.418 165.151 266.713 165.117 267.038 165.117H267.983Z" fill="white"/>
<path d="M269.93 161.25H270.747V167.077L270.677 168H269.93V161.25ZM273.959 165.583V165.675C273.959 166.021 273.918 166.342 273.836 166.638C273.754 166.931 273.634 167.186 273.476 167.402C273.318 167.619 273.125 167.788 272.896 167.908C272.667 168.028 272.405 168.088 272.109 168.088C271.808 168.088 271.542 168.037 271.314 167.934C271.088 167.829 270.898 167.678 270.743 167.481C270.587 167.285 270.463 167.048 270.369 166.77C270.278 166.491 270.215 166.178 270.18 165.829V165.425C270.215 165.073 270.278 164.758 270.369 164.48C270.463 164.202 270.587 163.964 270.743 163.768C270.898 163.569 271.088 163.418 271.314 163.315C271.54 163.21 271.802 163.157 272.101 163.157C272.399 163.157 272.665 163.216 272.896 163.333C273.127 163.447 273.321 163.611 273.476 163.825C273.634 164.039 273.754 164.295 273.836 164.594C273.918 164.89 273.959 165.22 273.959 165.583ZM273.142 165.675V165.583C273.142 165.346 273.12 165.123 273.076 164.915C273.032 164.704 272.962 164.52 272.865 164.361C272.769 164.2 272.641 164.074 272.483 163.983C272.325 163.89 272.13 163.843 271.898 163.843C271.693 163.843 271.515 163.878 271.362 163.948C271.213 164.019 271.085 164.114 270.98 164.234C270.875 164.351 270.788 164.486 270.721 164.638C270.656 164.788 270.608 164.943 270.576 165.104V166.163C270.623 166.368 270.699 166.566 270.804 166.756C270.913 166.944 271.056 167.098 271.235 167.218C271.417 167.338 271.641 167.398 271.907 167.398C272.127 167.398 272.314 167.354 272.47 167.266C272.628 167.175 272.755 167.051 272.852 166.893C272.952 166.734 273.025 166.551 273.072 166.343C273.119 166.135 273.142 165.913 273.142 165.675Z" fill="white"/>
<path d="M275.001 167.569C275.001 167.432 275.043 167.316 275.128 167.222C275.216 167.125 275.342 167.077 275.506 167.077C275.67 167.077 275.795 167.125 275.88 167.222C275.968 167.316 276.012 167.432 276.012 167.569C276.012 167.704 275.968 167.818 275.88 167.912C275.795 168.006 275.67 168.053 275.506 168.053C275.342 168.053 275.216 168.006 275.128 167.912C275.043 167.818 275.001 167.704 275.001 167.569Z" fill="white"/>
<path d="M278.244 163.245V168H277.427V163.245H278.244ZM277.365 161.984C277.365 161.852 277.405 161.741 277.484 161.65C277.566 161.559 277.686 161.514 277.844 161.514C278 161.514 278.118 161.559 278.2 161.65C278.285 161.741 278.328 161.852 278.328 161.984C278.328 162.11 278.285 162.218 278.2 162.309C278.118 162.397 278 162.441 277.844 162.441C277.686 162.441 277.566 162.397 277.484 162.309C277.405 162.218 277.365 162.11 277.365 161.984Z" fill="white"/>
<path d="M279.334 165.675V165.574C279.334 165.231 279.384 164.914 279.483 164.621C279.583 164.325 279.727 164.068 279.914 163.852C280.102 163.632 280.329 163.462 280.595 163.342C280.862 163.219 281.161 163.157 281.492 163.157C281.826 163.157 282.126 163.219 282.393 163.342C282.662 163.462 282.891 163.632 283.078 163.852C283.269 164.068 283.414 164.325 283.513 164.621C283.613 164.914 283.663 165.231 283.663 165.574V165.675C283.663 166.018 283.613 166.336 283.513 166.629C283.414 166.922 283.269 167.178 283.078 167.398C282.891 167.615 282.664 167.785 282.397 167.908C282.133 168.028 281.834 168.088 281.5 168.088C281.167 168.088 280.866 168.028 280.6 167.908C280.333 167.785 280.104 167.615 279.914 167.398C279.727 167.178 279.583 166.922 279.483 166.629C279.384 166.336 279.334 166.018 279.334 165.675ZM280.147 165.574V165.675C280.147 165.913 280.175 166.137 280.23 166.348C280.286 166.556 280.37 166.74 280.481 166.901C280.595 167.062 280.737 167.19 280.907 167.284C281.077 167.375 281.275 167.42 281.5 167.42C281.723 167.42 281.918 167.375 282.085 167.284C282.255 167.19 282.396 167.062 282.507 166.901C282.618 166.74 282.702 166.556 282.757 166.348C282.816 166.137 282.845 165.913 282.845 165.675V165.574C282.845 165.34 282.816 165.119 282.757 164.911C282.702 164.7 282.617 164.514 282.502 164.353C282.391 164.188 282.25 164.06 282.081 163.966C281.914 163.872 281.717 163.825 281.492 163.825C281.269 163.825 281.073 163.872 280.903 163.966C280.736 164.06 280.595 164.188 280.481 164.353C280.37 164.514 280.286 164.7 280.23 164.911C280.175 165.119 280.147 165.34 280.147 165.574Z" fill="white"/>
<path fill-rule="evenodd" clip-rule="evenodd" d="M88 131.25H21V130.75H88V131.25Z" fill="#FF5E1A"/>
</svg>
