<svg width="365" height="259" viewBox="0 0 365 259" fill="none" xmlns="http://www.w3.org/2000/svg">
<rect x="7" y="129" width="336" height="86" fill="white"/>
<path d="M214.5 199H205L224 151.5C225 149 228.6 144 235 144C243 144 245.5 149 246.5 151.5C247.3 153.5 258.833 184 264.5 199H255L238.5 156C238.167 155 237 153 235 153C233 153 231.833 155 231.5 156L228 165L214.5 199Z" fill="black"/>
<path d="M93.5 199H84L103 151.5C104 149 107.6 144 114 144C122 144 124.5 149 125.5 151.5C126.3 153.5 137.833 184 143.5 199H134L117.5 156C117.167 155 116 153 114 153C112 153 110.833 155 110.5 156L107 165L93.5 199Z" fill="black"/>
<path d="M196 153.5V145H170.5C166 145 152.5 146 152.5 159.5C152.5 173 163 175.5 166 175.5H182.5C189 175.5 192 180 192 183C192 186 189.5 190.5 181.5 190.5H153.5V199H184.5C192.5 199 200.5 195 200.5 181.5C200.5 168 185.5 167.5 182.5 167.5H170.5C162.5 167.5 161 163.5 161 160C161 156.5 165 153.5 170.5 153.5H196Z" fill="black"/>
<path d="M60 145H30.5V153.5H57.5C61.1667 153.333 68.5 154.7 68.5 161.5C68.5 168.3 61.1667 169.667 57.5 169.5H37C30 169.5 30.5 175 30.5 178V199H39V181.5C39 179.5 39.5 178 42 178H55.5L68 199H77.5L65 177C69 176.333 77 172.3 77 161.5C77 148 64 145 60 145Z" fill="black"/>
<path d="M274 144.5V153H302.5C307.5 153 311.5 155 311.5 160C311.5 165 308.5 167.5 304 167.5H280C275 167.5 274 171.5 274 175.5V194C274 198 278 198.667 280 198.5H301.5C312 198.5 320.5 194.5 320.5 183.5C320.5 174.7 313.833 171.833 310.5 171.5C313.667 171.167 320 168.1 320 158.5C320 146.5 309 144.5 303.5 144.5H274Z" fill="black"/>
<path d="M303 175.5H282V187C282 191.5 284.5 191 287.5 191H303.5C308.5 191 311.5 187.5 311.5 183C311.5 178.5 307.5 175.5 303 175.5Z" fill="white"/>
<path d="M214.5 100H205L224 52.5C225 50 228.6 45 235 45C243 45 245.5 50 246.5 52.5C247.3 54.5 258.833 85 264.5 100H255L238.5 57C238.167 56 237 54 235 54C233 54 231.833 56 231.5 57L228 66L214.5 100Z" fill="white"/>
<path d="M93.5 100H84L103 52.5C104 50 107.6 45 114 45C122 45 124.5 50 125.5 52.5C126.3 54.5 137.833 85 143.5 100H134L117.5 57C117.167 56 116 54 114 54C112 54 110.833 56 110.5 57L107 66L93.5 100Z" fill="white"/>
<path d="M196 54.5V46H170.5C166 46 152.5 47 152.5 60.5C152.5 74 163 76.5 166 76.5H182.5C189 76.5 192 81 192 84C192 87 189.5 91.5 181.5 91.5H153.5V100H184.5C192.5 100 200.5 96 200.5 82.5C200.5 69 185.5 68.5 182.5 68.5H170.5C162.5 68.5 161 64.5 161 61C161 57.5 165 54.5 170.5 54.5H196Z" fill="white"/>
<path d="M60 46H30.5V54.5H57.5C61.1667 54.3333 68.5 55.7 68.5 62.5C68.5 69.3 61.1667 70.6667 57.5 70.5H37C30 70.5 30.5 76 30.5 79V100H39V82.5C39 80.5 39.5 79 42 79H55.5L68 100H77.5L65 78C69 77.3333 77 73.3 77 62.5C77 49 64 46 60 46Z" fill="white"/>
<path d="M274 45.5V54H302.5C307.5 54 311.5 56 311.5 61C311.5 66 308.5 68.5 304 68.5H280C275 68.5 274 72.5 274 76.5V95C274 99 278 99.6667 280 99.5H301.5C312 99.5 320.5 95.5 320.5 84.5C320.5 75.7 313.833 72.8333 310.5 72.5C313.667 72.1667 320 69.1 320 59.5C320 47.5 309 45.5 303.5 45.5H274Z" fill="white"/>
<path d="M303 76.5H282V88C282 92.5 284.5 92 287.5 92H303.5C308.5 92 311.5 88.5 311.5 84C311.5 79.5 307.5 76.5 303 76.5Z" fill="black"/>
</svg>
