<?xml version="1.0" encoding="UTF-8"?>
<svg width="508px" height="416px" viewBox="0 0 508 416" version="1.1" xmlns="http://www.w3.org/2000/svg" xmlns:xlink="http://www.w3.org/1999/xlink">
    <!-- Generator: Sketch 54.1 (76490) - https://sketchapp.com -->
    <title>Shape</title>
    <desc>Created with Sketch.</desc>
    <g id="Page-1" stroke="none" stroke-width="1" fill="none" fill-rule="evenodd">
        <g id="001-twitter" transform="translate(0.000000, -0.333333)" fill="#FFFFFF" fill-rule="nonzero">
            <path d="M8.09066667,370.36 C55.4933333,400.44 110.661333,416.333333 167.621333,416.333333 C251.034667,416.333333 327.472,384.290667 382.874667,326.114667 C435.888,270.434667 465.050667,195.618667 463.6,119.693333 C483.696,102.498667 507.333333,69.6666667 507.333333,37.6666667 C507.333333,25.4 494.021333,17.6133333 483.226667,23.864 C464.346667,34.9573333 447.130667,37.8586667 429.424,32.888 C393.264,-2.35466667 339.44,-9.77866667 294.085333,14.6693333 C254.448,36.0026667 232.410667,75.0426667 234.394667,117.709333 C167.429333,109.538667 105.562667,75.96 62.4266667,23.7786667 C55.344,15.2666667 41.904,16.2693333 36.272,25.912 C15.4933333,61.496 15.7066667,102.733333 33.776,136.034667 C25.1786667,137.549333 19.8666667,144.781333 19.8666667,152.610667 C19.8666667,186.082667 34.928,216.845333 59.184,237.837333 C54.6613333,242.189333 53.168,248.653333 55.088,254.413333 C65.7546667,286.456 89.904,311.501333 120.090667,324.045333 C87.2586667,339.725333 50.9493333,344.952 18.6293333,340.984 C1.904,338.722667 -6.352,361.208 8.09066667,370.36 Z M171.994667,329.528 C183.962667,320.333333 177.605333,301.176 162.586667,300.856 C136.133333,300.301333 112.048,287.266667 97.0506667,266.765333 C104.282667,266.296 111.770667,265.186667 118.896,263.266667 C135.130667,258.872 134.362667,235.448 117.872,232.141333 C87.9413333,226.125333 64.4533333,204.322667 55.6426667,176.248 C63.6853333,178.232 71.8773333,179.341333 80.048,179.490667 C96.24,179.576 102.362667,158.818667 89.1573333,150.136 C59.3973333,130.530667 46.704,95.9066667 55.1093333,63.352 C107.077333,116.002667 177.584,147.725333 252.165333,151.309333 C262.853333,151.970667 270.874667,141.922667 268.528,131.746667 C258.394667,87.8213333 282.928,57.0373333 309.274667,42.8506667 C335.344,28.7706667 377.2,24.376 409.285333,58.04 C418.821333,68.088 450.992,68.472 467.354667,64.6533333 C460.016,78.4773333 448.730667,91.5973333 438.170667,98.9786667 C433.669333,102.136 431.088,107.384 431.365333,112.866667 C434.8,182.946667 408.688,252.621333 359.728,304.013333 C310.405333,355.789333 242.202667,384.312 167.642667,384.312 C137.989333,384.312 108.912,379.490667 81.4346667,370.189333 C114.288,363.832 145.498667,349.922667 171.994667,329.528 Z" id="Shape"></path>
        </g>
    </g>
</svg>